M48
;Layer_Color=9474304
;FILE_FORMAT=2:5
INCH,LZ
;TYPE=PLATED
T1F00S00C0.00787
T2F00S00C0.01181
T3F00S00C0.01200
T4F00S00C0.01600
T5F00S00C0.03543
T6F00S00C0.03937
%
T01
X-0105703Y-0057448
X-0101372
X-0097042
X-0092711
X-008838
Y-0053117
Y-0048787
Y-0044456
Y-0040125
X-0092711
Y-0044456
Y-0048787
Y-0053117
X-0097042
Y-0048787
Y-0044456
Y-0040125
X-0101372
Y-0044456
Y-0048787
Y-0053117
X-0105703
Y-0048787
Y-0044456
Y-0040125
T02
X-0108905Y-01001
X-0104905
Y-00951
X-0108905
X-0108405Y-00055
X-0112406
Y-00005
X-0108405
T03
X-0045744Y-00951
X-0034405Y-00951
X-0036768Y-00976
X-0034405Y-01001
X-0055131Y-01001
Y-00951
X-0064406
Y-01001
Y-00901
Y-00851
X-0055131
Y-00901
X-0059877Y-0072473
X-0061468Y-00647
X-0051768Y-00634
X-0049768Y-00659
X-0047768Y-00684
X-0053268Y-00604
X-0056127Y-0049973
X-0063627
X-0059877Y-0042473
X-0052377
X-0048627Y-0049973
X-0063268Y-00369
X-0072768Y-00384
X-0078268Y-00319
X-0072268Y-00254
X-0066768Y-00264
X-0067905Y-00149
Y-00099
Y-00049
Y00001
X-0058631
Y-00049
Y-00099
Y-00149
X-0049244
Y-00099
X-0049301Y00001
X-0078268Y-00124
X-0078405Y-00166
X-0085905Y-00177
X-01005Y-00198
X-01001Y-00236
X-01007Y-0028
X-00976Y-00289
X-0111768Y-00294
X-01109Y-00328
X-0119268Y-00354
X-0119235Y-0049771
X-0117405Y-00536
X-01225Y-00527
X-01283Y-00643
X-0126005Y-00676
X-012056Y-0068485
X-0116546Y-006656
X-0113706Y-00664
X-0111906Y-00641
X-0101706Y-00608
X-0083706Y-00647
X-0068268Y-00709
X-0092567Y-0080546
X-0096905Y-00831
X-0099705Y-0083046
X-01099Y-00835
X-0111805Y-00877
X-0119877Y-0087473
X-01225Y-00838
X-0127377Y-0087473
Y-0027473
X-0131127Y-0019973
X-01225Y-00134
X-0123627Y-0004973
X-0116127
X-0109306Y-00172
X-0084905Y-00401
X-0044877Y-0042473
X-0041127Y-0049973
X-0033627
X-0029877Y-0042473
X-0023806Y-00259
X-0021279Y-00135
Y-00093
X-0021279Y-00045
Y-00003
X-0008705Y-00007
Y-00049
X-0008705Y-00097
Y-00139
X-0003627Y-0004973
X-0037905Y-00049
X-0040268Y-00024
X-0037905Y00001
X-0040268Y-00074
X-0037905Y-00099
X-0040268Y-00124
X-0037905Y-00149
X-0044877Y-0057473
X-0045801Y-00851
X-0034405Y-00851
X-0036768Y-00876
X-0034405Y-00901
X-0036768Y-00926
X-0022377Y-0087473
X-0014877
X-0014711Y-00806
Y-00764
X-0011127Y-0064973
X-0003627
T04
X-0092106Y-00694
X-0091505Y-00278
T05
X0Y-01
X-014
Y-009
Y-008
Y-007
Y-006
Y-005
Y-004
Y-003
Y-002
Y-001
Y0
X0
Y-001
Y-006
Y-007
Y-008
Y-009
X-0025268Y-00384
X-0035268
T06
X0Y-005
Y-004
Y-003
Y-002
M30
