G04 Layer_Color=65535*
%FSLAX25Y25*%
%MOIN*%
G70*
G01*
G75*
%ADD31C,0.00551*%
%ADD32C,0.00984*%
%ADD33C,0.02362*%
%ADD34C,0.00787*%
%ADD35C,0.01181*%
%ADD36C,0.00700*%
%ADD37C,0.00500*%
G36*
X-29268Y-47344D02*
X-29268D01*
X-29268D01*
D01*
D02*
G37*
G36*
X-28450Y-29547D02*
X-26874Y-30024D01*
X-25411Y-30779D01*
X-24109Y-31786D01*
X-23011Y-33014D01*
X-22155Y-34420D01*
X-21567Y-35958D01*
X-21268Y-37577D01*
X-21268Y-38400D01*
X-21268Y-38400D01*
X-21268Y-39223D01*
X-21567Y-40842D01*
X-22155Y-42380D01*
X-23011Y-43786D01*
X-24109Y-45014D01*
X-25411Y-46021D01*
X-26874Y-46776D01*
X-28450Y-47253D01*
X-29268Y-47344D01*
X-29268Y-38400D01*
Y-29456D01*
X-28450Y-29547D01*
D02*
G37*
%LPC*%
G36*
X-25268Y-34900D02*
X-25611Y-34917D01*
X-26284Y-35051D01*
X-26918Y-35313D01*
X-27489Y-35695D01*
X-27974Y-36180D01*
X-28355Y-36750D01*
X-28618Y-37384D01*
X-28752Y-38057D01*
X-28768Y-38400D01*
X-28752Y-38743D01*
X-28618Y-39416D01*
X-28355Y-40050D01*
X-27974Y-40620D01*
X-27489Y-41105D01*
X-26918Y-41487D01*
X-26284Y-41749D01*
X-25611Y-41883D01*
X-25268Y-41900D01*
X-24925Y-41883D01*
X-24252Y-41749D01*
X-23618Y-41487D01*
X-23048Y-41105D01*
X-22563Y-40620D01*
X-22182Y-40050D01*
X-21919Y-39416D01*
X-21785Y-38743D01*
X-21768Y-38400D01*
X-21785Y-38057D01*
X-21919Y-37384D01*
X-22182Y-36750D01*
X-22563Y-36180D01*
X-23048Y-35695D01*
X-23618Y-35313D01*
X-24252Y-35051D01*
X-24925Y-34917D01*
X-25268Y-34900D01*
D02*
G37*
%LPD*%
D31*
X-21254Y-38400D02*
G03*
X-21254Y-38400I-9014J0D01*
G01*
D32*
X-82868Y-32645D02*
G03*
X-82868Y-32645I-492J0D01*
G01*
X-49946Y-81852D02*
G03*
X-49946Y-81852I-492J0D01*
G01*
X-79946Y-81852D02*
G03*
X-79946Y-81852I-492J0D01*
G01*
X-53446Y3348D02*
G03*
X-53446Y3348I-492J0D01*
G01*
X-83446D02*
G03*
X-83446Y3348I-492J0D01*
G01*
D33*
X-41284Y-86695D02*
G03*
X-41284Y-86695I-1181J0D01*
G01*
X-71284Y-86695D02*
G03*
X-71284Y-86695I-1181J0D01*
G01*
X-44784Y-1495D02*
G03*
X-44784Y-1495I-1181J0D01*
G01*
X-74784D02*
G03*
X-74784Y-1495I-1181J0D01*
G01*
D34*
X-5000Y-15000D02*
X5000D01*
Y-55000D02*
Y-15000D01*
X-5000Y-55000D02*
Y-15000D01*
Y-55000D02*
X5000D01*
X-135000Y-105000D02*
Y-55000D01*
X-145000D02*
X-135000D01*
X-145000Y-105000D02*
Y-55000D01*
Y-105000D02*
X-135000D01*
X-145000Y-55000D02*
X-135000D01*
X-145000D02*
Y-15000D01*
X-135000Y-55000D02*
Y-15000D01*
X-145000D02*
X-135000D01*
X-5000Y-75000D02*
X5000D01*
X-5000Y-105000D02*
Y-75000D01*
Y-105000D02*
X5000D01*
Y-75000D01*
X-135000Y-15000D02*
Y5000D01*
X-145000Y-15000D02*
X-135000D01*
X-145000D02*
Y5000D01*
X-135000D01*
X5000Y-15000D02*
Y5000D01*
X-5000Y-15000D02*
X5000D01*
X-5000D02*
Y5000D01*
X5000D01*
Y-75000D02*
Y-55000D01*
X-5000Y-75000D02*
X5000D01*
X-5000D02*
Y-55000D01*
X5000D01*
X-109246Y-36582D02*
X-84837D01*
X-109246Y-60991D02*
X-84837D01*
Y-36582D01*
X-109246Y-60991D02*
Y-36582D01*
X-46402Y-102443D02*
X-33804D01*
X-46402Y-82758D02*
X-33804D01*
Y-102443D02*
Y-82758D01*
X-46402Y-102443D02*
Y-82758D01*
X-76402Y-102443D02*
X-63804D01*
X-76402Y-82758D02*
X-63804D01*
Y-102443D02*
Y-82758D01*
X-76402Y-102443D02*
Y-82758D01*
X-49902Y-17243D02*
X-37304D01*
X-49902Y2442D02*
X-37304D01*
Y-17243D02*
Y2442D01*
X-49902Y-17243D02*
Y2442D01*
X-79902Y-17243D02*
X-67304D01*
X-79902Y2442D02*
X-67304D01*
Y-17243D02*
Y2442D01*
X-79902Y-17243D02*
Y2442D01*
D35*
X-37768Y-50400D02*
X-32768D01*
X-35268Y-52900D02*
Y-47900D01*
X-25268Y-52900D02*
Y-47900D01*
D36*
X-56473Y-77025D02*
Y-74692D01*
Y-75858D01*
X-52974D01*
Y-73526D02*
X-56473D01*
X-55307Y-72359D01*
X-56473Y-71193D01*
X-52974D01*
X-55890Y-67694D02*
X-56473Y-68277D01*
Y-69444D01*
X-55890Y-70027D01*
X-53557D01*
X-52974Y-69444D01*
Y-68277D01*
X-53557Y-67694D01*
X-56473Y-64195D02*
Y-66528D01*
X-54724D01*
X-55307Y-65361D01*
Y-64778D01*
X-54724Y-64195D01*
X-53557D01*
X-52974Y-64778D01*
Y-65945D01*
X-53557Y-66528D01*
X-52974Y-63029D02*
Y-61863D01*
Y-62446D01*
X-56473D01*
X-55890Y-63029D01*
X-56473Y-57781D02*
X-55890Y-58947D01*
X-54724Y-60113D01*
X-53557D01*
X-52974Y-59530D01*
Y-58364D01*
X-53557Y-57781D01*
X-54141D01*
X-54724Y-58364D01*
Y-60113D01*
X-55890Y-56614D02*
X-56473Y-56031D01*
Y-54865D01*
X-55890Y-54282D01*
X-53557D01*
X-52974Y-54865D01*
Y-56031D01*
X-53557Y-56614D01*
X-55890D01*
X-52391Y-53115D02*
Y-50783D01*
X-56473Y-49617D02*
X-52974D01*
Y-47867D01*
X-53557Y-47284D01*
X-54141D01*
X-54724Y-47867D01*
Y-49617D01*
Y-47867D01*
X-55307Y-47284D01*
X-55890D01*
X-56473Y-47867D01*
Y-49617D01*
Y-44368D02*
Y-45535D01*
X-55890Y-46118D01*
X-53557D01*
X-52974Y-45535D01*
Y-44368D01*
X-53557Y-43785D01*
X-55890D01*
X-56473Y-44368D01*
Y-42619D02*
X-52974D01*
Y-40870D01*
X-53557Y-40286D01*
X-54141D01*
X-54724Y-40870D01*
Y-42619D01*
Y-40870D01*
X-55307Y-40286D01*
X-55890D01*
X-56473Y-40870D01*
Y-42619D01*
X-52391Y-39120D02*
Y-36788D01*
X-56473Y-35621D02*
X-54141D01*
X-52974Y-34455D01*
X-54141Y-33289D01*
X-56473D01*
X-52974Y-32122D02*
Y-30956D01*
Y-31539D01*
X-56473D01*
X-55890Y-32122D01*
X-52974Y-29207D02*
X-53557D01*
Y-28623D01*
X-52974D01*
Y-29207D01*
Y-23958D02*
Y-26291D01*
X-55307Y-23958D01*
X-55890D01*
X-56473Y-24541D01*
Y-25708D01*
X-55890Y-26291D01*
X-132416Y1999D02*
Y-667D01*
X-131083Y-1999D01*
X-129750Y-667D01*
Y1999D01*
X-125751Y1333D02*
X-126418Y1999D01*
X-127751D01*
X-128417Y1333D01*
Y-1333D01*
X-127751Y-1999D01*
X-126418D01*
X-125751Y-1333D01*
X-121753Y1333D02*
X-122419Y1999D01*
X-123752D01*
X-124418Y1333D01*
Y-1333D01*
X-123752Y-1999D01*
X-122419D01*
X-121753Y-1333D01*
X-120420Y-2666D02*
X-117754D01*
X-116421Y1999D02*
X-115088D01*
X-115754D01*
Y-1999D01*
X-116421D01*
X-115088D01*
X-111089Y1999D02*
X-112422D01*
X-113089Y1333D01*
Y-1333D01*
X-112422Y-1999D01*
X-111089D01*
X-110423Y-1333D01*
Y1333D01*
X-111089Y1999D01*
X-129734Y-8667D02*
X-130401Y-8001D01*
X-131734D01*
X-132400Y-8667D01*
Y-11333D01*
X-131734Y-11999D01*
X-130401D01*
X-129734Y-11333D01*
Y-10000D01*
X-131067D01*
X-128401Y-11999D02*
Y-8001D01*
X-125735Y-11999D01*
Y-8001D01*
X-124403D02*
Y-11999D01*
X-122403D01*
X-121737Y-11333D01*
Y-8667D01*
X-122403Y-8001D01*
X-124403D01*
X-129834Y-18667D02*
X-130501Y-18001D01*
X-131834D01*
X-132500Y-18667D01*
Y-21333D01*
X-131834Y-21999D01*
X-130501D01*
X-129834Y-21333D01*
X-125836Y-18667D02*
X-126502Y-18001D01*
X-127835D01*
X-128501Y-18667D01*
Y-19333D01*
X-127835Y-20000D01*
X-126502D01*
X-125836Y-20666D01*
Y-21333D01*
X-126502Y-21999D01*
X-127835D01*
X-128501Y-21333D01*
X-124503Y-21999D02*
Y-18001D01*
X-121837Y-21999D01*
Y-18001D01*
X-129834Y-38667D02*
X-130501Y-38001D01*
X-131834D01*
X-132500Y-38667D01*
Y-39334D01*
X-131834Y-40000D01*
X-130501D01*
X-129834Y-40666D01*
Y-41333D01*
X-130501Y-41999D01*
X-131834D01*
X-132500Y-41333D01*
X-128501Y-38001D02*
Y-41999D01*
X-126502D01*
X-125836Y-41333D01*
Y-38667D01*
X-126502Y-38001D01*
X-128501D01*
X-124503D02*
X-123170D01*
X-123836D01*
Y-41999D01*
X-124503D01*
X-123170D01*
X-130167Y-49084D02*
X-130751Y-48500D01*
X-131917D01*
X-132500Y-49084D01*
Y-49667D01*
X-131917Y-50250D01*
X-130751D01*
X-130167Y-50833D01*
Y-51416D01*
X-130751Y-51999D01*
X-131917D01*
X-132500Y-51416D01*
X-129001Y-48500D02*
Y-51999D01*
X-127252D01*
X-126669Y-51416D01*
Y-49084D01*
X-127252Y-48500D01*
X-129001D01*
X-123753D02*
X-124919D01*
X-125502Y-49084D01*
Y-51416D01*
X-124919Y-51999D01*
X-123753D01*
X-123170Y-51416D01*
Y-49084D01*
X-123753Y-48500D01*
X-129834Y-28667D02*
X-130501Y-28001D01*
X-131834D01*
X-132500Y-28667D01*
Y-29334D01*
X-131834Y-30000D01*
X-130501D01*
X-129834Y-30666D01*
Y-31333D01*
X-130501Y-31999D01*
X-131834D01*
X-132500Y-31333D01*
X-125836Y-28667D02*
X-126502Y-28001D01*
X-127835D01*
X-128501Y-28667D01*
Y-31333D01*
X-127835Y-31999D01*
X-126502D01*
X-125836Y-31333D01*
X-124503Y-28001D02*
Y-31999D01*
Y-30666D01*
X-121837Y-28001D01*
X-123836Y-30000D01*
X-121837Y-31999D01*
X-132700Y-82201D02*
Y-85500D01*
X-131051D01*
X-130501Y-84950D01*
Y-82751D01*
X-131051Y-82201D01*
X-132700D01*
X-129401Y-85500D02*
Y-82201D01*
X-127752D01*
X-127202Y-82751D01*
Y-83851D01*
X-127752Y-84400D01*
X-129401D01*
X-128301D02*
X-127202Y-85500D01*
X-126102Y-82201D02*
Y-84400D01*
X-125003Y-85500D01*
X-123903Y-84400D01*
Y-82201D01*
X-122803Y-86050D02*
X-120604D01*
X-117305Y-82201D02*
X-119504D01*
Y-85500D01*
X-117305D01*
X-119504Y-83851D02*
X-118405D01*
X-116205Y-85500D02*
Y-82201D01*
X-114006Y-85500D01*
Y-82201D01*
X-112906Y-85500D02*
Y-82201D01*
X-110707Y-85500D01*
Y-82201D01*
X-132500Y-101999D02*
Y-98001D01*
X-130501D01*
X-129834Y-98667D01*
Y-100000D01*
X-130501Y-100666D01*
X-132500D01*
X-131167D02*
X-129834Y-101999D01*
X-125836Y-98001D02*
X-128501D01*
Y-101999D01*
X-125836D01*
X-128501Y-100000D02*
X-127168D01*
X-121837Y-98001D02*
X-124503D01*
Y-100000D01*
X-123170D01*
X-124503D01*
Y-101999D01*
X-120504D02*
Y-98001D01*
X-118505D01*
X-117838Y-98667D01*
Y-100000D01*
X-118505Y-100666D01*
X-120504D01*
X-119171D02*
X-117838Y-101999D01*
X-132500Y-91999D02*
Y-88001D01*
X-130501D01*
X-129834Y-88667D01*
Y-90000D01*
X-130501Y-90666D01*
X-132500D01*
X-131167D02*
X-129834Y-91999D01*
X-125836Y-88001D02*
X-128501D01*
Y-91999D01*
X-125836D01*
X-128501Y-90000D02*
X-127168D01*
X-121837Y-88001D02*
X-124503D01*
Y-90000D01*
X-123170D01*
X-124503D01*
Y-91999D01*
X-120504Y-88001D02*
Y-91999D01*
X-117838D01*
X-129834Y-65167D02*
X-130501Y-64501D01*
X-131834D01*
X-132500Y-65167D01*
Y-67833D01*
X-131834Y-68499D01*
X-130501D01*
X-129834Y-67833D01*
X-128501Y-64501D02*
Y-68499D01*
X-125836D01*
X-124503Y-64501D02*
Y-68499D01*
Y-67166D01*
X-121837Y-64501D01*
X-123836Y-66500D01*
X-121837Y-68499D01*
X-120504D02*
X-119171D01*
X-119837D01*
Y-64501D01*
X-120504Y-65167D01*
X-114506Y-64501D02*
X-115839Y-65167D01*
X-117172Y-66500D01*
Y-67833D01*
X-116505Y-68499D01*
X-115172D01*
X-114506Y-67833D01*
Y-67166D01*
X-115172Y-66500D01*
X-117172D01*
X-15767Y-51999D02*
Y-49334D01*
X-14434Y-48001D01*
X-13101Y-49334D01*
Y-51999D01*
Y-50000D01*
X-15767D01*
X-11768Y-51999D02*
X-10435D01*
X-11102D01*
Y-48001D01*
X-11768Y-48667D01*
X-17100Y-41999D02*
Y-39334D01*
X-15767Y-38001D01*
X-14434Y-39334D01*
Y-41999D01*
Y-40000D01*
X-17100D01*
X-10435Y-41999D02*
X-13101D01*
X-10435Y-39334D01*
Y-38667D01*
X-11102Y-38001D01*
X-12435D01*
X-13101Y-38667D01*
X-18433Y-58667D02*
X-19099Y-58001D01*
X-20432D01*
X-21099Y-58667D01*
Y-61333D01*
X-20432Y-61999D01*
X-19099D01*
X-18433Y-61333D01*
Y-60000D01*
X-19766D01*
X-17100Y-61999D02*
Y-58001D01*
X-14434Y-61999D01*
Y-58001D01*
X-13101D02*
Y-61999D01*
X-11102D01*
X-10435Y-61333D01*
Y-58667D01*
X-11102Y-58001D01*
X-13101D01*
X-17100Y-18001D02*
Y-21999D01*
X-15101D01*
X-14434Y-21333D01*
Y-20666D01*
X-15101Y-20000D01*
X-17100D01*
X-15101D01*
X-14434Y-19333D01*
Y-18667D01*
X-15101Y-18001D01*
X-17100D01*
X-10435Y-21999D02*
X-13101D01*
X-10435Y-19333D01*
Y-18667D01*
X-11102Y-18001D01*
X-12435D01*
X-13101Y-18667D01*
X-15767Y-28001D02*
Y-31999D01*
X-13768D01*
X-13101Y-31333D01*
Y-30666D01*
X-13768Y-30000D01*
X-15767D01*
X-13768D01*
X-13101Y-29334D01*
Y-28667D01*
X-13768Y-28001D01*
X-15767D01*
X-11768Y-31999D02*
X-10435D01*
X-11102D01*
Y-28001D01*
X-11768Y-28667D01*
X-24394Y-68001D02*
Y-71999D01*
X-22395D01*
X-21728Y-71333D01*
Y-68667D01*
X-22395Y-68001D01*
X-24394D01*
X-20395D02*
X-19063D01*
X-19729D01*
Y-71999D01*
X-20395D01*
X-19063D01*
X-17063D02*
Y-69334D01*
X-15730Y-68001D01*
X-14397Y-69334D01*
Y-71999D01*
Y-70000D01*
X-17063D01*
X-10399Y-68667D02*
X-11065Y-68001D01*
X-12398D01*
X-13065Y-68667D01*
Y-71333D01*
X-12398Y-71999D01*
X-11065D01*
X-10399Y-71333D01*
Y-70000D01*
X-11732D01*
X-9066Y-68667D02*
X-8399Y-68001D01*
X-7067D01*
X-6400Y-68667D01*
Y-71333D01*
X-7067Y-71999D01*
X-8399D01*
X-9066Y-71333D01*
Y-68667D01*
X-18396Y-82001D02*
X-21062D01*
Y-85999D01*
X-18396D01*
X-21062Y-84000D02*
X-19729D01*
X-17063Y-85999D02*
Y-82001D01*
X-14397Y-85999D01*
Y-82001D01*
X-10399Y-82667D02*
X-11065Y-82001D01*
X-12398D01*
X-13065Y-82667D01*
Y-85333D01*
X-12398Y-85999D01*
X-11065D01*
X-10399Y-85333D01*
X-9066Y-85999D02*
Y-83334D01*
X-7733Y-82001D01*
X-6400Y-83334D01*
Y-85999D01*
Y-84000D01*
X-9066D01*
X-18396Y-90001D02*
X-21062D01*
Y-93999D01*
X-18396D01*
X-21062Y-92000D02*
X-19729D01*
X-17063Y-93999D02*
Y-90001D01*
X-14397Y-93999D01*
Y-90001D01*
X-10399Y-90667D02*
X-11065Y-90001D01*
X-12398D01*
X-13065Y-90667D01*
Y-93333D01*
X-12398Y-93999D01*
X-11065D01*
X-10399Y-93333D01*
X-9066Y-90001D02*
Y-93999D01*
X-7067D01*
X-6400Y-93333D01*
Y-92666D01*
X-7067Y-92000D01*
X-9066D01*
X-7067D01*
X-6400Y-91334D01*
Y-90667D01*
X-7067Y-90001D01*
X-9066D01*
X-18396Y-98001D02*
X-21062D01*
Y-101999D01*
X-18396D01*
X-21062Y-100000D02*
X-19729D01*
X-17063Y-101999D02*
Y-98001D01*
X-14397Y-101999D01*
Y-98001D01*
X-10399Y-98667D02*
X-11065Y-98001D01*
X-12398D01*
X-13065Y-98667D01*
Y-101333D01*
X-12398Y-101999D01*
X-11065D01*
X-10399Y-101333D01*
X-9066Y-101999D02*
Y-98001D01*
X-6400Y-101999D01*
Y-98001D01*
D37*
X-9166Y-12133D02*
X-9699Y-12666D01*
Y-13732D01*
X-9166Y-14265D01*
X-7033D01*
X-6500Y-13732D01*
Y-12666D01*
X-7033Y-12133D01*
X-8100D01*
Y-13199D01*
X-6500Y-11066D02*
X-9699D01*
X-6500Y-8934D01*
X-9699D01*
Y-7867D02*
X-6500D01*
Y-6268D01*
X-7033Y-5735D01*
X-9166D01*
X-9699Y-6268D01*
Y-7867D01*
Y-2666D02*
X-7566D01*
X-6500Y-1599D01*
X-7566Y-533D01*
X-9699D01*
X-9166Y2666D02*
X-9699Y2133D01*
Y1066D01*
X-9166Y533D01*
X-8633D01*
X-8100Y1066D01*
Y2133D01*
X-7566Y2666D01*
X-7033D01*
X-6500Y2133D01*
Y1066D01*
X-7033Y533D01*
X-131965Y-58426D02*
X-132790D01*
X-133615Y-59251D01*
Y-60076D01*
X-131965Y-61725D01*
X-131141D01*
X-130316Y-60900D01*
X-130316Y-60076D01*
X-131141Y-59251D01*
X-131965Y-60076D01*
X-129079Y-59663D02*
X-131553Y-57189D01*
X-127430Y-58014D01*
X-129904Y-55540D01*
X-129079Y-54715D02*
X-126605Y-57189D01*
X-125368Y-55952D01*
X-125368Y-55128D01*
X-127017Y-53478D01*
X-127842D01*
X-129079Y-54715D01*
M02*
