G04 Layer_Physical_Order=1*
G04 Layer_Color=255*
%FSLAX25Y25*%
%MOIN*%
G70*
G01*
G75*
G04:AMPARAMS|DCode=10|XSize=39.37mil|YSize=43.31mil|CornerRadius=0mil|HoleSize=0mil|Usage=FLASHONLY|Rotation=225.000|XOffset=0mil|YOffset=0mil|HoleType=Round|Shape=Rectangle|*
%AMROTATEDRECTD10*
4,1,4,-0.00139,0.02923,0.02923,-0.00139,0.00139,-0.02923,-0.02923,0.00139,-0.00139,0.02923,0.0*
%
%ADD10ROTATEDRECTD10*%

%ADD11R,0.04331X0.03937*%
%ADD12R,0.03937X0.04331*%
%ADD13R,0.04331X0.07087*%
%ADD14R,0.03150X0.03150*%
%ADD15O,0.01378X0.04724*%
%ADD16O,0.04724X0.01378*%
%ADD17R,0.20079X0.20079*%
%ADD18O,0.04921X0.02165*%
%ADD19C,0.00800*%
%ADD20C,0.01000*%
%ADD21C,0.01200*%
%ADD22C,0.02000*%
%ADD23C,0.06299*%
%ADD24C,0.05905*%
%ADD25C,0.02800*%
%ADD26C,0.02200*%
%ADD27C,0.02981*%
%ADD28C,0.02400*%
%ADD29C,0.02410*%
%ADD30C,0.01968*%
G36*
X-124207Y-45385D02*
X-134281Y-55459D01*
X-134502Y-55790D01*
X-134580Y-56180D01*
Y-83138D01*
X-138300Y-86858D01*
X-139073Y-86539D01*
X-140000Y-86417D01*
X-140927Y-86539D01*
X-141792Y-86897D01*
X-142534Y-87466D01*
X-142691Y-87670D01*
X-143191Y-87501D01*
Y-82499D01*
X-142691Y-82330D01*
X-142534Y-82534D01*
X-141792Y-83103D01*
X-140927Y-83461D01*
X-140000Y-83583D01*
X-139073Y-83461D01*
X-138208Y-83103D01*
X-137466Y-82534D01*
X-136897Y-81792D01*
X-136539Y-80927D01*
X-136417Y-80000D01*
X-136539Y-79073D01*
X-136897Y-78208D01*
X-137466Y-77466D01*
X-138208Y-76897D01*
X-139073Y-76539D01*
X-140000Y-76417D01*
X-140927Y-76539D01*
X-141792Y-76897D01*
X-142534Y-77466D01*
X-142691Y-77670D01*
X-143191Y-77500D01*
Y-72499D01*
X-142691Y-72330D01*
X-142534Y-72534D01*
X-141792Y-73103D01*
X-140927Y-73461D01*
X-140000Y-73583D01*
X-139073Y-73461D01*
X-138208Y-73103D01*
X-137466Y-72534D01*
X-136897Y-71792D01*
X-136539Y-70927D01*
X-136417Y-70000D01*
X-136539Y-69073D01*
X-136897Y-68208D01*
X-137466Y-67466D01*
X-138208Y-66897D01*
X-139073Y-66539D01*
X-140000Y-66417D01*
X-140927Y-66539D01*
X-141792Y-66897D01*
X-142534Y-67466D01*
X-142691Y-67670D01*
X-143191Y-67501D01*
Y-63100D01*
X-142691Y-62918D01*
X-141993Y-63453D01*
X-141032Y-63851D01*
X-140750Y-63888D01*
Y-60000D01*
Y-56112D01*
X-141032Y-56149D01*
X-141993Y-56547D01*
X-142691Y-57082D01*
X-143191Y-56900D01*
Y-52499D01*
X-142691Y-52330D01*
X-142534Y-52534D01*
X-141792Y-53103D01*
X-140927Y-53461D01*
X-140000Y-53583D01*
X-139073Y-53461D01*
X-138208Y-53103D01*
X-137466Y-52534D01*
X-136897Y-51792D01*
X-136539Y-50927D01*
X-136417Y-50000D01*
X-136539Y-49073D01*
X-136858Y-48300D01*
X-133443Y-44885D01*
X-124414D01*
X-124207Y-45385D01*
D02*
G37*
G36*
X-142534Y-42534D02*
X-141792Y-43103D01*
X-140927Y-43461D01*
X-140000Y-43583D01*
X-139073Y-43461D01*
X-138208Y-43103D01*
X-137965Y-42916D01*
X-135065D01*
X-134858Y-43416D01*
X-138300Y-46859D01*
X-139073Y-46539D01*
X-140000Y-46417D01*
X-140927Y-46539D01*
X-141792Y-46897D01*
X-142534Y-47466D01*
X-142691Y-47670D01*
X-143191Y-47501D01*
Y-42499D01*
X-142691Y-42330D01*
X-142534Y-42534D01*
D02*
G37*
G36*
Y-32534D02*
X-141792Y-33103D01*
X-140927Y-33461D01*
X-140000Y-33583D01*
X-139073Y-33461D01*
X-138300Y-33141D01*
X-131065Y-40377D01*
X-131272Y-40877D01*
X-136153D01*
X-136483Y-40501D01*
X-136417Y-40000D01*
X-136539Y-39073D01*
X-136897Y-38208D01*
X-137466Y-37466D01*
X-138208Y-36897D01*
X-139073Y-36539D01*
X-140000Y-36417D01*
X-140927Y-36539D01*
X-141792Y-36897D01*
X-142534Y-37466D01*
X-142691Y-37670D01*
X-143191Y-37501D01*
X-143191Y-32499D01*
X-142691Y-32330D01*
X-142534Y-32534D01*
D02*
G37*
G36*
X-91466Y-65583D02*
Y-66602D01*
X-91366Y-67104D01*
X-91171Y-67396D01*
Y-67454D01*
X-91094Y-67844D01*
X-90873Y-68175D01*
X-90400Y-68647D01*
Y-73000D01*
X-90500Y-73100D01*
X-94700D01*
Y-69842D01*
X-93368Y-68510D01*
X-93147Y-68179D01*
X-93069Y-67789D01*
Y-67396D01*
X-92875Y-67104D01*
X-92775Y-66602D01*
Y-65583D01*
X-92120Y-64928D01*
X-91466Y-65583D01*
D02*
G37*
G36*
X-75788Y-70725D02*
Y-76562D01*
X-75818Y-76635D01*
Y-80582D01*
X-76318Y-80789D01*
X-77275Y-79832D01*
Y-76635D01*
X-77465Y-76175D01*
X-77924Y-75985D01*
X-81861D01*
X-82321Y-76175D01*
X-82511Y-76635D01*
Y-80965D01*
X-83585D01*
Y-78578D01*
X-83776Y-78119D01*
X-84235Y-77929D01*
X-86761D01*
X-87757Y-76933D01*
X-87565Y-76472D01*
X-84235D01*
X-83776Y-76281D01*
X-83585Y-75822D01*
Y-71885D01*
X-83776Y-71426D01*
X-84235Y-71236D01*
X-85380D01*
Y-71206D01*
X-85458Y-70815D01*
X-85679Y-70485D01*
X-86392Y-69772D01*
X-86200Y-69310D01*
X-84730D01*
X-82192Y-71849D01*
X-81733Y-72039D01*
X-81273Y-71849D01*
X-78490Y-69065D01*
X-78392Y-68828D01*
X-77837Y-68676D01*
X-75788Y-70725D01*
D02*
G37*
G36*
X-21192Y-61918D02*
X-21383Y-62380D01*
X-50405D01*
X-50543Y-62174D01*
X-50924Y-61920D01*
X-50772Y-61420D01*
X-21691D01*
X-21192Y-61918D01*
D02*
G37*
G36*
X-87900Y-23000D02*
Y-27900D01*
X-87901Y-27901D01*
X-89023D01*
X-89023Y-27901D01*
X-89452Y-27986D01*
X-89816Y-28230D01*
X-89816Y-28230D01*
X-90925Y-29339D01*
X-91168Y-29703D01*
X-91254Y-30132D01*
X-91254Y-30132D01*
Y-30301D01*
X-91366Y-30469D01*
X-91466Y-30972D01*
Y-31991D01*
X-92120Y-32645D01*
X-92655D01*
X-92775Y-32525D01*
Y-30972D01*
X-92875Y-30469D01*
X-92967Y-30330D01*
Y-26513D01*
X-92885Y-26315D01*
Y-23285D01*
X-92100Y-22500D01*
X-88400D01*
X-87900Y-23000D01*
D02*
G37*
G36*
X-98885Y-16296D02*
Y-16904D01*
X-95700D01*
Y-17654D01*
X-94950D01*
Y-20642D01*
X-93535D01*
X-93145Y-20564D01*
X-92850Y-20367D01*
X-92555Y-20564D01*
X-92165Y-20642D01*
X-90750D01*
Y-17653D01*
X-90000D01*
Y-16903D01*
X-86815D01*
Y-16516D01*
X-86315Y-16256D01*
X-85972Y-16485D01*
X-85316Y-16616D01*
X-84468D01*
Y-18685D01*
X-85315D01*
X-85774Y-18875D01*
X-85964Y-19335D01*
Y-23665D01*
X-85774Y-24125D01*
Y-24375D01*
X-85964Y-24835D01*
Y-27901D01*
X-87250D01*
X-87251Y-27900D01*
Y-26473D01*
X-87185Y-26315D01*
Y-22378D01*
X-87375Y-21919D01*
X-87835Y-21729D01*
X-92165D01*
X-92548Y-21887D01*
X-92850Y-21905D01*
X-93152Y-21887D01*
X-93535Y-21729D01*
X-97865D01*
X-98325Y-21919D01*
X-98421Y-22152D01*
X-98558Y-22219D01*
X-98968Y-22304D01*
X-98983Y-22302D01*
X-99437Y-21999D01*
X-100100Y-21867D01*
X-100763Y-21999D01*
X-101326Y-22374D01*
X-101701Y-22937D01*
X-101833Y-23600D01*
X-101701Y-24263D01*
X-101326Y-24826D01*
X-100763Y-25201D01*
X-100100Y-25333D01*
X-99912Y-25296D01*
X-99783Y-25383D01*
X-99353Y-25468D01*
X-99353Y-25468D01*
X-98515D01*
Y-26315D01*
X-98325Y-26774D01*
X-98460Y-27254D01*
X-98750Y-27439D01*
X-99094Y-27338D01*
X-99115Y-27312D01*
X-99474Y-26774D01*
X-100037Y-26399D01*
X-100700Y-26267D01*
X-101363Y-26399D01*
X-101926Y-26774D01*
X-102301Y-27337D01*
X-102319Y-27428D01*
X-102862Y-27592D01*
X-103240Y-27214D01*
Y-19945D01*
X-99385Y-16089D01*
X-98885Y-16296D01*
D02*
G37*
G36*
X-19768Y-18500D02*
X-21408D01*
X-21685Y-18385D01*
X-25622D01*
X-25899Y-18500D01*
X-34408D01*
X-34685Y-18385D01*
X-38026D01*
X-41768Y-14643D01*
Y3190D01*
X-19768D01*
Y-18500D01*
D02*
G37*
G36*
X-142534Y-22534D02*
X-141792Y-23103D01*
X-140927Y-23461D01*
X-140000Y-23583D01*
X-139073Y-23461D01*
X-138300Y-23142D01*
X-123033Y-38409D01*
X-123240Y-38909D01*
X-129649D01*
X-136858Y-31700D01*
X-136539Y-30927D01*
X-136417Y-30000D01*
X-136539Y-29073D01*
X-136897Y-28208D01*
X-137466Y-27466D01*
X-138208Y-26897D01*
X-139073Y-26539D01*
X-140000Y-26417D01*
X-140927Y-26539D01*
X-141792Y-26897D01*
X-142534Y-27466D01*
X-142691Y-27670D01*
X-143191Y-27501D01*
Y-22499D01*
X-142691Y-22330D01*
X-142534Y-22534D01*
D02*
G37*
G36*
X-51955Y-24015D02*
X-48310D01*
X-48103Y-24515D01*
X-61159Y-37570D01*
X-61619Y-37324D01*
X-61535Y-36900D01*
X-61651Y-36315D01*
X-61420Y-35815D01*
X-61335D01*
X-60875Y-35625D01*
X-60685Y-35165D01*
Y-32195D01*
X-52859Y-24369D01*
X-52724Y-24168D01*
X-52602Y-24032D01*
X-52110Y-23951D01*
X-51955Y-24015D01*
D02*
G37*
G36*
X-55850Y-24477D02*
X-61559Y-30185D01*
X-65272D01*
X-65731Y-30375D01*
X-65921Y-30835D01*
Y-33314D01*
X-66916Y-34309D01*
X-67378Y-34118D01*
Y-30835D01*
X-67568Y-30375D01*
X-68028Y-30185D01*
X-70532D01*
X-70783Y-29685D01*
X-70659Y-29520D01*
X-63783D01*
X-63393Y-29442D01*
X-63062Y-29221D01*
X-57856Y-24015D01*
X-56042D01*
X-55850Y-24477D01*
D02*
G37*
G36*
X-3103Y-71792D02*
X-2534Y-72534D01*
X-1792Y-73103D01*
X-927Y-73461D01*
X0Y-73583D01*
X927Y-73461D01*
X1792Y-73103D01*
X2534Y-72534D01*
X2690Y-72330D01*
X3190Y-72500D01*
X3190Y-77500D01*
X2690Y-77670D01*
X2534Y-77466D01*
X1792Y-76897D01*
X927Y-76539D01*
X0Y-76417D01*
X-927Y-76539D01*
X-1792Y-76897D01*
X-2534Y-77466D01*
X-3103Y-78208D01*
X-3273Y-78618D01*
X-3863Y-78735D01*
X-11117Y-71482D01*
X-10925Y-71020D01*
X-3423D01*
X-3103Y-71792D01*
D02*
G37*
G36*
X-5788Y-83654D02*
Y-95232D01*
X-5710Y-95622D01*
X-5489Y-95953D01*
X-3142Y-98300D01*
X-3461Y-99073D01*
X-3583Y-100000D01*
X-3461Y-100927D01*
X-3103Y-101792D01*
X-2534Y-102534D01*
X-2330Y-102690D01*
X-2499Y-103190D01*
X-25656D01*
Y-81500D01*
X-25194Y-81315D01*
X-24924D01*
X-24465Y-81125D01*
X-24275Y-80665D01*
Y-76335D01*
X-24465Y-75875D01*
X-24924Y-75685D01*
X-28861D01*
X-29321Y-75875D01*
X-29511Y-76335D01*
Y-80665D01*
X-29635Y-80851D01*
X-30832D01*
Y-76635D01*
X-31022Y-76175D01*
X-31482Y-75985D01*
X-35418D01*
X-35878Y-76175D01*
X-36068Y-76635D01*
Y-80029D01*
X-37039Y-81000D01*
X-37525Y-80779D01*
Y-76635D01*
X-37715Y-76175D01*
X-38175Y-75985D01*
X-41478D01*
X-47010Y-70454D01*
X-46895Y-69861D01*
X-46543Y-69626D01*
X-46405Y-69420D01*
X-20022D01*
X-5788Y-83654D01*
D02*
G37*
G36*
X-43406Y-93800D02*
Y-95514D01*
X-46870Y-98978D01*
X-47785D01*
X-47847Y-98887D01*
X-48403Y-98515D01*
X-49060Y-98384D01*
X-51816D01*
X-52472Y-98515D01*
X-53029Y-98887D01*
X-53401Y-99443D01*
X-53531Y-100100D01*
X-53401Y-100757D01*
X-53029Y-101313D01*
X-52472Y-101685D01*
X-51816Y-101816D01*
X-49060D01*
X-48403Y-101685D01*
X-47847Y-101313D01*
X-47785Y-101222D01*
X-46406D01*
X-46406Y-101222D01*
X-45976Y-101136D01*
X-45612Y-100893D01*
X-43867Y-99148D01*
X-43406Y-99339D01*
Y-101800D01*
X-44405Y-102800D01*
X-65806Y-102800D01*
X-66706Y-101900D01*
X-66705Y-93682D01*
X-66124Y-93100D01*
X-44105D01*
X-43406Y-93800D01*
D02*
G37*
G36*
X-3103Y-91792D02*
X-2534Y-92534D01*
X-1792Y-93103D01*
X-927Y-93461D01*
X0Y-93583D01*
X927Y-93461D01*
X1792Y-93103D01*
X2534Y-92534D01*
X2690Y-92330D01*
X3190Y-92500D01*
X3190Y-97500D01*
X2690Y-97670D01*
X2534Y-97466D01*
X1792Y-96897D01*
X927Y-96539D01*
X0Y-96417D01*
X-927Y-96539D01*
X-1700Y-96859D01*
X-3749Y-94809D01*
Y-91540D01*
X-3249Y-91440D01*
X-3103Y-91792D01*
D02*
G37*
G36*
X-67160Y-92614D02*
X-67155Y-93213D01*
X-67165Y-93222D01*
X-67355Y-93682D01*
X-67355Y-101900D01*
X-67355Y-101900D01*
X-67355Y-101900D01*
X-67273Y-102098D01*
X-67165Y-102359D01*
X-67165Y-102359D01*
X-67165Y-102359D01*
X-66795Y-102728D01*
X-66987Y-103190D01*
X-75456D01*
Y-101427D01*
X-75485Y-101356D01*
X-75473Y-101280D01*
X-75577Y-101134D01*
X-75646Y-100967D01*
X-75790Y-100476D01*
X-67696Y-92383D01*
X-67413Y-92370D01*
X-67160Y-92614D01*
D02*
G37*
G36*
X-38918Y-94906D02*
Y-103190D01*
X-43224D01*
X-43415Y-102728D01*
X-42946Y-102259D01*
X-42756Y-101800D01*
Y-99339D01*
X-42805Y-99220D01*
Y-99091D01*
X-42897Y-99000D01*
X-42946Y-98880D01*
X-43088Y-98369D01*
X-39418Y-94698D01*
X-38918Y-94906D01*
D02*
G37*
G36*
X-26305Y-103190D02*
X-38268D01*
Y-85401D01*
X-34482Y-81615D01*
X-31482D01*
X-31204Y-81500D01*
X-26305D01*
Y-103190D01*
D02*
G37*
G36*
X-44722Y-82800D02*
Y-87431D01*
X-46270Y-88978D01*
X-47785D01*
X-47847Y-88887D01*
X-48403Y-88515D01*
X-49060Y-88384D01*
X-51816D01*
X-52472Y-88515D01*
X-53029Y-88887D01*
X-53401Y-89443D01*
X-53531Y-90100D01*
X-53401Y-90757D01*
X-53029Y-91313D01*
X-52472Y-91685D01*
X-51816Y-91816D01*
X-49060D01*
X-48403Y-91685D01*
X-47847Y-91313D01*
X-47785Y-91222D01*
X-45806D01*
X-45805Y-91222D01*
X-45376Y-91136D01*
X-45013Y-90893D01*
X-43867Y-89748D01*
X-43406Y-89939D01*
Y-91800D01*
X-44006Y-92400D01*
X-66206Y-92400D01*
X-66706Y-91900D01*
X-66705Y-83681D01*
X-65824Y-82800D01*
X-44722Y-82800D01*
D02*
G37*
G36*
X-76722Y-83557D02*
Y-86235D01*
X-78902Y-88416D01*
X-79060Y-88384D01*
X-81816D01*
X-82472Y-88515D01*
X-83029Y-88887D01*
X-83401Y-89443D01*
X-83531Y-90100D01*
X-83401Y-90757D01*
X-83029Y-91313D01*
X-82472Y-91685D01*
X-81816Y-91816D01*
X-79060D01*
X-78403Y-91685D01*
X-77847Y-91313D01*
X-77475Y-90757D01*
X-77344Y-90100D01*
X-77356Y-90042D01*
X-76567Y-89254D01*
X-76105Y-89445D01*
Y-97619D01*
X-77339Y-98853D01*
X-77847Y-98887D01*
X-78403Y-98515D01*
X-79060Y-98384D01*
X-81816D01*
X-82472Y-98515D01*
X-83029Y-98887D01*
X-83401Y-99444D01*
X-83531Y-100100D01*
X-83401Y-100757D01*
X-83029Y-101313D01*
X-82472Y-101685D01*
X-81816Y-101816D01*
X-79060D01*
X-78403Y-101685D01*
X-77847Y-101313D01*
X-77785Y-101222D01*
X-77000D01*
X-77000Y-101222D01*
X-76605Y-101143D01*
X-76556Y-101145D01*
X-76105Y-101427D01*
Y-103190D01*
X-90505D01*
Y-85105D01*
X-88565Y-83164D01*
X-84235D01*
X-83776Y-82974D01*
X-83585Y-82515D01*
Y-81615D01*
X-78664D01*
X-76722Y-83557D01*
D02*
G37*
G36*
X-49359Y-71221D02*
X-49028Y-71442D01*
X-48875Y-71473D01*
X-44862Y-75485D01*
X-45069Y-75985D01*
X-48669D01*
X-49128Y-76175D01*
X-49318Y-76635D01*
Y-80965D01*
X-49128Y-81425D01*
X-48669Y-81615D01*
X-46105D01*
X-46081Y-81651D01*
X-46348Y-82151D01*
X-62258Y-82151D01*
X-62298Y-81999D01*
X-61931Y-81627D01*
X-61883Y-81615D01*
X-57981D01*
X-57522Y-81425D01*
X-57332Y-80965D01*
Y-76635D01*
X-57522Y-76175D01*
X-57981Y-75985D01*
X-60343D01*
X-60547Y-75679D01*
X-63447Y-72779D01*
X-63778Y-72558D01*
X-64168Y-72480D01*
X-66742D01*
X-66946Y-71980D01*
X-66667Y-71563D01*
X-66535Y-70900D01*
X-66667Y-70237D01*
X-67043Y-69674D01*
X-67280Y-69516D01*
Y-61264D01*
X-66135D01*
X-65675Y-61074D01*
X-65485Y-60615D01*
Y-56678D01*
X-65583Y-56442D01*
X-65299Y-55942D01*
X-64639D01*
X-49359Y-71221D01*
D02*
G37*
G36*
X-72788Y-68549D02*
Y-72350D01*
X-72710Y-72740D01*
X-72489Y-73071D01*
X-69939Y-75621D01*
X-69608Y-75842D01*
X-69427Y-75878D01*
X-69180Y-76331D01*
X-69172Y-76420D01*
X-69261Y-76635D01*
Y-80965D01*
X-69227Y-81047D01*
Y-90741D01*
X-74994Y-96508D01*
X-75456Y-96317D01*
Y-89445D01*
X-75506Y-89326D01*
Y-89196D01*
X-75597Y-89105D01*
X-75646Y-88986D01*
X-75788Y-88474D01*
X-74807Y-87493D01*
X-74807Y-87493D01*
X-74564Y-87129D01*
X-74478Y-86700D01*
Y-83093D01*
X-74478Y-83093D01*
X-74564Y-82664D01*
X-74807Y-82300D01*
X-74992Y-82115D01*
X-74785Y-81615D01*
X-71232D01*
X-70772Y-81425D01*
X-70582Y-80965D01*
Y-76635D01*
X-70772Y-76175D01*
X-71232Y-75985D01*
X-73749D01*
Y-70303D01*
X-73826Y-69912D01*
X-74047Y-69582D01*
X-76527Y-67102D01*
X-75381Y-65956D01*
X-72788Y-68549D01*
D02*
G37*
G36*
X-38140Y-82100D02*
X-40699Y-84659D01*
X-40942Y-85023D01*
X-41027Y-85452D01*
X-41027Y-85452D01*
Y-93135D01*
X-42294Y-94402D01*
X-42756Y-94211D01*
Y-93800D01*
X-42862Y-93545D01*
X-42946Y-93341D01*
X-43487Y-92800D01*
X-42946Y-92259D01*
X-42756Y-91800D01*
Y-89939D01*
X-42805Y-89820D01*
Y-89691D01*
X-42897Y-89600D01*
X-42946Y-89480D01*
X-43088Y-88969D01*
X-42807Y-88688D01*
X-42564Y-88324D01*
X-42479Y-87895D01*
X-42479Y-87895D01*
Y-82096D01*
X-42479Y-82096D01*
X-42499Y-81995D01*
X-42138Y-81641D01*
X-42065Y-81615D01*
X-38361D01*
X-38140Y-82100D01*
D02*
G37*
G36*
X-133020Y-85115D02*
Y-92878D01*
X-137547Y-97404D01*
X-138208Y-96897D01*
X-139073Y-96539D01*
X-140000Y-96417D01*
X-140927Y-96539D01*
X-141792Y-96897D01*
X-142534Y-97466D01*
X-142691Y-97670D01*
X-143191Y-97500D01*
Y-92500D01*
X-142691Y-92330D01*
X-142534Y-92534D01*
X-141792Y-93103D01*
X-140927Y-93461D01*
X-140000Y-93583D01*
X-139073Y-93461D01*
X-138208Y-93103D01*
X-137466Y-92534D01*
X-136897Y-91792D01*
X-136539Y-90927D01*
X-136417Y-90000D01*
X-136539Y-89073D01*
X-136858Y-88300D01*
X-133482Y-84923D01*
X-133020Y-85115D01*
D02*
G37*
G36*
X-47905Y2400D02*
X-46905Y1400D01*
Y-3543D01*
X-47405Y-3900D01*
X-47506Y-3880D01*
X-51217D01*
X-51347Y-3687D01*
X-51903Y-3315D01*
X-52560Y-3184D01*
X-55316D01*
X-55972Y-3315D01*
X-56529Y-3687D01*
X-56901Y-4243D01*
X-57031Y-4900D01*
X-56901Y-5557D01*
X-56529Y-6113D01*
X-55972Y-6485D01*
X-55316Y-6616D01*
X-52560D01*
X-51903Y-6485D01*
X-51347Y-6113D01*
X-51217Y-5920D01*
X-47928D01*
X-47076Y-6771D01*
X-47506Y-7200D01*
X-69705Y-7200D01*
X-70205Y-6700D01*
X-70205Y1519D01*
X-69324Y2400D01*
X-47905Y2400D01*
D02*
G37*
G36*
X-94455Y-9189D02*
X-94919Y-9375D01*
X-95378Y-9185D01*
X-99315D01*
X-99774Y-9375D01*
X-100226Y-9375D01*
X-100685Y-9185D01*
X-104622D01*
X-105081Y-9375D01*
X-105271Y-9835D01*
Y-13176D01*
X-105858Y-13763D01*
X-106358Y-13556D01*
Y-12750D01*
X-108597D01*
Y-15185D01*
X-107378D01*
X-107340Y-15177D01*
X-106840Y-15564D01*
Y-28282D01*
X-106762Y-28673D01*
X-106621Y-28883D01*
X-106591Y-29125D01*
X-106746Y-29506D01*
X-107118Y-29754D01*
X-107313Y-29793D01*
X-107366Y-29757D01*
X-107868Y-29657D01*
X-108371Y-29757D01*
X-108798Y-30042D01*
X-109083Y-30469D01*
X-109183Y-30972D01*
Y-31559D01*
X-109674Y-31574D01*
X-110237Y-31199D01*
X-110900Y-31067D01*
X-111563Y-31199D01*
X-112126Y-31574D01*
X-112501Y-32137D01*
X-112633Y-32800D01*
X-112501Y-33463D01*
X-112126Y-34026D01*
X-111563Y-34401D01*
X-110900Y-34533D01*
X-110237Y-34401D01*
X-109674Y-34026D01*
X-109183Y-34190D01*
Y-34318D01*
X-109083Y-34821D01*
X-108798Y-35247D01*
X-108371Y-35532D01*
X-107868Y-35632D01*
X-107366Y-35532D01*
X-107313Y-35497D01*
X-107118Y-35536D01*
X-106650Y-35848D01*
Y-34800D01*
X-106554Y-34318D01*
Y-32645D01*
X-105246D01*
Y-34318D01*
X-105150Y-34800D01*
Y-35848D01*
X-104682Y-35536D01*
X-104487Y-35497D01*
X-104434Y-35532D01*
X-103931Y-35632D01*
X-103428Y-35532D01*
X-103002Y-35247D01*
X-102892D01*
X-102466Y-35532D01*
X-101963Y-35632D01*
X-101460Y-35532D01*
X-101034Y-35247D01*
X-100924D01*
X-100497Y-35532D01*
X-99994Y-35632D01*
X-99492Y-35532D01*
X-99065Y-35247D01*
X-98955D01*
X-98529Y-35532D01*
X-98026Y-35632D01*
X-97523Y-35532D01*
X-97470Y-35497D01*
X-97275Y-35536D01*
X-96807Y-35848D01*
Y-34800D01*
X-96711Y-34318D01*
Y-32645D01*
X-95403D01*
Y-34318D01*
X-95307Y-34800D01*
Y-35848D01*
X-94840Y-35536D01*
X-94645Y-35497D01*
X-94592Y-35532D01*
X-94089Y-35632D01*
X-93586Y-35532D01*
X-93160Y-35247D01*
X-93050D01*
X-92623Y-35532D01*
X-92120Y-35632D01*
X-91617Y-35532D01*
X-91191Y-35247D01*
X-91081D01*
X-90655Y-35532D01*
X-90152Y-35632D01*
X-89649Y-35532D01*
X-89615Y-35510D01*
X-89549Y-35496D01*
X-88953Y-35669D01*
X-88904Y-35742D01*
X-87918Y-36728D01*
X-87587Y-36949D01*
X-87197Y-37027D01*
X-84101D01*
X-83872Y-37340D01*
X-83801Y-37527D01*
X-83887Y-37960D01*
X-83847Y-38161D01*
X-84083Y-38363D01*
X-84292Y-38489D01*
X-84905Y-38367D01*
X-85524Y-38490D01*
X-85605Y-38488D01*
X-85832Y-38423D01*
X-86121Y-38266D01*
X-86281Y-38026D01*
X-86612Y-37805D01*
X-87002Y-37728D01*
X-96292D01*
Y-48037D01*
X-85983D01*
Y-41980D01*
X-85483Y-41719D01*
X-84905Y-41833D01*
X-84363Y-41725D01*
X-84116Y-41814D01*
X-83858Y-42046D01*
X-83787Y-42400D01*
X-83502Y-42826D01*
Y-42936D01*
X-83787Y-43362D01*
X-83887Y-43865D01*
X-83787Y-44368D01*
X-83502Y-44795D01*
Y-44905D01*
X-83787Y-45331D01*
X-83887Y-45834D01*
X-83787Y-46337D01*
X-83502Y-46763D01*
Y-46873D01*
X-83787Y-47299D01*
X-83887Y-47802D01*
X-83787Y-48305D01*
X-83502Y-48732D01*
Y-48842D01*
X-83787Y-49268D01*
X-83887Y-49771D01*
X-83787Y-50274D01*
X-83729Y-50360D01*
X-83530Y-50755D01*
X-83729Y-51150D01*
X-83787Y-51236D01*
X-83887Y-51739D01*
X-83787Y-52242D01*
X-83502Y-52669D01*
Y-52779D01*
X-83787Y-53205D01*
X-83887Y-53708D01*
X-83787Y-54211D01*
X-83729Y-54297D01*
X-83530Y-54692D01*
X-83729Y-55087D01*
X-83787Y-55173D01*
X-83887Y-55676D01*
X-83787Y-56179D01*
X-83537Y-56554D01*
X-83672Y-56902D01*
X-83751Y-57041D01*
X-83994Y-57203D01*
X-84983Y-58193D01*
X-85204Y-58524D01*
X-85282Y-58914D01*
Y-60809D01*
X-85204Y-61199D01*
X-84983Y-61530D01*
X-84167Y-62346D01*
X-84289Y-62894D01*
X-84519Y-62995D01*
X-84999Y-62761D01*
X-85001Y-62752D01*
X-85286Y-62326D01*
X-85712Y-62041D01*
X-86215Y-61941D01*
X-86718Y-62041D01*
X-87144Y-62326D01*
X-87254D01*
X-87680Y-62041D01*
X-88183Y-61941D01*
X-88686Y-62041D01*
X-89113Y-62326D01*
X-89223D01*
X-89649Y-62041D01*
X-90152Y-61941D01*
X-90655Y-62041D01*
X-91081Y-62326D01*
X-91191D01*
X-91617Y-62041D01*
X-92120Y-61941D01*
X-92623Y-62041D01*
X-93050Y-62326D01*
X-93160D01*
X-93586Y-62041D01*
X-94089Y-61941D01*
X-94592Y-62041D01*
X-95018Y-62326D01*
X-95128D01*
X-95555Y-62041D01*
X-96057Y-61941D01*
X-96560Y-62041D01*
X-96613Y-62076D01*
X-96808Y-62037D01*
X-97276Y-61725D01*
Y-62773D01*
X-97372Y-63255D01*
Y-64928D01*
X-98680D01*
Y-63255D01*
X-98776Y-62773D01*
Y-61725D01*
X-99244Y-62037D01*
X-99439Y-62076D01*
X-99492Y-62041D01*
X-99842Y-61971D01*
X-100078Y-61576D01*
X-100104Y-61463D01*
X-99972Y-60800D01*
X-100063Y-60346D01*
X-99743Y-59846D01*
X-97792D01*
Y-49537D01*
X-108101D01*
Y-58826D01*
X-108023Y-59216D01*
X-107802Y-59547D01*
X-107471Y-59768D01*
X-107081Y-59846D01*
X-105100D01*
X-104893Y-60346D01*
X-106567Y-62019D01*
X-106635Y-62075D01*
X-107203Y-62150D01*
X-107366Y-62041D01*
X-107868Y-61941D01*
X-108371Y-62041D01*
X-108798Y-62326D01*
X-109083Y-62752D01*
X-109168Y-63179D01*
X-109614Y-63433D01*
X-109618Y-63435D01*
X-109675Y-63379D01*
X-110005Y-63158D01*
X-110396Y-63080D01*
X-110542D01*
X-110680Y-62874D01*
X-111242Y-62499D01*
X-111906Y-62367D01*
X-112486Y-62482D01*
X-112986Y-62228D01*
Y-60927D01*
X-111510D01*
X-111007Y-60827D01*
X-110581Y-60543D01*
X-110296Y-60116D01*
X-110196Y-59613D01*
X-110296Y-59110D01*
X-110581Y-58684D01*
Y-58574D01*
X-110296Y-58148D01*
X-110196Y-57645D01*
X-110296Y-57142D01*
X-110430Y-56942D01*
X-110373Y-56431D01*
X-110291Y-56319D01*
X-109100Y-55128D01*
X-108879Y-54798D01*
X-108802Y-54407D01*
Y-53008D01*
X-108879Y-52618D01*
X-109100Y-52287D01*
X-110002Y-51385D01*
X-110090Y-51265D01*
X-110095Y-50693D01*
X-109980Y-50521D01*
X-111028D01*
X-111510Y-50425D01*
X-113183D01*
X-114857D01*
X-115339Y-50521D01*
X-116387D01*
X-116074Y-50989D01*
X-116035Y-51184D01*
X-116071Y-51236D01*
X-116171Y-51739D01*
X-116162Y-51785D01*
X-116612Y-52086D01*
X-116742Y-51999D01*
X-117405Y-51867D01*
X-118069Y-51999D01*
X-118631Y-52374D01*
X-118973Y-52885D01*
X-119140Y-52977D01*
X-119484Y-53081D01*
X-119814Y-52751D01*
X-120273Y-52561D01*
X-120284Y-52566D01*
X-120854Y-52261D01*
X-120899Y-52037D01*
X-121274Y-51474D01*
X-121837Y-51099D01*
X-122500Y-50967D01*
X-123163Y-51099D01*
X-123726Y-51474D01*
X-124101Y-52037D01*
X-124233Y-52700D01*
X-124131Y-53212D01*
Y-53767D01*
X-124007Y-54392D01*
X-123653Y-54921D01*
X-123278Y-55297D01*
X-123516Y-55535D01*
X-123706Y-55994D01*
X-123516Y-56454D01*
X-120454Y-59516D01*
X-119994Y-59706D01*
X-119535Y-59516D01*
X-118025Y-58006D01*
X-117564Y-58252D01*
X-117565Y-58255D01*
Y-65197D01*
X-117771Y-65334D01*
X-118147Y-65897D01*
X-118279Y-66560D01*
X-118155Y-67180D01*
X-118170Y-67304D01*
X-118372Y-67680D01*
X-119053D01*
X-119334Y-67259D01*
X-119897Y-66884D01*
X-120560Y-66752D01*
X-121223Y-66884D01*
X-121786Y-67259D01*
X-122161Y-67822D01*
X-122293Y-68485D01*
X-122184Y-69036D01*
X-122458Y-69536D01*
X-122994D01*
X-123058Y-69215D01*
X-123279Y-68885D01*
X-124321Y-67843D01*
X-124272Y-67600D01*
X-124404Y-66937D01*
X-124780Y-66374D01*
X-125342Y-65999D01*
X-126005Y-65867D01*
X-126669Y-65999D01*
X-127231Y-66374D01*
X-127607Y-66937D01*
X-127739Y-67600D01*
X-127607Y-68263D01*
X-127231Y-68826D01*
X-126669Y-69201D01*
X-126666Y-69202D01*
X-126615Y-69722D01*
X-126625Y-69726D01*
X-126815Y-70185D01*
Y-74122D01*
X-126625Y-74581D01*
X-126165Y-74771D01*
X-121835D01*
X-121375Y-74581D01*
X-121185Y-74122D01*
Y-73173D01*
X-120648D01*
Y-74122D01*
X-120458Y-74581D01*
X-119999Y-74771D01*
X-115668D01*
X-115209Y-74581D01*
X-115019Y-74122D01*
Y-70563D01*
X-114750Y-70407D01*
X-114481Y-70563D01*
Y-74122D01*
X-114291Y-74581D01*
X-113832Y-74771D01*
X-109501D01*
X-109042Y-74581D01*
X-108852Y-74122D01*
Y-73377D01*
X-108315D01*
Y-74122D01*
X-108125Y-74581D01*
X-107665Y-74771D01*
X-103335D01*
X-102875Y-74581D01*
X-102685Y-74122D01*
Y-72351D01*
X-102648Y-72326D01*
X-102148Y-72593D01*
Y-74622D01*
X-101958Y-75081D01*
X-101499Y-75271D01*
X-97854D01*
X-97662Y-75733D01*
X-98657Y-76728D01*
X-101499D01*
X-101822Y-76862D01*
X-101861Y-76863D01*
X-102357Y-76665D01*
X-102393Y-76488D01*
X-102614Y-76157D01*
X-102945Y-75936D01*
X-103335Y-75858D01*
X-104750D01*
Y-78846D01*
Y-81835D01*
X-103335D01*
X-102945Y-81757D01*
X-102614Y-81536D01*
X-102604Y-81521D01*
X-102040Y-81577D01*
X-101958Y-81774D01*
X-101601Y-81922D01*
X-101407Y-82225D01*
X-101323Y-82464D01*
X-101439Y-83046D01*
X-101307Y-83709D01*
X-100931Y-84271D01*
X-100910Y-84285D01*
X-101062Y-84785D01*
X-102122D01*
X-102581Y-84975D01*
X-102771Y-85435D01*
Y-89765D01*
X-102581Y-90225D01*
X-102122Y-90415D01*
X-98185D01*
X-97726Y-90225D01*
X-97536Y-89765D01*
Y-85435D01*
X-97605Y-85268D01*
X-97313Y-84865D01*
X-96845Y-84874D01*
X-96434Y-85285D01*
Y-85363D01*
X-96464Y-85435D01*
Y-89765D01*
X-96274Y-90225D01*
X-95815Y-90415D01*
X-91878D01*
X-91655Y-90322D01*
X-91155Y-90614D01*
Y-103190D01*
X-137501D01*
X-137670Y-102690D01*
X-137466Y-102534D01*
X-136897Y-101792D01*
X-136539Y-100927D01*
X-136417Y-100000D01*
X-136514Y-99256D01*
X-131279Y-94021D01*
X-131058Y-93690D01*
X-130980Y-93300D01*
Y-57022D01*
X-122649Y-48690D01*
X-116697D01*
X-116542Y-49021D01*
X-115339D01*
X-114857Y-49117D01*
X-113183D01*
X-111510D01*
X-111028Y-49021D01*
X-109980D01*
X-110292Y-48553D01*
X-110331Y-48358D01*
X-110296Y-48305D01*
X-110196Y-47802D01*
X-110296Y-47299D01*
X-110581Y-46873D01*
Y-46763D01*
X-110296Y-46337D01*
X-110196Y-45834D01*
X-110296Y-45331D01*
X-110354Y-45244D01*
X-110553Y-44850D01*
X-110354Y-44455D01*
X-110296Y-44368D01*
X-110196Y-43865D01*
X-110296Y-43362D01*
X-110581Y-42936D01*
Y-42826D01*
X-110296Y-42400D01*
X-110196Y-41897D01*
X-110296Y-41394D01*
X-110354Y-41307D01*
X-110553Y-40913D01*
X-110354Y-40518D01*
X-110296Y-40431D01*
X-110196Y-39928D01*
X-110296Y-39425D01*
X-110581Y-38999D01*
Y-38889D01*
X-110296Y-38463D01*
X-110196Y-37960D01*
X-110296Y-37457D01*
X-110581Y-37031D01*
X-111007Y-36746D01*
X-111510Y-36646D01*
X-114857D01*
X-115359Y-36746D01*
X-115651Y-36940D01*
X-121618D01*
X-136858Y-21700D01*
X-136539Y-20927D01*
X-136417Y-20000D01*
X-136539Y-19073D01*
X-136897Y-18208D01*
X-137466Y-17466D01*
X-138208Y-16897D01*
X-139073Y-16539D01*
X-140000Y-16417D01*
X-140927Y-16539D01*
X-141792Y-16897D01*
X-142534Y-17466D01*
X-142691Y-17670D01*
X-143191Y-17501D01*
Y-13100D01*
X-142691Y-12918D01*
X-141993Y-13453D01*
X-141032Y-13851D01*
X-140750Y-13888D01*
Y-10000D01*
Y-6112D01*
X-141032Y-6149D01*
X-141993Y-6547D01*
X-142691Y-7082D01*
X-143191Y-6900D01*
Y-2499D01*
X-142691Y-2330D01*
X-142534Y-2534D01*
X-141792Y-3103D01*
X-140927Y-3461D01*
X-140000Y-3583D01*
X-139073Y-3461D01*
X-138208Y-3103D01*
X-137466Y-2534D01*
X-136897Y-1792D01*
X-136539Y-927D01*
X-136417Y0D01*
X-136539Y927D01*
X-136897Y1792D01*
X-137466Y2534D01*
X-137670Y2690D01*
X-137501Y3190D01*
X-94455D01*
Y-9189D01*
D02*
G37*
G36*
X-72525Y-14864D02*
Y-18779D01*
X-72631Y-19035D01*
Y-23365D01*
X-72441Y-23825D01*
X-71982Y-24015D01*
X-68133D01*
X-68064Y-24054D01*
X-67887Y-24234D01*
X-67745Y-24432D01*
X-67788Y-24648D01*
Y-25037D01*
X-67994Y-25174D01*
X-68370Y-25737D01*
X-68502Y-26400D01*
X-68386Y-26980D01*
X-68641Y-27480D01*
X-71327D01*
X-71717Y-27558D01*
X-72048Y-27779D01*
X-73166Y-28897D01*
X-73665Y-28690D01*
Y-27750D01*
X-75903D01*
Y-30185D01*
X-75161D01*
X-74954Y-30685D01*
X-77649Y-33380D01*
X-84037D01*
X-84901Y-32517D01*
Y-30972D01*
X-85001Y-30469D01*
X-84753Y-29940D01*
X-84595Y-29835D01*
X-84575Y-29815D01*
X-81378D01*
X-80919Y-29625D01*
X-80729Y-29165D01*
Y-24835D01*
X-80919Y-24375D01*
Y-24125D01*
X-80729Y-23665D01*
Y-19335D01*
X-80919Y-18875D01*
X-81378Y-18685D01*
X-82225D01*
Y-16549D01*
X-81903Y-16485D01*
X-81347Y-16113D01*
X-80975Y-15556D01*
X-80844Y-14900D01*
X-80975Y-14243D01*
X-81347Y-13687D01*
X-81903Y-13315D01*
X-82560Y-13184D01*
X-85189D01*
X-85451Y-12923D01*
X-85554Y-12722D01*
X-85492Y-12549D01*
X-82242D01*
X-82180Y-12524D01*
X-82115Y-12537D01*
X-81598Y-12434D01*
X-81542Y-12397D01*
X-81476D01*
X-80989Y-12195D01*
X-80941Y-12148D01*
X-80876Y-12135D01*
X-80438Y-11842D01*
X-80401Y-11787D01*
X-80339Y-11761D01*
X-79966Y-11389D01*
X-79941Y-11327D01*
X-79886Y-11290D01*
X-79593Y-10852D01*
X-79580Y-10786D01*
X-79532Y-10739D01*
X-79331Y-10252D01*
Y-10185D01*
X-79294Y-10130D01*
X-79191Y-9613D01*
X-79204Y-9548D01*
X-79178Y-9486D01*
X-79178Y-9222D01*
X-79178Y-9222D01*
Y-8864D01*
X-78716Y-8673D01*
X-72525Y-14864D01*
D02*
G37*
G36*
X-79828Y2837D02*
X-79828Y-3995D01*
X-80328Y-4245D01*
X-80457Y-4158D01*
X-80847Y-4080D01*
X-81084D01*
X-81347Y-3687D01*
X-81903Y-3315D01*
X-82560Y-3184D01*
X-85316D01*
X-85972Y-3315D01*
X-86529Y-3687D01*
X-86901Y-4243D01*
X-87031Y-4900D01*
X-86901Y-5557D01*
X-86529Y-6113D01*
X-85972Y-6485D01*
X-85316Y-6616D01*
X-82560D01*
X-81903Y-6485D01*
X-81356Y-6120D01*
X-81270D01*
X-79828Y-7562D01*
X-79828Y-9222D01*
X-79828Y-9222D01*
X-79828Y-9486D01*
X-79931Y-10003D01*
X-80133Y-10491D01*
X-80426Y-10929D01*
X-80799Y-11302D01*
X-81237Y-11595D01*
X-81724Y-11797D01*
X-82242Y-11900D01*
X-86506D01*
Y-13671D01*
X-86529Y-13687D01*
X-86901Y-14243D01*
X-87031Y-14900D01*
X-93805D01*
Y3190D01*
X-80181D01*
X-79828Y2837D01*
D02*
G37*
G36*
X-2330Y2690D02*
X-2534Y2534D01*
X-3103Y1792D01*
X-3461Y927D01*
X-3583Y0D01*
X-3461Y-927D01*
X-3103Y-1792D01*
X-2534Y-2534D01*
X-1792Y-3103D01*
X-927Y-3461D01*
X0Y-3583D01*
X927Y-3461D01*
X1792Y-3103D01*
X2534Y-2534D01*
X2691Y-2330D01*
X3190Y-2499D01*
Y-6900D01*
X2691Y-7082D01*
X1993Y-6547D01*
X1032Y-6149D01*
X750Y-6112D01*
Y-10000D01*
Y-13888D01*
X1032Y-13851D01*
X1993Y-13453D01*
X2691Y-12918D01*
X3190Y-13100D01*
Y-17221D01*
X2717Y-17381D01*
X2674Y-17326D01*
X1891Y-16725D01*
X979Y-16347D01*
X0Y-16218D01*
X-979Y-16347D01*
X-1891Y-16725D01*
X-2674Y-17326D01*
X-3275Y-18109D01*
X-3653Y-19021D01*
X-3782Y-20000D01*
X-3653Y-20979D01*
X-3275Y-21891D01*
X-2674Y-22674D01*
X-1891Y-23275D01*
X-979Y-23653D01*
X0Y-23782D01*
X979Y-23653D01*
X1891Y-23275D01*
X2674Y-22674D01*
X2717Y-22618D01*
X3190Y-22779D01*
X3190Y-27221D01*
X2717Y-27382D01*
X2674Y-27326D01*
X1891Y-26725D01*
X979Y-26347D01*
X0Y-26218D01*
X-979Y-26347D01*
X-1891Y-26725D01*
X-2674Y-27326D01*
X-3275Y-28109D01*
X-3653Y-29021D01*
X-3782Y-30000D01*
X-3653Y-30979D01*
X-3275Y-31891D01*
X-2674Y-32674D01*
X-1891Y-33275D01*
X-979Y-33653D01*
X0Y-33782D01*
X979Y-33653D01*
X1891Y-33275D01*
X2674Y-32674D01*
X2717Y-32618D01*
X3190Y-32779D01*
Y-37221D01*
X2717Y-37382D01*
X2674Y-37326D01*
X1891Y-36725D01*
X979Y-36347D01*
X0Y-36218D01*
X-979Y-36347D01*
X-1891Y-36725D01*
X-2674Y-37326D01*
X-3275Y-38109D01*
X-3653Y-39021D01*
X-3782Y-40000D01*
X-3653Y-40979D01*
X-3275Y-41891D01*
X-2674Y-42674D01*
X-1891Y-43275D01*
X-979Y-43653D01*
X0Y-43782D01*
X979Y-43653D01*
X1891Y-43275D01*
X2674Y-42674D01*
X2717Y-42619D01*
X3190Y-42779D01*
Y-47221D01*
X2717Y-47381D01*
X2674Y-47326D01*
X1891Y-46725D01*
X979Y-46347D01*
X0Y-46218D01*
X-979Y-46347D01*
X-1891Y-46725D01*
X-2674Y-47326D01*
X-3275Y-48109D01*
X-3653Y-49021D01*
X-3782Y-50000D01*
X-3653Y-50979D01*
X-3275Y-51891D01*
X-2674Y-52674D01*
X-1891Y-53275D01*
X-979Y-53653D01*
X0Y-53782D01*
X979Y-53653D01*
X1891Y-53275D01*
X2674Y-52674D01*
X2717Y-52619D01*
X3190Y-52779D01*
Y-56900D01*
X2690Y-57082D01*
X1993Y-56547D01*
X1032Y-56149D01*
X750Y-56112D01*
Y-60000D01*
Y-63888D01*
X1032Y-63851D01*
X1993Y-63453D01*
X2690Y-62918D01*
X3190Y-63100D01*
Y-67501D01*
X2690Y-67670D01*
X2534Y-67466D01*
X1792Y-66897D01*
X927Y-66539D01*
X0Y-66417D01*
X-927Y-66539D01*
X-1792Y-66897D01*
X-2534Y-67466D01*
X-3103Y-68208D01*
X-3423Y-68980D01*
X-11246D01*
X-20547Y-59679D01*
X-20878Y-59458D01*
X-21268Y-59380D01*
X-51905D01*
X-52043Y-59174D01*
X-52605Y-58799D01*
X-53268Y-58667D01*
X-53932Y-58799D01*
X-54494Y-59174D01*
X-54870Y-59737D01*
X-55002Y-60400D01*
X-54870Y-61063D01*
X-54494Y-61626D01*
X-53932Y-62001D01*
X-53533Y-62081D01*
X-53283Y-62607D01*
X-53370Y-62737D01*
X-53502Y-63400D01*
X-53480Y-63509D01*
X-53941Y-63756D01*
X-63495Y-54201D01*
X-63826Y-53980D01*
X-64216Y-53902D01*
X-65485D01*
Y-49985D01*
X-65675Y-49526D01*
X-65675Y-49074D01*
X-65485Y-48615D01*
Y-44678D01*
X-65457Y-44624D01*
X-65434Y-44620D01*
X-65104Y-44399D01*
X-44719Y-24015D01*
X-41378D01*
X-40919Y-23825D01*
X-40729Y-23365D01*
Y-19274D01*
X-40229Y-19067D01*
X-39272Y-20024D01*
Y-23365D01*
X-39081Y-23825D01*
X-38622Y-24015D01*
X-34685D01*
X-34226Y-23825D01*
X-34036Y-23365D01*
Y-19149D01*
X-32964D01*
Y-23365D01*
X-32774Y-23825D01*
X-32315Y-24015D01*
X-28378D01*
X-27919Y-23825D01*
X-27729Y-23365D01*
Y-19149D01*
X-26642D01*
Y-20450D01*
X-20665D01*
Y-19149D01*
X-19768D01*
X-19309Y-18959D01*
X-19119Y-18500D01*
Y3190D01*
X-2499D01*
X-2330Y2690D01*
D02*
G37*
G36*
X-69952D02*
X-70665Y1978D01*
X-70855Y1519D01*
X-70855Y-6700D01*
X-70855Y-6700D01*
X-70855Y-6700D01*
X-70764Y-6920D01*
X-70665Y-7159D01*
X-70665Y-7159D01*
X-70665Y-7159D01*
X-70483Y-7341D01*
X-70483Y-7841D01*
X-70665Y-8022D01*
X-70855Y-8482D01*
X-70855Y-12997D01*
X-71317Y-13189D01*
X-79549Y-4957D01*
X-79369Y-4454D01*
X-79311Y-4314D01*
X-79212Y-4200D01*
X-79219Y-4093D01*
X-79178Y-3995D01*
X-79178Y2837D01*
X-78878Y3190D01*
X-70159D01*
X-69952Y2690D01*
D02*
G37*
G36*
X-42418Y-13340D02*
X-42880Y-13532D01*
X-44586Y-11826D01*
Y-6800D01*
X-44664Y-6410D01*
X-44885Y-6079D01*
X-46478Y-4485D01*
X-46446Y-4002D01*
X-46370Y-3818D01*
X-46265Y-3649D01*
X-46277Y-3594D01*
X-46256Y-3543D01*
Y1400D01*
X-46446Y1859D01*
X-47278Y2690D01*
X-47070Y3190D01*
X-42418D01*
Y-13340D01*
D02*
G37*
G36*
X-47656Y-7849D02*
X-46905Y-8600D01*
Y-16600D01*
X-47905Y-17600D01*
X-49540D01*
X-51219Y-15922D01*
X-50975Y-15556D01*
X-50844Y-14900D01*
X-50975Y-14243D01*
X-51347Y-13687D01*
X-51903Y-13315D01*
X-52560Y-13184D01*
X-55316D01*
X-55972Y-13315D01*
X-56529Y-13687D01*
X-56901Y-14243D01*
X-57031Y-14900D01*
X-56901Y-15556D01*
X-56529Y-16113D01*
X-55972Y-16485D01*
X-55316Y-16616D01*
X-53409D01*
X-52886Y-17138D01*
X-53078Y-17600D01*
X-69305Y-17600D01*
X-70205Y-16700D01*
X-70205Y-8482D01*
X-69573Y-7849D01*
X-47656Y-7849D01*
D02*
G37*
%LPC*%
G36*
X-136112Y-60750D02*
X-139250D01*
Y-63888D01*
X-138968Y-63851D01*
X-138007Y-63453D01*
X-137181Y-62819D01*
X-136547Y-61993D01*
X-136149Y-61032D01*
X-136112Y-60750D01*
D02*
G37*
G36*
X-139250Y-56112D02*
Y-59250D01*
X-136112D01*
X-136149Y-58968D01*
X-136547Y-58007D01*
X-137181Y-57181D01*
X-138007Y-56547D01*
X-138968Y-56149D01*
X-139250Y-56112D01*
D02*
G37*
G36*
X-96450Y-18404D02*
X-98885D01*
Y-19622D01*
X-98807Y-20012D01*
X-98586Y-20343D01*
X-98255Y-20564D01*
X-97865Y-20642D01*
X-96450D01*
Y-18404D01*
D02*
G37*
G36*
X-86815Y-18403D02*
X-89250D01*
Y-20642D01*
X-87835D01*
X-87445Y-20564D01*
X-87114Y-20343D01*
X-86893Y-20012D01*
X-86815Y-19622D01*
Y-18403D01*
D02*
G37*
G36*
X-17212Y-79250D02*
X-19450D01*
Y-81685D01*
X-18232D01*
X-17841Y-81607D01*
X-17511Y-81386D01*
X-17289Y-81055D01*
X-17212Y-80665D01*
Y-79250D01*
D02*
G37*
G36*
X-20950D02*
X-23188D01*
Y-80665D01*
X-23110Y-81055D01*
X-22889Y-81386D01*
X-22559Y-81607D01*
X-22169Y-81685D01*
X-20950D01*
Y-79250D01*
D02*
G37*
G36*
X-18232Y-75315D02*
X-19450D01*
Y-77750D01*
X-17212D01*
Y-76335D01*
X-17289Y-75945D01*
X-17511Y-75614D01*
X-17841Y-75393D01*
X-18232Y-75315D01*
D02*
G37*
G36*
X-20950D02*
X-22169D01*
X-22559Y-75393D01*
X-22889Y-75614D01*
X-23110Y-75945D01*
X-23188Y-76335D01*
Y-77750D01*
X-20950D01*
Y-75315D01*
D02*
G37*
G36*
X-61468Y-62967D02*
X-62132Y-63099D01*
X-62694Y-63474D01*
X-63070Y-64037D01*
X-63202Y-64700D01*
X-63070Y-65363D01*
X-62694Y-65926D01*
X-62132Y-66301D01*
X-61468Y-66433D01*
X-61423Y-66424D01*
X-54413Y-73435D01*
Y-75985D01*
X-55361D01*
X-55821Y-76175D01*
X-56011Y-76635D01*
Y-80965D01*
X-55821Y-81425D01*
X-55361Y-81615D01*
X-51424D01*
X-50965Y-81425D01*
X-50775Y-80965D01*
Y-76635D01*
X-50965Y-76175D01*
X-51424Y-75985D01*
X-52373D01*
Y-73013D01*
X-52451Y-72622D01*
X-52672Y-72292D01*
X-59823Y-65141D01*
X-59735Y-64700D01*
X-59867Y-64037D01*
X-60243Y-63474D01*
X-60805Y-63099D01*
X-61468Y-62967D01*
D02*
G37*
G36*
X-118583Y-75858D02*
X-119999D01*
X-120389Y-75936D01*
X-120720Y-76157D01*
X-120857Y-76363D01*
X-121332Y-76414D01*
X-121432Y-76395D01*
X-121835Y-76228D01*
X-126165D01*
X-126625Y-76419D01*
X-126815Y-76878D01*
Y-80815D01*
X-126625Y-81274D01*
X-126165Y-81464D01*
X-125122D01*
Y-82300D01*
X-125122Y-82300D01*
X-125036Y-82729D01*
X-124793Y-83093D01*
X-124209Y-83677D01*
X-124233Y-83800D01*
X-124101Y-84463D01*
X-123726Y-85026D01*
X-123163Y-85401D01*
X-122500Y-85533D01*
X-121837Y-85401D01*
X-121274Y-85026D01*
X-120899Y-84463D01*
X-120767Y-83800D01*
X-120899Y-83137D01*
X-121274Y-82574D01*
X-121837Y-82199D01*
X-122290Y-82108D01*
X-122388Y-81944D01*
X-122129Y-81464D01*
X-121835D01*
X-121432Y-81298D01*
X-121332Y-81279D01*
X-120857Y-81330D01*
X-120720Y-81536D01*
X-120389Y-81757D01*
X-119999Y-81835D01*
X-118583D01*
Y-78846D01*
Y-75858D01*
D02*
G37*
G36*
X-124866Y-61927D02*
X-126449Y-63510D01*
X-125448Y-64510D01*
X-125117Y-64731D01*
X-124727Y-64809D01*
X-124337Y-64731D01*
X-124006Y-64510D01*
X-123144Y-63649D01*
X-124866Y-61927D01*
D02*
G37*
G36*
X-107378Y-8815D02*
X-108597D01*
Y-11250D01*
X-106358D01*
Y-9835D01*
X-106436Y-9444D01*
X-106657Y-9114D01*
X-106988Y-8893D01*
X-107378Y-8815D01*
D02*
G37*
G36*
X-106250Y-75858D02*
X-107665D01*
X-108055Y-75936D01*
X-108386Y-76157D01*
X-108524Y-76363D01*
X-108999Y-76414D01*
X-109099Y-76395D01*
X-109501Y-76228D01*
X-113832D01*
X-114235Y-76395D01*
X-114334Y-76414D01*
X-114809Y-76363D01*
X-114947Y-76157D01*
X-115278Y-75936D01*
X-115668Y-75858D01*
X-117083D01*
Y-78846D01*
Y-81835D01*
X-115668D01*
X-115278Y-81757D01*
X-114947Y-81536D01*
X-114809Y-81330D01*
X-114334Y-81279D01*
X-114235Y-81298D01*
X-113832Y-81464D01*
X-111022D01*
Y-82205D01*
X-111126Y-82274D01*
X-111501Y-82837D01*
X-111633Y-83500D01*
X-111501Y-84163D01*
X-111126Y-84726D01*
X-110563Y-85101D01*
X-109900Y-85233D01*
X-109835Y-85717D01*
Y-86850D01*
X-107597D01*
Y-84415D01*
X-107911D01*
X-108249Y-83915D01*
X-108167Y-83500D01*
X-108299Y-82837D01*
X-108674Y-82274D01*
X-108677Y-81843D01*
X-108222Y-81646D01*
X-108055Y-81757D01*
X-107665Y-81835D01*
X-106250D01*
Y-78846D01*
Y-75858D01*
D02*
G37*
G36*
X-113835Y-9036D02*
X-118165D01*
X-118625Y-9226D01*
X-118815Y-9685D01*
Y-10532D01*
X-120754D01*
X-120754Y-10532D01*
X-121183Y-10617D01*
X-121547Y-10860D01*
X-121547Y-10860D01*
X-122377Y-11691D01*
X-122500Y-11667D01*
X-123163Y-11799D01*
X-123726Y-12174D01*
X-124101Y-12737D01*
X-124233Y-13400D01*
X-124101Y-14063D01*
X-123726Y-14626D01*
X-123163Y-15001D01*
X-122500Y-15133D01*
X-121837Y-15001D01*
X-121274Y-14626D01*
X-120899Y-14063D01*
X-120767Y-13400D01*
X-120791Y-13277D01*
X-120289Y-12775D01*
X-118815D01*
Y-13622D01*
X-118625Y-14081D01*
X-118165Y-14272D01*
X-113835D01*
X-113375Y-14081D01*
X-113185Y-13622D01*
Y-9685D01*
X-113375Y-9226D01*
X-113835Y-9036D01*
D02*
G37*
G36*
X-100656Y-98350D02*
X-103091D01*
Y-101143D01*
X-103013Y-101533D01*
X-102792Y-101864D01*
X-102461Y-102085D01*
X-102071Y-102163D01*
X-100656D01*
Y-98350D01*
D02*
G37*
G36*
X-96721D02*
X-99156D01*
Y-102163D01*
X-97740D01*
X-97350Y-102085D01*
X-97019Y-101864D01*
X-96798Y-101533D01*
X-96721Y-101143D01*
Y-98350D01*
D02*
G37*
G36*
X-100656Y-93037D02*
X-102071D01*
X-102461Y-93115D01*
X-102792Y-93336D01*
X-103013Y-93666D01*
X-103091Y-94057D01*
Y-96850D01*
X-100656D01*
Y-93037D01*
D02*
G37*
G36*
X-104156Y1563D02*
X-105571D01*
X-105961Y1485D01*
X-106292Y1264D01*
X-106513Y934D01*
X-106590Y543D01*
Y-2250D01*
X-104156D01*
Y1563D01*
D02*
G37*
G36*
X-101240D02*
X-102655D01*
Y-2250D01*
X-100221D01*
Y543D01*
X-100298Y934D01*
X-100519Y1264D01*
X-100850Y1485D01*
X-101240Y1563D01*
D02*
G37*
G36*
X-104156Y-3750D02*
X-106590D01*
Y-6543D01*
X-106513Y-6933D01*
X-106292Y-7264D01*
X-105961Y-7485D01*
X-105571Y-7563D01*
X-104156D01*
Y-3750D01*
D02*
G37*
G36*
X-104878Y-84415D02*
X-106096D01*
Y-86850D01*
X-103858D01*
Y-85435D01*
X-103936Y-85044D01*
X-104157Y-84714D01*
X-104488Y-84493D01*
X-104878Y-84415D01*
D02*
G37*
G36*
X-139250Y-6112D02*
Y-9250D01*
X-136112D01*
X-136149Y-8968D01*
X-136547Y-8007D01*
X-137181Y-7181D01*
X-138007Y-6547D01*
X-138968Y-6149D01*
X-139250Y-6112D01*
D02*
G37*
G36*
X-103858Y-88350D02*
X-106096D01*
Y-90785D01*
X-104878D01*
X-104488Y-90707D01*
X-104157Y-90486D01*
X-103936Y-90156D01*
X-103858Y-89765D01*
Y-88350D01*
D02*
G37*
G36*
X-97740Y-93037D02*
X-99156D01*
Y-96850D01*
X-96721D01*
Y-94057D01*
X-96798Y-93666D01*
X-97019Y-93336D01*
X-97350Y-93115D01*
X-97740Y-93037D01*
D02*
G37*
G36*
X-100221Y-3750D02*
X-102655D01*
Y-7563D01*
X-101240D01*
X-100850Y-7485D01*
X-100519Y-7264D01*
X-100298Y-6933D01*
X-100221Y-6543D01*
Y-3750D01*
D02*
G37*
G36*
X-107597Y-88350D02*
X-109835D01*
Y-89765D01*
X-109757Y-90156D01*
X-109536Y-90486D01*
X-109205Y-90707D01*
X-108815Y-90785D01*
X-107597D01*
Y-88350D01*
D02*
G37*
G36*
X-116750Y-29358D02*
X-117575D01*
X-117965Y-29436D01*
X-118296Y-29657D01*
X-118517Y-29988D01*
X-118594Y-30378D01*
Y-31203D01*
X-116750D01*
Y-29358D01*
D02*
G37*
G36*
X-114425D02*
X-115250D01*
Y-31203D01*
X-113406D01*
Y-30378D01*
X-113483Y-29988D01*
X-113704Y-29657D01*
X-114035Y-29436D01*
X-114425Y-29358D01*
D02*
G37*
G36*
X-110097Y-12750D02*
X-112335D01*
Y-14165D01*
X-112257Y-14556D01*
X-112036Y-14886D01*
X-111705Y-15107D01*
X-111315Y-15185D01*
X-110097D01*
Y-12750D01*
D02*
G37*
G36*
X-136112Y-10750D02*
X-139250D01*
Y-13888D01*
X-138968Y-13851D01*
X-138007Y-13453D01*
X-137181Y-12819D01*
X-136547Y-11993D01*
X-136149Y-11032D01*
X-136112Y-10750D01*
D02*
G37*
G36*
X-116750Y-32703D02*
X-118594D01*
Y-33528D01*
X-118517Y-33918D01*
X-118296Y-34249D01*
X-117965Y-34470D01*
X-117575Y-34547D01*
X-116750D01*
Y-32703D01*
D02*
G37*
G36*
X-113406D02*
X-115250D01*
Y-34547D01*
X-114425D01*
X-114035Y-34470D01*
X-113704Y-34249D01*
X-113483Y-33918D01*
X-113406Y-33528D01*
Y-32703D01*
D02*
G37*
G36*
X-113835Y-15729D02*
X-118165D01*
X-118625Y-15919D01*
X-118815Y-16378D01*
Y-20315D01*
X-118625Y-20774D01*
X-118165Y-20964D01*
X-117224D01*
Y-23823D01*
X-117575D01*
X-118034Y-24013D01*
X-118224Y-24472D01*
Y-27622D01*
X-118034Y-28081D01*
X-117575Y-28271D01*
X-114425D01*
X-113966Y-28081D01*
X-113776Y-27622D01*
Y-24472D01*
X-113966Y-24013D01*
X-114425Y-23823D01*
X-114777D01*
Y-20964D01*
X-113835D01*
X-113375Y-20774D01*
X-113185Y-20315D01*
Y-16378D01*
X-113375Y-15919D01*
X-113835Y-15729D01*
D02*
G37*
G36*
X-85983Y-49537D02*
X-96292D01*
Y-59846D01*
X-87002D01*
X-86612Y-59768D01*
X-86281Y-59547D01*
X-86060Y-59216D01*
X-85983Y-58826D01*
Y-49537D01*
D02*
G37*
G36*
X-125005Y-56924D02*
X-125396Y-57001D01*
X-125726Y-57222D01*
X-126588Y-58084D01*
X-124866Y-59806D01*
X-123284Y-58223D01*
X-124285Y-57222D01*
X-124615Y-57001D01*
X-125005Y-56924D01*
D02*
G37*
G36*
X-110097Y-8815D02*
X-111315D01*
X-111705Y-8893D01*
X-112036Y-9114D01*
X-112257Y-9444D01*
X-112335Y-9835D01*
Y-11250D01*
X-110097D01*
Y-8815D01*
D02*
G37*
G36*
X-122223Y-59284D02*
X-123806Y-60866D01*
X-122084Y-62588D01*
X-121222Y-61726D01*
X-121001Y-61396D01*
X-120924Y-61006D01*
X-121001Y-60615D01*
X-121222Y-60285D01*
X-122223Y-59284D01*
D02*
G37*
G36*
X-127649Y-59145D02*
X-128510Y-60006D01*
X-128731Y-60337D01*
X-128809Y-60727D01*
X-128731Y-61117D01*
X-128510Y-61448D01*
X-127510Y-62449D01*
X-125927Y-60866D01*
X-127649Y-59145D01*
D02*
G37*
G36*
X-97792Y-37728D02*
X-107081D01*
X-107471Y-37805D01*
X-107802Y-38026D01*
X-108023Y-38357D01*
X-108101Y-38747D01*
Y-48037D01*
X-97792D01*
Y-37728D01*
D02*
G37*
G36*
X-77403Y-27750D02*
X-79642D01*
Y-29165D01*
X-79564Y-29555D01*
X-79343Y-29886D01*
X-79012Y-30107D01*
X-78622Y-30185D01*
X-77403D01*
Y-27750D01*
D02*
G37*
G36*
X-78405Y-14867D02*
X-79069Y-14999D01*
X-79631Y-15374D01*
X-80007Y-15937D01*
X-80139Y-16600D01*
X-80007Y-17263D01*
X-79631Y-17826D01*
X-79425Y-17963D01*
Y-19748D01*
X-79347Y-20138D01*
X-79272Y-20252D01*
Y-23665D01*
X-79141Y-23979D01*
X-79343Y-24114D01*
X-79564Y-24444D01*
X-79642Y-24835D01*
Y-26250D01*
X-76653D01*
X-73665D01*
Y-24835D01*
X-73743Y-24444D01*
X-73964Y-24114D01*
X-74165Y-23979D01*
X-74036Y-23665D01*
Y-19335D01*
X-74226Y-18875D01*
X-74685Y-18685D01*
X-77386D01*
Y-17963D01*
X-77180Y-17826D01*
X-76804Y-17263D01*
X-76672Y-16600D01*
X-76804Y-15937D01*
X-77180Y-15374D01*
X-77742Y-14999D01*
X-78405Y-14867D01*
D02*
G37*
G36*
X-750Y-6112D02*
X-1032Y-6149D01*
X-1993Y-6547D01*
X-2819Y-7181D01*
X-3453Y-8007D01*
X-3851Y-8968D01*
X-3888Y-9250D01*
X-750D01*
Y-6112D01*
D02*
G37*
G36*
X-11010Y-3550D02*
X-14195D01*
X-17379D01*
Y-6343D01*
X-17302Y-6734D01*
X-17081Y-7064D01*
Y-7536D01*
X-17302Y-7867D01*
X-17379Y-8257D01*
Y-11050D01*
X-14195D01*
X-11010D01*
Y-8257D01*
X-11087Y-7867D01*
X-11308Y-7536D01*
Y-7064D01*
X-11087Y-6734D01*
X-11010Y-6343D01*
Y-3550D01*
D02*
G37*
G36*
X-12029Y1763D02*
X-13445D01*
Y-2050D01*
X-11010D01*
Y743D01*
X-11087Y1134D01*
X-11308Y1464D01*
X-11639Y1685D01*
X-12029Y1763D01*
D02*
G37*
G36*
X-14945D02*
X-16360D01*
X-16750Y1685D01*
X-17081Y1464D01*
X-17302Y1134D01*
X-17379Y743D01*
Y-2050D01*
X-14945D01*
Y1763D01*
D02*
G37*
G36*
X-20665Y-21950D02*
X-22904D01*
Y-24385D01*
X-21685D01*
X-21295Y-24307D01*
X-20964Y-24086D01*
X-20743Y-23755D01*
X-20665Y-23365D01*
Y-21950D01*
D02*
G37*
G36*
X-24404D02*
X-26642D01*
Y-23365D01*
X-26564Y-23755D01*
X-26343Y-24086D01*
X-26012Y-24307D01*
X-25622Y-24385D01*
X-24404D01*
Y-21950D01*
D02*
G37*
G36*
X-11010Y-12550D02*
X-13445D01*
Y-16363D01*
X-12029D01*
X-11639Y-16285D01*
X-11308Y-16064D01*
X-11087Y-15733D01*
X-11010Y-15343D01*
Y-12550D01*
D02*
G37*
G36*
X-14945D02*
X-17379D01*
Y-15343D01*
X-17302Y-15733D01*
X-17081Y-16064D01*
X-16750Y-16285D01*
X-16360Y-16363D01*
X-14945D01*
Y-12550D01*
D02*
G37*
G36*
X-750Y-56112D02*
X-1032Y-56149D01*
X-1993Y-56547D01*
X-2819Y-57181D01*
X-3453Y-58007D01*
X-3851Y-58968D01*
X-3888Y-59250D01*
X-750D01*
Y-56112D01*
D02*
G37*
G36*
Y-60750D02*
X-3888D01*
X-3851Y-61032D01*
X-3453Y-61993D01*
X-2819Y-62819D01*
X-1993Y-63453D01*
X-1032Y-63851D01*
X-750Y-63888D01*
Y-60750D01*
D02*
G37*
G36*
Y-10750D02*
X-3888D01*
X-3851Y-11032D01*
X-3453Y-11993D01*
X-2819Y-12819D01*
X-1993Y-13453D01*
X-1032Y-13851D01*
X-750Y-13888D01*
Y-10750D01*
D02*
G37*
G36*
X-26018Y-34512D02*
X-26300Y-34549D01*
X-27262Y-34947D01*
X-28087Y-35581D01*
X-28721Y-36407D01*
X-29119Y-37368D01*
X-29157Y-37650D01*
X-26018D01*
Y-34512D01*
D02*
G37*
G36*
X-24518D02*
Y-37650D01*
X-21380D01*
X-21417Y-37368D01*
X-21816Y-36407D01*
X-22449Y-35581D01*
X-23275Y-34947D01*
X-24237Y-34549D01*
X-24518Y-34512D01*
D02*
G37*
G36*
X-35268Y-34817D02*
X-36196Y-34939D01*
X-37060Y-35297D01*
X-37802Y-35866D01*
X-38372Y-36608D01*
X-38730Y-37473D01*
X-38852Y-38400D01*
X-38730Y-39327D01*
X-38372Y-40192D01*
X-37802Y-40934D01*
X-37060Y-41503D01*
X-36196Y-41861D01*
X-35268Y-41983D01*
X-34341Y-41861D01*
X-33477Y-41503D01*
X-32735Y-40934D01*
X-32165Y-40192D01*
X-31807Y-39327D01*
X-31685Y-38400D01*
X-31807Y-37473D01*
X-32165Y-36608D01*
X-32735Y-35866D01*
X-33477Y-35297D01*
X-34341Y-34939D01*
X-35268Y-34817D01*
D02*
G37*
G36*
X-26018Y-39150D02*
X-29157D01*
X-29119Y-39432D01*
X-28721Y-40393D01*
X-28087Y-41219D01*
X-27262Y-41853D01*
X-26300Y-42251D01*
X-26018Y-42288D01*
Y-39150D01*
D02*
G37*
G36*
X-21380D02*
X-24518D01*
Y-42288D01*
X-24237Y-42251D01*
X-23275Y-41853D01*
X-22449Y-41219D01*
X-21816Y-40393D01*
X-21417Y-39432D01*
X-21380Y-39150D01*
D02*
G37*
%LPD*%
D10*
X-120134Y-56134D02*
D03*
X-124866Y-60866D02*
D03*
X-81872Y-68466D02*
D03*
X-77139Y-63734D02*
D03*
D11*
X-95700Y-24347D02*
D03*
Y-17653D02*
D03*
X-105500Y-72154D02*
D03*
Y-78847D02*
D03*
X-86400Y-80546D02*
D03*
Y-73853D02*
D03*
X-99333Y-72654D02*
D03*
Y-79347D02*
D03*
X-92567Y-73853D02*
D03*
Y-80546D02*
D03*
X-90000Y-24347D02*
D03*
Y-17653D02*
D03*
X-68300Y-51954D02*
D03*
Y-58647D02*
D03*
Y-46646D02*
D03*
Y-39954D02*
D03*
X-124000Y-78847D02*
D03*
Y-72154D02*
D03*
X-117833D02*
D03*
Y-78847D02*
D03*
X-111667D02*
D03*
Y-72154D02*
D03*
X-116000Y-11654D02*
D03*
Y-18347D02*
D03*
D12*
X-76653Y-27000D02*
D03*
X-83346D02*
D03*
X-69996Y-33000D02*
D03*
X-63303D02*
D03*
X-26893Y-78500D02*
D03*
X-20200D02*
D03*
X-30347Y-21200D02*
D03*
X-23653D02*
D03*
X-33450Y-78800D02*
D03*
X-40143D02*
D03*
X-66643D02*
D03*
X-59950D02*
D03*
X-49987Y-21200D02*
D03*
X-56680D02*
D03*
X-83346Y-21500D02*
D03*
X-76653D02*
D03*
X-87154Y-87600D02*
D03*
X-93846D02*
D03*
X-106846D02*
D03*
X-100154D02*
D03*
X-90654Y-12000D02*
D03*
X-97347D02*
D03*
X-109346D02*
D03*
X-102654D02*
D03*
X-53393Y-78800D02*
D03*
X-46700D02*
D03*
X-73200Y-78800D02*
D03*
X-79893D02*
D03*
X-43347Y-21200D02*
D03*
X-36654D02*
D03*
X-63320D02*
D03*
X-70013D02*
D03*
D13*
X-26006Y-11800D02*
D03*
X-14195D02*
D03*
X-26006Y-2800D02*
D03*
X-14195D02*
D03*
X-88095Y-97600D02*
D03*
X-99906D02*
D03*
X-91594Y-3000D02*
D03*
X-103405D02*
D03*
D14*
X-116000Y-26047D02*
D03*
Y-31953D02*
D03*
D15*
X-86215Y-32645D02*
D03*
X-88183D02*
D03*
X-90152D02*
D03*
X-92120D02*
D03*
X-94089D02*
D03*
X-96057D02*
D03*
X-98026D02*
D03*
X-99994D02*
D03*
X-101963D02*
D03*
X-103931D02*
D03*
X-105900D02*
D03*
X-107868D02*
D03*
Y-64928D02*
D03*
X-105900D02*
D03*
X-103931D02*
D03*
X-101963D02*
D03*
X-99994D02*
D03*
X-98026D02*
D03*
X-96057D02*
D03*
X-94089D02*
D03*
X-92120D02*
D03*
X-90152D02*
D03*
X-88183D02*
D03*
X-86215D02*
D03*
D16*
X-113183Y-37960D02*
D03*
Y-39928D02*
D03*
Y-41897D02*
D03*
Y-43865D02*
D03*
Y-45834D02*
D03*
Y-47802D02*
D03*
Y-49771D02*
D03*
Y-51739D02*
D03*
Y-53708D02*
D03*
Y-55676D02*
D03*
Y-57645D02*
D03*
Y-59613D02*
D03*
X-80900D02*
D03*
Y-57645D02*
D03*
Y-55676D02*
D03*
Y-53708D02*
D03*
Y-51739D02*
D03*
Y-49771D02*
D03*
Y-47802D02*
D03*
Y-45834D02*
D03*
Y-43865D02*
D03*
Y-41897D02*
D03*
Y-39928D02*
D03*
Y-37960D02*
D03*
D17*
X-97042Y-48787D02*
D03*
D18*
X-29768Y-100100D02*
D03*
Y-95100D02*
D03*
Y-90100D02*
D03*
Y-85100D02*
D03*
X-50438Y-100100D02*
D03*
Y-95100D02*
D03*
Y-90100D02*
D03*
Y-85100D02*
D03*
X-59768Y-100100D02*
D03*
Y-95100D02*
D03*
Y-90100D02*
D03*
Y-85100D02*
D03*
X-80438Y-100100D02*
D03*
Y-95100D02*
D03*
Y-90100D02*
D03*
Y-85100D02*
D03*
X-33268Y-14900D02*
D03*
Y-9900D02*
D03*
Y-4900D02*
D03*
Y100D02*
D03*
X-53938Y-14900D02*
D03*
Y-9900D02*
D03*
Y-4900D02*
D03*
Y100D02*
D03*
X-63268Y-14900D02*
D03*
Y-9900D02*
D03*
Y-4900D02*
D03*
Y100D02*
D03*
X-83938Y-14900D02*
D03*
Y-9900D02*
D03*
Y-4900D02*
D03*
Y100D02*
D03*
D19*
X-71015Y-46646D02*
X-68300D01*
X-72171Y-47802D02*
X-71015Y-46646D01*
X-80900Y-47802D02*
X-72171D01*
X-73035Y-45834D02*
X-70880Y-43678D01*
X-80900Y-45834D02*
X-73035D01*
X-73047Y-43865D02*
X-69135Y-39954D01*
X-80900Y-43865D02*
X-73047D01*
X-117405Y-53600D02*
X-117298Y-53708D01*
X-113183D01*
X-123071Y-47671D02*
X-113315D01*
X-132000Y-56600D02*
X-123071Y-47671D01*
X-113315D02*
X-113183Y-47802D01*
X-132000Y-93300D02*
Y-56600D01*
X-123214Y-45834D02*
X-113183D01*
X-133560Y-56180D02*
X-123214Y-45834D01*
X-84734Y-39928D02*
X-80900D01*
X-84905Y-40100D02*
X-84734Y-39928D01*
X-83938Y-4900D02*
X-83738Y-5100D01*
X-56680Y-21397D02*
Y-21200D01*
X-64165Y-33000D02*
X-63303D01*
X-88183Y-35021D02*
Y-32645D01*
X-95892Y-69592D02*
X-94089Y-67789D01*
X-95892Y-75405D02*
Y-69592D01*
X-99333Y-78847D02*
X-95892Y-75405D01*
X-133560Y-83560D02*
Y-56180D01*
X-113463Y-52019D02*
X-113183Y-51739D01*
X-97500Y-69220D02*
X-96057Y-67778D01*
X-97500Y-71500D02*
Y-69220D01*
X-96057Y-67778D02*
Y-65428D01*
X-94089Y-67789D02*
Y-65428D01*
X-88183Y-64928D02*
X-87904Y-65208D01*
X-81442Y-68291D02*
X-81366Y-68366D01*
X-101963Y-67022D02*
Y-64928D01*
X-98154Y-72154D02*
X-97500Y-71500D01*
X-99333Y-72154D02*
X-98154D01*
X-99994Y-32645D02*
Y-28706D01*
X-100100Y-32539D02*
X-99994Y-32645D01*
X-100700Y-28000D02*
X-99994Y-28706D01*
X-98026Y-29326D02*
X-97600Y-28900D01*
X-98026Y-32645D02*
Y-29326D01*
X-101963Y-32645D02*
Y-29933D01*
X-102960Y-28936D02*
X-101963Y-29933D01*
X-102960Y-28936D02*
Y-28936D01*
X-104260Y-27636D02*
X-102960Y-28936D01*
X-105820Y-28282D02*
X-103931Y-30171D01*
Y-32645D02*
Y-30171D01*
X-105820Y-28282D02*
Y-15167D01*
X-104260Y-27636D02*
Y-19522D01*
X-97347Y-12609D01*
X-105820Y-15167D02*
X-102654Y-12000D01*
X-97347Y-12609D02*
Y-12000D01*
X-113183Y-53708D02*
X-113064Y-53827D01*
X-110900Y-32800D02*
X-110745Y-32645D01*
X-107868D01*
X-140000Y-101300D02*
Y-100000D01*
Y-102625D02*
Y-101300D01*
X-132000Y-93300D01*
X-140200Y-101500D02*
X-140000Y-101300D01*
X-140200Y-102825D02*
X-140000Y-102625D01*
X-140200Y-102825D02*
Y-101500D01*
X-140000Y-90000D02*
X-133560Y-83560D01*
X-140000Y-50000D02*
X-133865Y-43865D01*
X-113183D01*
X-140000Y-40000D02*
X-138103Y-41897D01*
X-113183D01*
X-130072Y-39928D02*
X-113183D01*
X-140000Y-30000D02*
X-130072Y-39928D01*
X-122040Y-37960D02*
X-113183D01*
X-140000Y-20000D02*
X-122040Y-37960D01*
X-69135Y-39954D02*
X-68300D01*
X-70880Y-43678D02*
X-65824D01*
X-43347Y-21200D01*
X-80900Y-49771D02*
X-72235D01*
X-69854Y-50400D02*
X-68300Y-51954D01*
X-72235Y-49771D02*
X-71605Y-50400D01*
X-69854D01*
X-80900Y-57645D02*
X-80880Y-57664D01*
X-80900Y-51739D02*
X-80620Y-52019D01*
X-40143Y-78800D02*
Y-78763D01*
X-80620Y-52019D02*
X-73783D01*
X-70880Y-54922D01*
X-80900Y-53708D02*
X-74074D01*
X-69135Y-58647D01*
X-68300D01*
X-126005Y-67600D02*
X-124000Y-69605D01*
Y-72154D02*
Y-69605D01*
X-103641Y-68700D02*
X-101963Y-67022D01*
X-105900Y-64928D02*
Y-62794D01*
X-103905Y-60800D01*
X-87904Y-67301D02*
Y-65208D01*
Y-67301D02*
X-86914Y-68291D01*
X-81442D01*
X-90152Y-67454D02*
Y-64928D01*
Y-67454D02*
X-86400Y-71206D01*
Y-72654D02*
Y-71206D01*
X-100154Y-87600D02*
X-98805Y-86252D01*
X-99705Y-85352D02*
Y-83046D01*
Y-85352D02*
X-98805Y-86252D01*
X-95415Y-86032D02*
X-93846Y-87600D01*
X-96905Y-83372D02*
X-95415Y-84862D01*
Y-86032D02*
Y-84862D01*
X-96905Y-83372D02*
Y-83100D01*
X-120560Y-68485D02*
X-120345Y-68700D01*
X-103641D01*
X-78405Y-19748D02*
Y-16900D01*
Y-19748D02*
X-76653Y-21500D01*
X-90654Y-12000D02*
Y-3941D01*
X-91594Y-3000D02*
X-90654Y-3941D01*
X-86215Y-64928D02*
X-83934D01*
X-83706Y-64700D01*
X-53393Y-78800D02*
Y-73013D01*
X-103905Y-60800D02*
X-101706D01*
X-83738Y-5100D02*
X-80847D01*
X-71505Y-19708D02*
X-70013Y-21200D01*
X-71505Y-19708D02*
Y-14442D01*
X-80847Y-5100D02*
X-71505Y-14442D01*
X-53938Y-4900D02*
X-47506D01*
X-45605Y-6800D01*
Y-12248D02*
Y-6800D01*
Y-12248D02*
X-36654Y-21200D01*
X-61468Y-64937D02*
X-53393Y-73013D01*
X-61468Y-64937D02*
Y-64700D01*
X-48638Y-70500D02*
X-48406D01*
X-40143Y-78763D01*
X-70880Y-54922D02*
X-64216D01*
X-48638Y-70500D01*
X-111906Y-64100D02*
X-110396D01*
X-109567Y-64928D02*
X-107868D01*
X-110396Y-64100D02*
X-109567Y-64928D01*
X-116546Y-66560D02*
Y-58255D01*
X-115935Y-57645D02*
X-113183D01*
X-116546Y-58255D02*
X-115935Y-57645D01*
X-114005Y-66100D02*
X-113706Y-66400D01*
X-114005Y-66100D02*
Y-60180D01*
X-113438Y-59613D01*
X-113183D01*
X-173Y-89827D02*
X0Y-90000D01*
X-173Y-89827D02*
Y-85847D01*
X-4768Y-95232D02*
X0Y-100000D01*
X-4768Y-95232D02*
Y-83231D01*
X-4040Y-80000D02*
X0D01*
X-47768Y-68400D02*
X-19600D01*
X-4768Y-83231D01*
X-49768Y-65900D02*
X-20120D01*
X-173Y-85847D01*
X-51768Y-63400D02*
X-20640D01*
X-4040Y-80000D01*
X-53268Y-60400D02*
X-21268D01*
X-11668Y-70000D01*
X0D01*
X-79500Y-62700D02*
X-78566Y-63634D01*
X-79500Y-62700D02*
Y-60722D01*
X-80320Y-59902D02*
X-79500Y-60722D01*
X-80900Y-59902D02*
X-80320D01*
X-80900D02*
Y-59613D01*
Y-57924D02*
Y-57645D01*
X-84262Y-58914D02*
X-83273Y-57924D01*
X-84262Y-60809D02*
Y-58914D01*
X-83273Y-57924D02*
X-80900D01*
X-74768Y-78800D02*
X-73200D01*
X-74768D02*
Y-70303D01*
X-84262Y-60809D02*
X-74768Y-70303D01*
X-64406Y-85100D02*
X-63674Y-84369D01*
X-78566Y-63634D02*
X-76634D01*
X-61268Y-77482D02*
X-59950Y-78800D01*
X-77139Y-63734D02*
X-76161D01*
X-80900Y-55676D02*
X-77687D01*
X-76161Y-63734D02*
X-71768Y-68126D01*
Y-72350D02*
Y-68126D01*
Y-72350D02*
X-69218Y-74900D01*
X-77687Y-55676D02*
X-70368Y-62995D01*
Y-71770D02*
Y-62995D01*
Y-71770D02*
X-68638Y-73500D01*
X-68300Y-70868D02*
X-68268Y-70900D01*
X-68300Y-70868D02*
Y-58647D01*
X-69218Y-74900D02*
X-64995D01*
X-63674Y-76220D01*
Y-84369D02*
Y-76220D01*
X-61268Y-77482D02*
Y-76400D01*
X-64168Y-73500D02*
X-61268Y-76400D01*
X-68638Y-73500D02*
X-64168D01*
X-88183Y-35021D02*
X-87197Y-36007D01*
X-75325D01*
X-67465Y-36300D02*
X-64165Y-33000D01*
X-73638Y-36300D02*
X-67465D01*
X-80900Y-37960D02*
X-75298D01*
X-73638Y-36300D01*
X-80900Y-41897D02*
X-76265D01*
X-72768Y-38400D01*
X-70968Y-33600D02*
X-69406D01*
X-72268Y-34900D02*
X-70968Y-33600D01*
X-74218Y-34900D02*
X-72268D01*
X-75325Y-36007D02*
X-74218Y-34900D01*
X-53938Y-14900D02*
X-53682D01*
X-49987Y-18596D01*
Y-21200D02*
Y-18596D01*
X-63303Y-33000D02*
X-62932D01*
X-53580Y-23648D01*
Y-16983D01*
X-66768Y-26400D02*
Y-24648D01*
X-63320Y-21200D01*
X-71327Y-28500D02*
X-63783D01*
X-56680Y-21397D01*
X-68300Y-39954D02*
X-65246Y-36900D01*
X-63268D01*
X-113183Y-51739D02*
X-112904Y-52019D01*
X-110810D01*
X-109821Y-53008D01*
Y-54407D02*
Y-53008D01*
X-111090Y-55676D02*
X-109821Y-54407D01*
X-113183Y-55676D02*
X-111090D01*
X-124000Y-72154D02*
X-117833D01*
X-77227Y-34400D02*
X-71327Y-28500D01*
X-86215Y-32645D02*
X-84460Y-34400D01*
X-77227D01*
D20*
X-100100Y-23600D02*
X-99353Y-24346D01*
X-120134Y-56134D02*
X-119676Y-55676D01*
X-33450Y-78997D02*
Y-78800D01*
X-89023Y-29023D02*
X-85408D01*
X-90132Y-30132D02*
X-89023Y-29023D01*
X-90132Y-32645D02*
Y-30132D01*
X-96000Y-24346D02*
X-94089Y-26258D01*
X-96000Y-24346D02*
X-95700D01*
X-99353D02*
X-96000D01*
X-111667Y-78847D02*
X-109900Y-80613D01*
Y-83500D02*
Y-80613D01*
X-94089Y-32645D02*
Y-26258D01*
X-83938Y-14900D02*
X-83346Y-15491D01*
Y-21200D02*
Y-15491D01*
X-85408Y-29023D02*
X-85388Y-29042D01*
X-85388D02*
X-83346Y-27000D01*
X-85388Y-29042D02*
X-85388D01*
X-90152Y-32645D02*
X-90132D01*
X-80438Y-100100D02*
X-77000D01*
X-80438Y-90100D02*
X-79000D01*
X-75600Y-86700D01*
Y-83093D01*
X-79893Y-78800D02*
X-75600Y-83093D01*
X-124000Y-82300D02*
X-122500Y-83800D01*
X-124000Y-82300D02*
Y-78347D01*
X-122500Y-13400D02*
X-120754Y-11654D01*
X-116000D01*
X-39906Y-93600D02*
Y-85452D01*
X-33450Y-78997D01*
X-77000Y-100100D02*
X-68106Y-91206D01*
Y-80263D01*
X-66643Y-78800D01*
X-46406Y-100100D02*
X-39906Y-93600D01*
X-50438Y-100100D02*
X-46406D01*
X-46700Y-78997D02*
X-43601Y-82096D01*
X-46700Y-78997D02*
Y-78800D01*
X-50438Y-90100D02*
X-45805D01*
X-43601Y-87895D01*
Y-82096D01*
D21*
X-116229Y-55676D02*
X-113183D01*
X-116953Y-56400D02*
X-116229Y-55676D01*
X-118858Y-56400D02*
X-116953D01*
X-119582Y-55676D02*
X-118858Y-56400D01*
X-119676Y-55676D02*
X-119582D01*
X-119235Y-49771D02*
X-113183D01*
X-105900Y-39928D02*
X-105703Y-40125D01*
X-105900Y-39928D02*
Y-32645D01*
X-97042Y-40125D02*
X-96057Y-39141D01*
Y-32645D01*
X-106687Y-49771D02*
X-105703Y-48787D01*
X-113183Y-49771D02*
X-106687D01*
X-101985Y-69485D02*
X-99994Y-67494D01*
X-101996Y-69485D02*
X-101985D01*
X-102699Y-70188D02*
X-101996Y-69485D01*
X-102699Y-70199D02*
Y-70188D01*
X-104654Y-72154D02*
X-102699Y-70199D01*
X-14195Y-2800D02*
X-14195Y-2800D01*
X-14195Y-11800D02*
Y-2800D01*
X-92567Y-73853D02*
X-86400Y-80020D01*
Y-80546D02*
Y-80020D01*
X-111667Y-72154D02*
X-105500D01*
X-104654D01*
X-99994Y-67494D02*
Y-64928D01*
X-116500Y-26100D02*
X-116000Y-25600D01*
X-116053Y-26100D02*
X-116000Y-26047D01*
X-116500Y-26100D02*
X-116053D01*
X-116000Y-25600D02*
Y-18347D01*
X-98026Y-64928D02*
Y-58432D01*
X-97042Y-57448D01*
X-28768Y-87400D02*
Y-86900D01*
X-26893Y-85524D02*
Y-78500D01*
X-28768Y-87400D02*
X-26893Y-85524D01*
X-30347Y-21200D02*
Y-17822D01*
X-33268Y-14900D02*
X-30347Y-17822D01*
D22*
X-122500Y-53767D02*
Y-52700D01*
Y-53767D02*
X-120134Y-56134D01*
D23*
X0Y-50000D02*
D03*
Y-40000D02*
D03*
Y-30000D02*
D03*
Y-20000D02*
D03*
D24*
X-140000Y-60000D02*
D03*
Y-100000D02*
D03*
Y-90000D02*
D03*
Y-80000D02*
D03*
Y-70000D02*
D03*
Y-20000D02*
D03*
Y-30000D02*
D03*
Y-40000D02*
D03*
Y-50000D02*
D03*
X0Y-80000D02*
D03*
Y-100000D02*
D03*
Y-90000D02*
D03*
X-140000Y0D02*
D03*
Y-10000D02*
D03*
X0Y0D02*
D03*
Y-10000D02*
D03*
Y-60000D02*
D03*
Y-70000D02*
D03*
X-35268Y-38400D02*
D03*
X-25268D02*
D03*
D25*
X-91505Y-27800D02*
D03*
X-128300Y-64300D02*
D03*
X-100500Y-19800D02*
D03*
X-92106Y-69400D02*
D03*
D26*
X-100100Y-23600D02*
D03*
X-117405Y-53600D02*
D03*
X-119235Y-49771D02*
D03*
X-37905Y-14900D02*
D03*
Y-9900D02*
D03*
Y-4900D02*
D03*
Y100D02*
D03*
X-84905Y-40100D02*
D03*
X-78405Y-16600D02*
D03*
X-109900Y-83500D02*
D03*
X-100700Y-28000D02*
D03*
X-97600Y-28900D02*
D03*
X-122500Y-83800D02*
D03*
X-110900Y-32800D02*
D03*
X-122500Y-13400D02*
D03*
Y-52700D02*
D03*
X-126005Y-67600D02*
D03*
X-99705Y-83046D02*
D03*
X-96905Y-83100D02*
D03*
X-120560Y-68485D02*
D03*
X-85905Y-17700D02*
D03*
X-83706Y-64700D02*
D03*
X-101706Y-60800D02*
D03*
X-67905Y-9900D02*
D03*
Y-14900D02*
D03*
X-58631D02*
D03*
Y-9900D02*
D03*
Y-4900D02*
D03*
Y100D02*
D03*
X-67905D02*
D03*
Y-4900D02*
D03*
X-49244Y-14900D02*
D03*
Y-9900D02*
D03*
X-49301Y100D02*
D03*
X-45801Y-85100D02*
D03*
X-45744Y-95100D02*
D03*
X-64406Y-90100D02*
D03*
Y-85100D02*
D03*
X-55131D02*
D03*
Y-90100D02*
D03*
Y-95100D02*
D03*
Y-100100D02*
D03*
X-64406D02*
D03*
Y-95100D02*
D03*
X-40268Y-2400D02*
D03*
Y-7400D02*
D03*
Y-12400D02*
D03*
X-36768Y-87600D02*
D03*
Y-92600D02*
D03*
Y-97600D02*
D03*
X-34405Y-100100D02*
D03*
Y-95100D02*
D03*
Y-90100D02*
D03*
Y-85100D02*
D03*
X-61468Y-64700D02*
D03*
X-47768Y-68400D02*
D03*
X-49768Y-65900D02*
D03*
X-51768Y-63400D02*
D03*
X-53268Y-60400D02*
D03*
X-111906Y-64100D02*
D03*
X-116546Y-66560D02*
D03*
X-113706Y-66400D02*
D03*
X-68268Y-70900D02*
D03*
X-72768Y-38400D02*
D03*
X-66768Y-26400D02*
D03*
X-63268Y-36900D02*
D03*
D27*
X-108405Y-500D02*
D03*
Y-5500D02*
D03*
X-112406D02*
D03*
Y-500D02*
D03*
X-108905Y-95100D02*
D03*
Y-100100D02*
D03*
X-104905D02*
D03*
Y-95100D02*
D03*
D28*
X-92567Y-80546D02*
D03*
X-111805Y-87700D02*
D03*
X-109306Y-17200D02*
D03*
X-23806Y-25900D02*
D03*
X-8705Y-700D02*
D03*
Y-4900D02*
D03*
X-8705Y-13900D02*
D03*
Y-9700D02*
D03*
X-14711Y-80600D02*
D03*
Y-76400D02*
D03*
X-111768Y-29400D02*
D03*
X-119268Y-35400D02*
D03*
X-21279Y-9300D02*
D03*
Y-13500D02*
D03*
X-21279Y-4500D02*
D03*
Y-300D02*
D03*
X-78268Y-31900D02*
D03*
X-72268Y-25400D02*
D03*
X-78268Y-12400D02*
D03*
D29*
X-131127Y-19973D02*
D03*
X-127377Y-87473D02*
D03*
Y-27473D02*
D03*
X-123627Y-4973D02*
D03*
X-119877Y-87473D02*
D03*
X-116127Y-4973D02*
D03*
X-63627Y-49973D02*
D03*
X-59877Y-72473D02*
D03*
X-56127Y-49973D02*
D03*
X-59877Y-42473D02*
D03*
X-48627Y-49973D02*
D03*
X-52377Y-42473D02*
D03*
X-44877Y-57473D02*
D03*
X-41127Y-49973D02*
D03*
X-44877Y-42473D02*
D03*
X-33627Y-49973D02*
D03*
X-29877Y-42473D02*
D03*
X-22377Y-87473D02*
D03*
X-14877D02*
D03*
X-11127Y-64973D02*
D03*
X-3627D02*
D03*
Y-4973D02*
D03*
D30*
X-88380Y-40125D02*
D03*
Y-44456D02*
D03*
Y-48787D02*
D03*
Y-53117D02*
D03*
Y-57448D02*
D03*
X-92711Y-40125D02*
D03*
Y-44456D02*
D03*
Y-48787D02*
D03*
Y-53117D02*
D03*
Y-57448D02*
D03*
X-97042Y-40125D02*
D03*
Y-44456D02*
D03*
Y-48787D02*
D03*
Y-53117D02*
D03*
Y-57448D02*
D03*
X-101372Y-40125D02*
D03*
Y-44456D02*
D03*
Y-48787D02*
D03*
Y-53117D02*
D03*
Y-57448D02*
D03*
X-105703Y-40125D02*
D03*
Y-44456D02*
D03*
Y-48787D02*
D03*
Y-53117D02*
D03*
Y-57448D02*
D03*
M02*
