G04 Layer_Color=8421504*
%FSLAX25Y25*%
%MOIN*%
G70*
G01*
G75*
G04:AMPARAMS|DCode=10|XSize=39.37mil|YSize=43.31mil|CornerRadius=0mil|HoleSize=0mil|Usage=FLASHONLY|Rotation=225.000|XOffset=0mil|YOffset=0mil|HoleType=Round|Shape=Rectangle|*
%AMROTATEDRECTD10*
4,1,4,-0.00139,0.02923,0.02923,-0.00139,0.00139,-0.02923,-0.02923,0.00139,-0.00139,0.02923,0.0*
%
%ADD10ROTATEDRECTD10*%

%ADD11R,0.04331X0.03937*%
%ADD12R,0.03937X0.04331*%
%ADD13R,0.04331X0.07087*%
%ADD14R,0.03150X0.03150*%
%ADD15O,0.01378X0.04724*%
%ADD16O,0.04724X0.01378*%
%ADD17R,0.20079X0.20079*%
%ADD18O,0.04921X0.02165*%
D10*
X-120134Y-56134D02*
D03*
X-124866Y-60866D02*
D03*
X-81872Y-68466D02*
D03*
X-77139Y-63734D02*
D03*
D11*
X-95700Y-24347D02*
D03*
Y-17653D02*
D03*
X-105500Y-72154D02*
D03*
Y-78847D02*
D03*
X-86400Y-80546D02*
D03*
Y-73853D02*
D03*
X-99333Y-72654D02*
D03*
Y-79347D02*
D03*
X-92567Y-73853D02*
D03*
Y-80546D02*
D03*
X-90000Y-24347D02*
D03*
Y-17653D02*
D03*
X-68300Y-51954D02*
D03*
Y-58647D02*
D03*
Y-46646D02*
D03*
Y-39954D02*
D03*
X-124000Y-78847D02*
D03*
Y-72154D02*
D03*
X-117833D02*
D03*
Y-78847D02*
D03*
X-111667D02*
D03*
Y-72154D02*
D03*
X-116000Y-11654D02*
D03*
Y-18347D02*
D03*
D12*
X-76653Y-27000D02*
D03*
X-83346D02*
D03*
X-69996Y-33000D02*
D03*
X-63303D02*
D03*
X-26893Y-78500D02*
D03*
X-20200D02*
D03*
X-30347Y-21200D02*
D03*
X-23653D02*
D03*
X-33450Y-78800D02*
D03*
X-40143D02*
D03*
X-66643D02*
D03*
X-59950D02*
D03*
X-49987Y-21200D02*
D03*
X-56680D02*
D03*
X-83346Y-21500D02*
D03*
X-76653D02*
D03*
X-87154Y-87600D02*
D03*
X-93846D02*
D03*
X-106846D02*
D03*
X-100154D02*
D03*
X-90654Y-12000D02*
D03*
X-97347D02*
D03*
X-109346D02*
D03*
X-102654D02*
D03*
X-53393Y-78800D02*
D03*
X-46700D02*
D03*
X-73200Y-78800D02*
D03*
X-79893D02*
D03*
X-43347Y-21200D02*
D03*
X-36654D02*
D03*
X-63320D02*
D03*
X-70013D02*
D03*
D13*
X-26006Y-11800D02*
D03*
X-14195D02*
D03*
X-26006Y-2800D02*
D03*
X-14195D02*
D03*
X-88095Y-97600D02*
D03*
X-99906D02*
D03*
X-91594Y-3000D02*
D03*
X-103405D02*
D03*
D14*
X-116000Y-26047D02*
D03*
Y-31953D02*
D03*
D15*
X-86215Y-32645D02*
D03*
X-88183D02*
D03*
X-90152D02*
D03*
X-92120D02*
D03*
X-94089D02*
D03*
X-96057D02*
D03*
X-98026D02*
D03*
X-99994D02*
D03*
X-101963D02*
D03*
X-103931D02*
D03*
X-105900D02*
D03*
X-107868D02*
D03*
Y-64928D02*
D03*
X-105900D02*
D03*
X-103931D02*
D03*
X-101963D02*
D03*
X-99994D02*
D03*
X-98026D02*
D03*
X-96057D02*
D03*
X-94089D02*
D03*
X-92120D02*
D03*
X-90152D02*
D03*
X-88183D02*
D03*
X-86215D02*
D03*
D16*
X-113183Y-37960D02*
D03*
Y-39928D02*
D03*
Y-41897D02*
D03*
Y-43865D02*
D03*
Y-45834D02*
D03*
Y-47802D02*
D03*
Y-49771D02*
D03*
Y-51739D02*
D03*
Y-53708D02*
D03*
Y-55676D02*
D03*
Y-57645D02*
D03*
Y-59613D02*
D03*
X-80900D02*
D03*
Y-57645D02*
D03*
Y-55676D02*
D03*
Y-53708D02*
D03*
Y-51739D02*
D03*
Y-49771D02*
D03*
Y-47802D02*
D03*
Y-45834D02*
D03*
Y-43865D02*
D03*
Y-41897D02*
D03*
Y-39928D02*
D03*
Y-37960D02*
D03*
D17*
X-97042Y-48787D02*
D03*
D18*
X-29768Y-100100D02*
D03*
Y-95100D02*
D03*
Y-90100D02*
D03*
Y-85100D02*
D03*
X-50438Y-100100D02*
D03*
Y-95100D02*
D03*
Y-90100D02*
D03*
Y-85100D02*
D03*
X-59768Y-100100D02*
D03*
Y-95100D02*
D03*
Y-90100D02*
D03*
Y-85100D02*
D03*
X-80438Y-100100D02*
D03*
Y-95100D02*
D03*
Y-90100D02*
D03*
Y-85100D02*
D03*
X-33268Y-14900D02*
D03*
Y-9900D02*
D03*
Y-4900D02*
D03*
Y100D02*
D03*
X-53938Y-14900D02*
D03*
Y-9900D02*
D03*
Y-4900D02*
D03*
Y100D02*
D03*
X-63268Y-14900D02*
D03*
Y-9900D02*
D03*
Y-4900D02*
D03*
Y100D02*
D03*
X-83938Y-14900D02*
D03*
Y-9900D02*
D03*
Y-4900D02*
D03*
Y100D02*
D03*
M02*
