G04 Layer_Color=32896*
%FSLAX25Y25*%
%MOIN*%
G70*
G01*
G75*
%ADD19C,0.00800*%
%ADD34C,0.00787*%
%ADD36C,0.00700*%
G36*
X-60259Y-88900D02*
X-60996D01*
Y-88163D01*
X-60259D01*
Y-88900D01*
D02*
G37*
G36*
X-55643D02*
X-56380D01*
Y-85057D01*
X-55643D01*
Y-88900D01*
D02*
G37*
G36*
X-45803Y-87882D02*
X-45809Y-88023D01*
X-45821Y-88145D01*
X-45832Y-88251D01*
X-45850Y-88338D01*
X-45867Y-88409D01*
X-45885Y-88461D01*
X-45891Y-88490D01*
X-45897Y-88502D01*
X-45938Y-88578D01*
X-45990Y-88648D01*
X-46043Y-88707D01*
X-46096Y-88760D01*
X-46143Y-88795D01*
X-46183Y-88824D01*
X-46207Y-88841D01*
X-46218Y-88847D01*
X-46306Y-88888D01*
X-46394Y-88918D01*
X-46476Y-88941D01*
X-46552Y-88953D01*
X-46622Y-88964D01*
X-46675Y-88970D01*
X-46722D01*
X-46821Y-88964D01*
X-46920Y-88953D01*
X-47008Y-88929D01*
X-47084Y-88906D01*
X-47149Y-88882D01*
X-47201Y-88859D01*
X-47231Y-88847D01*
X-47242Y-88841D01*
X-47330Y-88789D01*
X-47412Y-88730D01*
X-47482Y-88672D01*
X-47541Y-88613D01*
X-47587Y-88561D01*
X-47617Y-88520D01*
X-47640Y-88496D01*
X-47646Y-88485D01*
Y-88900D01*
X-48330D01*
Y-86115D01*
X-47593D01*
Y-87297D01*
Y-87402D01*
Y-87502D01*
X-47587Y-87590D01*
X-47582Y-87666D01*
Y-87736D01*
X-47576Y-87800D01*
X-47570Y-87853D01*
X-47564Y-87900D01*
X-47558Y-87935D01*
X-47552Y-87970D01*
X-47546Y-87999D01*
Y-88017D01*
X-47535Y-88046D01*
Y-88052D01*
X-47511Y-88104D01*
X-47482Y-88157D01*
X-47447Y-88198D01*
X-47412Y-88239D01*
X-47383Y-88268D01*
X-47353Y-88292D01*
X-47336Y-88303D01*
X-47330Y-88309D01*
X-47271Y-88344D01*
X-47219Y-88368D01*
X-47160Y-88385D01*
X-47108Y-88397D01*
X-47061Y-88403D01*
X-47026Y-88409D01*
X-46997D01*
X-46938Y-88403D01*
X-46885Y-88397D01*
X-46839Y-88385D01*
X-46798Y-88368D01*
X-46768Y-88356D01*
X-46739Y-88344D01*
X-46727Y-88338D01*
X-46722Y-88333D01*
X-46687Y-88303D01*
X-46657Y-88268D01*
X-46611Y-88204D01*
X-46593Y-88175D01*
X-46581Y-88151D01*
X-46575Y-88134D01*
Y-88128D01*
X-46569Y-88099D01*
X-46564Y-88058D01*
X-46558Y-88011D01*
Y-87958D01*
X-46546Y-87841D01*
Y-87713D01*
X-46540Y-87595D01*
Y-87543D01*
Y-87496D01*
Y-87455D01*
Y-87426D01*
Y-87408D01*
Y-87402D01*
Y-86115D01*
X-45803D01*
Y-87882D01*
D02*
G37*
G36*
X-70098Y-88900D02*
X-70835D01*
Y-88163D01*
X-70098D01*
Y-88900D01*
D02*
G37*
G36*
X-68308D02*
X-69045D01*
Y-88163D01*
X-68308D01*
Y-88900D01*
D02*
G37*
G36*
X-66518D02*
X-67255D01*
Y-88163D01*
X-66518D01*
Y-88900D01*
D02*
G37*
G36*
X-39643D02*
X-40480D01*
X-41849Y-85057D01*
X-41018D01*
X-40082Y-87900D01*
X-39105Y-85057D01*
X-38268D01*
X-39643Y-88900D01*
D02*
G37*
G36*
X-64307Y-85051D02*
X-64213Y-85062D01*
X-64125Y-85080D01*
X-64043Y-85103D01*
X-63962Y-85127D01*
X-63891Y-85162D01*
X-63821Y-85191D01*
X-63763Y-85226D01*
X-63710Y-85261D01*
X-63663Y-85290D01*
X-63622Y-85326D01*
X-63587Y-85349D01*
X-63558Y-85373D01*
X-63540Y-85390D01*
X-63529Y-85402D01*
X-63523Y-85408D01*
X-63464Y-85478D01*
X-63412Y-85548D01*
X-63365Y-85624D01*
X-63324Y-85706D01*
X-63289Y-85782D01*
X-63260Y-85864D01*
X-63219Y-86010D01*
X-63207Y-86080D01*
X-63195Y-86145D01*
X-63189Y-86203D01*
X-63183Y-86250D01*
X-63178Y-86291D01*
Y-86326D01*
Y-86344D01*
Y-86349D01*
X-63183Y-86455D01*
X-63189Y-86548D01*
X-63230Y-86730D01*
X-63254Y-86812D01*
X-63283Y-86888D01*
X-63312Y-86952D01*
X-63341Y-87016D01*
X-63371Y-87075D01*
X-63400Y-87122D01*
X-63429Y-87163D01*
X-63453Y-87198D01*
X-63476Y-87227D01*
X-63494Y-87244D01*
X-63499Y-87256D01*
X-63505Y-87262D01*
X-63570Y-87321D01*
X-63634Y-87373D01*
X-63698Y-87420D01*
X-63763Y-87461D01*
X-63833Y-87496D01*
X-63897Y-87525D01*
X-64020Y-87566D01*
X-64125Y-87590D01*
X-64166Y-87595D01*
X-64207Y-87601D01*
X-64242Y-87607D01*
X-64283D01*
X-64359Y-87601D01*
X-64435Y-87595D01*
X-64570Y-87555D01*
X-64687Y-87508D01*
X-64786Y-87443D01*
X-64868Y-87385D01*
X-64927Y-87338D01*
X-64950Y-87315D01*
X-64968Y-87297D01*
X-64974Y-87291D01*
X-64979Y-87285D01*
X-64968Y-87402D01*
X-64956Y-87514D01*
X-64944Y-87613D01*
X-64927Y-87701D01*
X-64909Y-87783D01*
X-64892Y-87853D01*
X-64874Y-87911D01*
X-64863Y-87970D01*
X-64845Y-88017D01*
X-64827Y-88058D01*
X-64816Y-88087D01*
X-64798Y-88116D01*
X-64792Y-88134D01*
X-64781Y-88145D01*
X-64775Y-88157D01*
X-64710Y-88227D01*
X-64646Y-88274D01*
X-64582Y-88309D01*
X-64523Y-88338D01*
X-64470Y-88350D01*
X-64430Y-88356D01*
X-64400Y-88362D01*
X-64389D01*
X-64324Y-88356D01*
X-64266Y-88344D01*
X-64219Y-88333D01*
X-64172Y-88309D01*
X-64143Y-88292D01*
X-64114Y-88280D01*
X-64102Y-88268D01*
X-64096Y-88262D01*
X-64061Y-88216D01*
X-64032Y-88169D01*
X-64008Y-88110D01*
X-63991Y-88058D01*
X-63979Y-88011D01*
X-63973Y-87970D01*
X-63967Y-87946D01*
Y-87935D01*
X-63254Y-88017D01*
X-63289Y-88180D01*
X-63341Y-88327D01*
X-63400Y-88450D01*
X-63459Y-88549D01*
X-63511Y-88631D01*
X-63558Y-88684D01*
X-63593Y-88719D01*
X-63605Y-88724D01*
Y-88730D01*
X-63716Y-88812D01*
X-63839Y-88871D01*
X-63962Y-88912D01*
X-64079Y-88941D01*
X-64178Y-88959D01*
X-64225Y-88964D01*
X-64260D01*
X-64295Y-88970D01*
X-64336D01*
X-64447Y-88964D01*
X-64558Y-88953D01*
X-64658Y-88929D01*
X-64757Y-88900D01*
X-64845Y-88865D01*
X-64927Y-88824D01*
X-65003Y-88783D01*
X-65073Y-88736D01*
X-65137Y-88695D01*
X-65190Y-88654D01*
X-65237Y-88613D01*
X-65278Y-88578D01*
X-65307Y-88549D01*
X-65330Y-88526D01*
X-65342Y-88514D01*
X-65348Y-88508D01*
X-65418Y-88414D01*
X-65477Y-88309D01*
X-65529Y-88192D01*
X-65576Y-88075D01*
X-65611Y-87946D01*
X-65646Y-87824D01*
X-65693Y-87572D01*
X-65705Y-87455D01*
X-65717Y-87344D01*
X-65728Y-87244D01*
X-65734Y-87157D01*
X-65740Y-87086D01*
Y-87034D01*
Y-86999D01*
Y-86987D01*
X-65734Y-86800D01*
X-65722Y-86624D01*
X-65705Y-86466D01*
X-65681Y-86320D01*
X-65652Y-86186D01*
X-65623Y-86063D01*
X-65588Y-85952D01*
X-65553Y-85858D01*
X-65518Y-85770D01*
X-65483Y-85700D01*
X-65453Y-85636D01*
X-65424Y-85589D01*
X-65401Y-85548D01*
X-65383Y-85524D01*
X-65371Y-85507D01*
X-65366Y-85501D01*
X-65295Y-85419D01*
X-65219Y-85349D01*
X-65137Y-85290D01*
X-65056Y-85238D01*
X-64979Y-85191D01*
X-64898Y-85156D01*
X-64821Y-85127D01*
X-64745Y-85103D01*
X-64675Y-85086D01*
X-64611Y-85068D01*
X-64552Y-85057D01*
X-64506Y-85051D01*
X-64465Y-85045D01*
X-64406D01*
X-64307Y-85051D01*
D02*
G37*
G36*
X-60259Y-86853D02*
X-60996D01*
Y-86115D01*
X-60259D01*
Y-86853D01*
D02*
G37*
G36*
X-62856Y-77998D02*
X-62716Y-78016D01*
X-62581Y-78039D01*
X-62458Y-78074D01*
X-62341Y-78115D01*
X-62236Y-78162D01*
X-62136Y-78209D01*
X-62049Y-78255D01*
X-61967Y-78308D01*
X-61897Y-78355D01*
X-61838Y-78402D01*
X-61785Y-78443D01*
X-61750Y-78478D01*
X-61721Y-78501D01*
X-61703Y-78519D01*
X-61698Y-78525D01*
X-61610Y-78630D01*
X-61534Y-78741D01*
X-61470Y-78858D01*
X-61411Y-78981D01*
X-61364Y-79104D01*
X-61329Y-79232D01*
X-61294Y-79349D01*
X-61271Y-79472D01*
X-61247Y-79583D01*
X-61230Y-79683D01*
X-61224Y-79776D01*
X-61212Y-79858D01*
Y-79923D01*
X-61206Y-79975D01*
Y-80005D01*
Y-80016D01*
X-61212Y-80180D01*
X-61230Y-80338D01*
X-61253Y-80484D01*
X-61282Y-80619D01*
X-61323Y-80748D01*
X-61364Y-80865D01*
X-61405Y-80976D01*
X-61452Y-81069D01*
X-61499Y-81157D01*
X-61540Y-81233D01*
X-61586Y-81297D01*
X-61622Y-81350D01*
X-61651Y-81391D01*
X-61674Y-81420D01*
X-61692Y-81438D01*
X-61698Y-81444D01*
X-61791Y-81537D01*
X-61891Y-81613D01*
X-61996Y-81684D01*
X-62101Y-81742D01*
X-62207Y-81795D01*
X-62312Y-81836D01*
X-62411Y-81871D01*
X-62511Y-81900D01*
X-62604Y-81923D01*
X-62686Y-81935D01*
X-62762Y-81947D01*
X-62827Y-81959D01*
X-62879D01*
X-62920Y-81964D01*
X-62955D01*
X-63067Y-81959D01*
X-63178Y-81953D01*
X-63277Y-81935D01*
X-63377Y-81918D01*
X-63464Y-81894D01*
X-63546Y-81871D01*
X-63622Y-81841D01*
X-63692Y-81812D01*
X-63757Y-81783D01*
X-63815Y-81754D01*
X-63862Y-81730D01*
X-63903Y-81707D01*
X-63932Y-81689D01*
X-63956Y-81672D01*
X-63967Y-81666D01*
X-63973Y-81660D01*
X-64049Y-81602D01*
X-64114Y-81531D01*
X-64236Y-81385D01*
X-64336Y-81227D01*
X-64412Y-81075D01*
X-64447Y-81005D01*
X-64476Y-80935D01*
X-64500Y-80876D01*
X-64517Y-80824D01*
X-64535Y-80777D01*
X-64547Y-80748D01*
X-64552Y-80724D01*
Y-80718D01*
X-63798Y-80484D01*
X-63757Y-80636D01*
X-63704Y-80759D01*
X-63652Y-80870D01*
X-63599Y-80958D01*
X-63552Y-81023D01*
X-63511Y-81075D01*
X-63488Y-81099D01*
X-63476Y-81110D01*
X-63388Y-81175D01*
X-63301Y-81221D01*
X-63213Y-81257D01*
X-63125Y-81280D01*
X-63055Y-81292D01*
X-62996Y-81297D01*
X-62973Y-81303D01*
X-62944D01*
X-62868Y-81297D01*
X-62797Y-81292D01*
X-62663Y-81257D01*
X-62546Y-81210D01*
X-62446Y-81151D01*
X-62370Y-81093D01*
X-62312Y-81046D01*
X-62277Y-81011D01*
X-62271Y-81005D01*
X-62265Y-80999D01*
X-62218Y-80935D01*
X-62183Y-80865D01*
X-62148Y-80788D01*
X-62119Y-80707D01*
X-62072Y-80531D01*
X-62043Y-80361D01*
X-62031Y-80279D01*
X-62019Y-80203D01*
X-62014Y-80139D01*
Y-80075D01*
X-62008Y-80028D01*
Y-79987D01*
Y-79964D01*
Y-79958D01*
X-62014Y-79835D01*
X-62019Y-79718D01*
X-62031Y-79607D01*
X-62049Y-79513D01*
X-62066Y-79420D01*
X-62090Y-79338D01*
X-62113Y-79268D01*
X-62142Y-79203D01*
X-62166Y-79145D01*
X-62189Y-79098D01*
X-62212Y-79057D01*
X-62230Y-79022D01*
X-62248Y-78998D01*
X-62259Y-78975D01*
X-62271Y-78969D01*
Y-78963D01*
X-62324Y-78911D01*
X-62376Y-78858D01*
X-62435Y-78817D01*
X-62487Y-78782D01*
X-62604Y-78729D01*
X-62716Y-78694D01*
X-62815Y-78671D01*
X-62856Y-78665D01*
X-62891Y-78659D01*
X-62920Y-78653D01*
X-62961D01*
X-63072Y-78659D01*
X-63172Y-78683D01*
X-63265Y-78706D01*
X-63341Y-78741D01*
X-63406Y-78770D01*
X-63447Y-78799D01*
X-63476Y-78823D01*
X-63488Y-78829D01*
X-63564Y-78899D01*
X-63622Y-78975D01*
X-63675Y-79051D01*
X-63710Y-79127D01*
X-63739Y-79197D01*
X-63763Y-79250D01*
X-63769Y-79285D01*
X-63774Y-79291D01*
Y-79297D01*
X-64541Y-79115D01*
X-64488Y-78952D01*
X-64424Y-78811D01*
X-64354Y-78694D01*
X-64289Y-78595D01*
X-64231Y-78513D01*
X-64184Y-78460D01*
X-64155Y-78425D01*
X-64149Y-78413D01*
X-64143D01*
X-64055Y-78337D01*
X-63967Y-78273D01*
X-63874Y-78220D01*
X-63780Y-78168D01*
X-63687Y-78127D01*
X-63587Y-78097D01*
X-63499Y-78068D01*
X-63406Y-78045D01*
X-63324Y-78027D01*
X-63248Y-78016D01*
X-63178Y-78004D01*
X-63119Y-77998D01*
X-63072Y-77992D01*
X-63002D01*
X-62856Y-77998D01*
D02*
G37*
G36*
X-57831Y-88906D02*
X-57802Y-88988D01*
X-57772Y-89064D01*
X-57743Y-89128D01*
X-57714Y-89187D01*
X-57684Y-89233D01*
X-57661Y-89263D01*
X-57649Y-89286D01*
X-57644Y-89292D01*
X-57591Y-89345D01*
X-57532Y-89386D01*
X-57468Y-89409D01*
X-57410Y-89432D01*
X-57351Y-89444D01*
X-57304Y-89450D01*
X-57263D01*
X-57158Y-89444D01*
X-57105Y-89438D01*
X-57059Y-89432D01*
X-57012Y-89426D01*
X-56982Y-89421D01*
X-56959Y-89415D01*
X-56953D01*
X-57018Y-89988D01*
X-57170Y-90017D01*
X-57240Y-90023D01*
X-57304Y-90029D01*
X-57357Y-90035D01*
X-57509D01*
X-57579Y-90029D01*
X-57644Y-90017D01*
X-57702Y-90012D01*
X-57743Y-90000D01*
X-57778Y-89994D01*
X-57802Y-89988D01*
X-57807D01*
X-57866Y-89971D01*
X-57924Y-89947D01*
X-57971Y-89924D01*
X-58012Y-89906D01*
X-58041Y-89889D01*
X-58071Y-89871D01*
X-58082Y-89865D01*
X-58088Y-89859D01*
X-58170Y-89795D01*
X-58234Y-89731D01*
X-58258Y-89701D01*
X-58275Y-89678D01*
X-58287Y-89661D01*
X-58293Y-89655D01*
X-58328Y-89602D01*
X-58357Y-89543D01*
X-58386Y-89479D01*
X-58416Y-89421D01*
X-58439Y-89362D01*
X-58457Y-89321D01*
X-58468Y-89292D01*
X-58474Y-89280D01*
X-58656Y-88795D01*
X-59638Y-86115D01*
X-58878D01*
X-58223Y-88093D01*
X-57562Y-86115D01*
X-56778D01*
X-57831Y-88906D01*
D02*
G37*
G36*
X-78698Y-88900D02*
X-79534D01*
X-80903Y-85057D01*
X-80072D01*
X-79137Y-87900D01*
X-78159Y-85057D01*
X-77323D01*
X-78698Y-88900D01*
D02*
G37*
G36*
X-50460Y-79852D02*
X-51197D01*
Y-79115D01*
X-50460D01*
Y-79852D01*
D02*
G37*
G36*
X-72309Y-78051D02*
X-72198Y-78062D01*
X-72099Y-78086D01*
X-72000Y-78115D01*
X-71912Y-78156D01*
X-71830Y-78191D01*
X-71754Y-78238D01*
X-71684Y-78279D01*
X-71619Y-78320D01*
X-71567Y-78367D01*
X-71520Y-78402D01*
X-71479Y-78437D01*
X-71450Y-78472D01*
X-71426Y-78495D01*
X-71415Y-78507D01*
X-71409Y-78513D01*
X-71338Y-78606D01*
X-71280Y-78712D01*
X-71227Y-78829D01*
X-71186Y-78946D01*
X-71145Y-79075D01*
X-71116Y-79203D01*
X-71069Y-79449D01*
X-71058Y-79572D01*
X-71046Y-79677D01*
X-71034Y-79782D01*
X-71028Y-79864D01*
X-71022Y-79940D01*
Y-79993D01*
Y-80028D01*
Y-80034D01*
Y-80040D01*
X-71028Y-80227D01*
X-71040Y-80397D01*
X-71058Y-80560D01*
X-71081Y-80707D01*
X-71110Y-80841D01*
X-71140Y-80958D01*
X-71175Y-81069D01*
X-71210Y-81163D01*
X-71239Y-81251D01*
X-71274Y-81321D01*
X-71303Y-81385D01*
X-71333Y-81432D01*
X-71356Y-81473D01*
X-71373Y-81496D01*
X-71385Y-81514D01*
X-71391Y-81520D01*
X-71461Y-81602D01*
X-71537Y-81666D01*
X-71619Y-81730D01*
X-71701Y-81777D01*
X-71777Y-81824D01*
X-71859Y-81859D01*
X-71935Y-81888D01*
X-72011Y-81912D01*
X-72081Y-81935D01*
X-72146Y-81947D01*
X-72204Y-81959D01*
X-72251Y-81964D01*
X-72292D01*
X-72327Y-81970D01*
X-72351D01*
X-72450Y-81964D01*
X-72544Y-81953D01*
X-72631Y-81935D01*
X-72713Y-81918D01*
X-72795Y-81888D01*
X-72865Y-81859D01*
X-72935Y-81830D01*
X-72994Y-81795D01*
X-73047Y-81760D01*
X-73099Y-81730D01*
X-73140Y-81701D01*
X-73169Y-81672D01*
X-73199Y-81654D01*
X-73216Y-81637D01*
X-73228Y-81625D01*
X-73234Y-81619D01*
X-73298Y-81549D01*
X-73351Y-81473D01*
X-73398Y-81397D01*
X-73439Y-81321D01*
X-73474Y-81239D01*
X-73497Y-81163D01*
X-73544Y-81011D01*
X-73556Y-80941D01*
X-73567Y-80876D01*
X-73573Y-80818D01*
X-73579Y-80771D01*
X-73585Y-80730D01*
Y-80695D01*
Y-80677D01*
Y-80672D01*
X-73579Y-80572D01*
X-73573Y-80473D01*
X-73556Y-80379D01*
X-73532Y-80297D01*
X-73509Y-80215D01*
X-73479Y-80139D01*
X-73450Y-80069D01*
X-73421Y-80010D01*
X-73386Y-79952D01*
X-73357Y-79905D01*
X-73327Y-79864D01*
X-73304Y-79829D01*
X-73281Y-79800D01*
X-73263Y-79782D01*
X-73257Y-79771D01*
X-73251Y-79765D01*
X-73187Y-79700D01*
X-73123Y-79648D01*
X-73058Y-79601D01*
X-72988Y-79560D01*
X-72924Y-79525D01*
X-72859Y-79496D01*
X-72737Y-79455D01*
X-72631Y-79426D01*
X-72584Y-79420D01*
X-72544Y-79414D01*
X-72514Y-79408D01*
X-72467D01*
X-72391Y-79414D01*
X-72321Y-79420D01*
X-72187Y-79461D01*
X-72070Y-79513D01*
X-71970Y-79572D01*
X-71894Y-79630D01*
X-71830Y-79683D01*
X-71812Y-79706D01*
X-71795Y-79724D01*
X-71789Y-79730D01*
X-71783Y-79735D01*
X-71795Y-79619D01*
X-71806Y-79507D01*
X-71818Y-79408D01*
X-71830Y-79320D01*
X-71847Y-79238D01*
X-71865Y-79168D01*
X-71882Y-79104D01*
X-71900Y-79051D01*
X-71912Y-79004D01*
X-71929Y-78963D01*
X-71947Y-78934D01*
X-71959Y-78905D01*
X-71964Y-78887D01*
X-71976Y-78875D01*
X-71982Y-78864D01*
X-72046Y-78794D01*
X-72111Y-78741D01*
X-72181Y-78706D01*
X-72245Y-78677D01*
X-72298Y-78665D01*
X-72339Y-78659D01*
X-72368Y-78653D01*
X-72380D01*
X-72444Y-78659D01*
X-72497Y-78671D01*
X-72544Y-78688D01*
X-72584Y-78706D01*
X-72620Y-78724D01*
X-72643Y-78741D01*
X-72655Y-78753D01*
X-72660Y-78759D01*
X-72702Y-78799D01*
X-72731Y-78852D01*
X-72754Y-78905D01*
X-72772Y-78957D01*
X-72783Y-79004D01*
X-72795Y-79045D01*
X-72801Y-79069D01*
Y-79080D01*
X-73515Y-79004D01*
X-73474Y-78840D01*
X-73421Y-78694D01*
X-73362Y-78571D01*
X-73298Y-78472D01*
X-73240Y-78390D01*
X-73193Y-78337D01*
X-73158Y-78302D01*
X-73152Y-78290D01*
X-73146D01*
X-73035Y-78209D01*
X-72912Y-78150D01*
X-72789Y-78103D01*
X-72678Y-78074D01*
X-72573Y-78057D01*
X-72532Y-78051D01*
X-72497D01*
X-72462Y-78045D01*
X-72421D01*
X-72309Y-78051D01*
D02*
G37*
G36*
X-69273Y-78174D02*
X-69203Y-78290D01*
X-69127Y-78396D01*
X-69051Y-78484D01*
X-68975Y-78560D01*
X-68916Y-78612D01*
X-68899Y-78630D01*
X-68881Y-78647D01*
X-68870Y-78653D01*
X-68864Y-78659D01*
X-68741Y-78753D01*
X-68624Y-78823D01*
X-68519Y-78887D01*
X-68425Y-78934D01*
X-68349Y-78975D01*
X-68291Y-78998D01*
X-68267Y-79004D01*
X-68250Y-79010D01*
X-68244Y-79016D01*
X-68238D01*
Y-79683D01*
X-68437Y-79607D01*
X-68618Y-79519D01*
X-68776Y-79431D01*
X-68852Y-79384D01*
X-68916Y-79338D01*
X-68981Y-79297D01*
X-69033Y-79256D01*
X-69080Y-79221D01*
X-69121Y-79191D01*
X-69151Y-79162D01*
X-69174Y-79145D01*
X-69186Y-79133D01*
X-69191Y-79127D01*
Y-81900D01*
X-69929D01*
Y-78045D01*
X-69326D01*
X-69273Y-78174D01*
D02*
G37*
G36*
X-77066Y-80876D02*
X-78505D01*
Y-80139D01*
X-77066D01*
Y-80876D01*
D02*
G37*
G36*
X-56866Y-81900D02*
X-57585D01*
Y-78875D01*
X-58346Y-81900D01*
X-59088D01*
X-59849Y-78875D01*
X-59855Y-81900D01*
X-60574D01*
Y-78057D01*
X-59404D01*
X-58720Y-80683D01*
X-58024Y-78057D01*
X-56866D01*
Y-81900D01*
D02*
G37*
G36*
X-39918Y-77998D02*
X-39778Y-78016D01*
X-39643Y-78039D01*
X-39520Y-78074D01*
X-39403Y-78115D01*
X-39298Y-78162D01*
X-39198Y-78209D01*
X-39111Y-78255D01*
X-39029Y-78308D01*
X-38959Y-78355D01*
X-38900Y-78402D01*
X-38848Y-78443D01*
X-38812Y-78478D01*
X-38783Y-78501D01*
X-38766Y-78519D01*
X-38760Y-78525D01*
X-38672Y-78630D01*
X-38596Y-78741D01*
X-38532Y-78858D01*
X-38473Y-78981D01*
X-38426Y-79104D01*
X-38391Y-79232D01*
X-38356Y-79349D01*
X-38333Y-79472D01*
X-38309Y-79583D01*
X-38292Y-79683D01*
X-38286Y-79776D01*
X-38274Y-79858D01*
Y-79923D01*
X-38268Y-79975D01*
Y-80005D01*
Y-80016D01*
X-38274Y-80180D01*
X-38292Y-80338D01*
X-38315Y-80484D01*
X-38344Y-80619D01*
X-38385Y-80748D01*
X-38426Y-80865D01*
X-38467Y-80976D01*
X-38514Y-81069D01*
X-38561Y-81157D01*
X-38602Y-81233D01*
X-38649Y-81297D01*
X-38684Y-81350D01*
X-38713Y-81391D01*
X-38736Y-81420D01*
X-38754Y-81438D01*
X-38760Y-81444D01*
X-38853Y-81537D01*
X-38953Y-81613D01*
X-39058Y-81684D01*
X-39163Y-81742D01*
X-39269Y-81795D01*
X-39374Y-81836D01*
X-39474Y-81871D01*
X-39573Y-81900D01*
X-39667Y-81923D01*
X-39748Y-81935D01*
X-39825Y-81947D01*
X-39889Y-81959D01*
X-39941D01*
X-39982Y-81964D01*
X-40018D01*
X-40129Y-81959D01*
X-40240Y-81953D01*
X-40339Y-81935D01*
X-40439Y-81918D01*
X-40527Y-81894D01*
X-40608Y-81871D01*
X-40684Y-81841D01*
X-40755Y-81812D01*
X-40819Y-81783D01*
X-40878Y-81754D01*
X-40924Y-81730D01*
X-40965Y-81707D01*
X-40995Y-81689D01*
X-41018Y-81672D01*
X-41030Y-81666D01*
X-41035Y-81660D01*
X-41111Y-81602D01*
X-41176Y-81531D01*
X-41299Y-81385D01*
X-41398Y-81227D01*
X-41474Y-81075D01*
X-41509Y-81005D01*
X-41539Y-80935D01*
X-41562Y-80876D01*
X-41579Y-80824D01*
X-41597Y-80777D01*
X-41609Y-80748D01*
X-41615Y-80724D01*
Y-80718D01*
X-40860Y-80484D01*
X-40819Y-80636D01*
X-40766Y-80759D01*
X-40714Y-80870D01*
X-40661Y-80958D01*
X-40614Y-81023D01*
X-40573Y-81075D01*
X-40550Y-81099D01*
X-40538Y-81110D01*
X-40450Y-81175D01*
X-40363Y-81221D01*
X-40275Y-81257D01*
X-40187Y-81280D01*
X-40117Y-81292D01*
X-40058Y-81297D01*
X-40035Y-81303D01*
X-40006D01*
X-39930Y-81297D01*
X-39860Y-81292D01*
X-39725Y-81257D01*
X-39608Y-81210D01*
X-39509Y-81151D01*
X-39432Y-81093D01*
X-39374Y-81046D01*
X-39339Y-81011D01*
X-39333Y-81005D01*
X-39327Y-80999D01*
X-39280Y-80935D01*
X-39245Y-80865D01*
X-39210Y-80788D01*
X-39181Y-80707D01*
X-39134Y-80531D01*
X-39105Y-80361D01*
X-39093Y-80279D01*
X-39081Y-80203D01*
X-39076Y-80139D01*
Y-80075D01*
X-39070Y-80028D01*
Y-79987D01*
Y-79964D01*
Y-79958D01*
X-39076Y-79835D01*
X-39081Y-79718D01*
X-39093Y-79607D01*
X-39111Y-79513D01*
X-39128Y-79420D01*
X-39152Y-79338D01*
X-39175Y-79268D01*
X-39204Y-79203D01*
X-39228Y-79145D01*
X-39251Y-79098D01*
X-39275Y-79057D01*
X-39292Y-79022D01*
X-39310Y-78998D01*
X-39321Y-78975D01*
X-39333Y-78969D01*
Y-78963D01*
X-39386Y-78911D01*
X-39438Y-78858D01*
X-39497Y-78817D01*
X-39549Y-78782D01*
X-39667Y-78729D01*
X-39778Y-78694D01*
X-39877Y-78671D01*
X-39918Y-78665D01*
X-39953Y-78659D01*
X-39982Y-78653D01*
X-40023D01*
X-40135Y-78659D01*
X-40234Y-78683D01*
X-40328Y-78706D01*
X-40404Y-78741D01*
X-40468Y-78770D01*
X-40509Y-78799D01*
X-40538Y-78823D01*
X-40550Y-78829D01*
X-40626Y-78899D01*
X-40684Y-78975D01*
X-40737Y-79051D01*
X-40772Y-79127D01*
X-40801Y-79197D01*
X-40825Y-79250D01*
X-40831Y-79285D01*
X-40837Y-79291D01*
Y-79297D01*
X-41603Y-79115D01*
X-41550Y-78952D01*
X-41486Y-78811D01*
X-41416Y-78694D01*
X-41351Y-78595D01*
X-41293Y-78513D01*
X-41246Y-78460D01*
X-41217Y-78425D01*
X-41211Y-78413D01*
X-41205D01*
X-41117Y-78337D01*
X-41030Y-78273D01*
X-40936Y-78220D01*
X-40842Y-78168D01*
X-40749Y-78127D01*
X-40649Y-78097D01*
X-40562Y-78068D01*
X-40468Y-78045D01*
X-40386Y-78027D01*
X-40310Y-78016D01*
X-40240Y-78004D01*
X-40181Y-77998D01*
X-40135Y-77992D01*
X-40064D01*
X-39918Y-77998D01*
D02*
G37*
G36*
X-53794Y-86063D02*
X-53695Y-86080D01*
X-53607Y-86098D01*
X-53537Y-86121D01*
X-53473Y-86150D01*
X-53426Y-86168D01*
X-53396Y-86186D01*
X-53385Y-86191D01*
X-53303Y-86244D01*
X-53233Y-86297D01*
X-53174Y-86355D01*
X-53122Y-86408D01*
X-53081Y-86455D01*
X-53051Y-86490D01*
X-53034Y-86513D01*
X-53028Y-86525D01*
Y-86115D01*
X-52343D01*
Y-89965D01*
X-53081D01*
Y-88566D01*
X-53157Y-88643D01*
X-53227Y-88707D01*
X-53297Y-88765D01*
X-53355Y-88806D01*
X-53402Y-88841D01*
X-53437Y-88865D01*
X-53467Y-88877D01*
X-53473Y-88882D01*
X-53543Y-88912D01*
X-53619Y-88935D01*
X-53689Y-88947D01*
X-53753Y-88959D01*
X-53806Y-88964D01*
X-53847Y-88970D01*
X-53888D01*
X-53976Y-88964D01*
X-54063Y-88953D01*
X-54145Y-88935D01*
X-54221Y-88912D01*
X-54362Y-88847D01*
X-54485Y-88777D01*
X-54531Y-88742D01*
X-54578Y-88707D01*
X-54619Y-88672D01*
X-54654Y-88643D01*
X-54678Y-88619D01*
X-54695Y-88602D01*
X-54707Y-88590D01*
X-54713Y-88584D01*
X-54771Y-88508D01*
X-54830Y-88426D01*
X-54871Y-88338D01*
X-54912Y-88251D01*
X-54947Y-88163D01*
X-54976Y-88069D01*
X-55017Y-87900D01*
X-55029Y-87818D01*
X-55040Y-87742D01*
X-55046Y-87677D01*
X-55052Y-87619D01*
X-55058Y-87566D01*
Y-87531D01*
Y-87508D01*
Y-87502D01*
X-55052Y-87379D01*
X-55046Y-87262D01*
X-55029Y-87151D01*
X-55005Y-87051D01*
X-54982Y-86958D01*
X-54953Y-86870D01*
X-54918Y-86788D01*
X-54888Y-86718D01*
X-54859Y-86654D01*
X-54824Y-86601D01*
X-54795Y-86554D01*
X-54771Y-86513D01*
X-54748Y-86484D01*
X-54736Y-86461D01*
X-54724Y-86449D01*
X-54719Y-86443D01*
X-54654Y-86373D01*
X-54584Y-86314D01*
X-54514Y-86262D01*
X-54449Y-86221D01*
X-54379Y-86180D01*
X-54309Y-86150D01*
X-54180Y-86104D01*
X-54063Y-86075D01*
X-54017Y-86069D01*
X-53976Y-86063D01*
X-53940Y-86057D01*
X-53894D01*
X-53794Y-86063D01*
D02*
G37*
G36*
X-50518D02*
X-50419Y-86080D01*
X-50331Y-86098D01*
X-50261Y-86121D01*
X-50196Y-86150D01*
X-50150Y-86168D01*
X-50121Y-86186D01*
X-50109Y-86191D01*
X-50027Y-86244D01*
X-49957Y-86297D01*
X-49898Y-86355D01*
X-49845Y-86408D01*
X-49805Y-86455D01*
X-49775Y-86490D01*
X-49758Y-86513D01*
X-49752Y-86525D01*
Y-86115D01*
X-49068D01*
Y-89965D01*
X-49805D01*
Y-88566D01*
X-49881Y-88643D01*
X-49951Y-88707D01*
X-50021Y-88765D01*
X-50080Y-88806D01*
X-50126Y-88841D01*
X-50161Y-88865D01*
X-50191Y-88877D01*
X-50196Y-88882D01*
X-50267Y-88912D01*
X-50343Y-88935D01*
X-50413Y-88947D01*
X-50477Y-88959D01*
X-50530Y-88964D01*
X-50571Y-88970D01*
X-50612D01*
X-50700Y-88964D01*
X-50787Y-88953D01*
X-50869Y-88935D01*
X-50945Y-88912D01*
X-51086Y-88847D01*
X-51209Y-88777D01*
X-51255Y-88742D01*
X-51302Y-88707D01*
X-51343Y-88672D01*
X-51378Y-88643D01*
X-51402Y-88619D01*
X-51419Y-88602D01*
X-51431Y-88590D01*
X-51437Y-88584D01*
X-51495Y-88508D01*
X-51554Y-88426D01*
X-51595Y-88338D01*
X-51636Y-88251D01*
X-51671Y-88163D01*
X-51700Y-88069D01*
X-51741Y-87900D01*
X-51753Y-87818D01*
X-51764Y-87742D01*
X-51770Y-87677D01*
X-51776Y-87619D01*
X-51782Y-87566D01*
Y-87531D01*
Y-87508D01*
Y-87502D01*
X-51776Y-87379D01*
X-51770Y-87262D01*
X-51753Y-87151D01*
X-51729Y-87051D01*
X-51706Y-86958D01*
X-51677Y-86870D01*
X-51641Y-86788D01*
X-51612Y-86718D01*
X-51583Y-86654D01*
X-51548Y-86601D01*
X-51519Y-86554D01*
X-51495Y-86513D01*
X-51472Y-86484D01*
X-51460Y-86461D01*
X-51448Y-86449D01*
X-51443Y-86443D01*
X-51378Y-86373D01*
X-51308Y-86314D01*
X-51238Y-86262D01*
X-51174Y-86221D01*
X-51103Y-86180D01*
X-51033Y-86150D01*
X-50904Y-86104D01*
X-50787Y-86075D01*
X-50741Y-86069D01*
X-50700Y-86063D01*
X-50665Y-86057D01*
X-50618D01*
X-50518Y-86063D01*
D02*
G37*
G36*
X-43416Y-84998D02*
X-43270Y-85016D01*
X-43141Y-85033D01*
X-43030Y-85057D01*
X-42943Y-85086D01*
X-42907Y-85097D01*
X-42878Y-85103D01*
X-42855Y-85115D01*
X-42831Y-85121D01*
X-42825Y-85127D01*
X-42820D01*
X-42709Y-85179D01*
X-42615Y-85244D01*
X-42533Y-85308D01*
X-42469Y-85373D01*
X-42416Y-85431D01*
X-42375Y-85478D01*
X-42352Y-85507D01*
X-42346Y-85513D01*
Y-85519D01*
X-42293Y-85618D01*
X-42252Y-85712D01*
X-42223Y-85805D01*
X-42205Y-85887D01*
X-42194Y-85963D01*
X-42182Y-86016D01*
Y-86039D01*
Y-86057D01*
Y-86063D01*
Y-86069D01*
X-42188Y-86150D01*
X-42200Y-86232D01*
X-42217Y-86308D01*
X-42235Y-86379D01*
X-42293Y-86513D01*
X-42358Y-86624D01*
X-42393Y-86671D01*
X-42422Y-86718D01*
X-42451Y-86753D01*
X-42480Y-86782D01*
X-42498Y-86806D01*
X-42516Y-86823D01*
X-42527Y-86835D01*
X-42533Y-86841D01*
X-42586Y-86882D01*
X-42644Y-86923D01*
X-42773Y-86999D01*
X-42919Y-87063D01*
X-43065Y-87116D01*
X-43194Y-87163D01*
X-43253Y-87180D01*
X-43305Y-87192D01*
X-43346Y-87204D01*
X-43375Y-87215D01*
X-43399Y-87221D01*
X-43405D01*
X-43492Y-87244D01*
X-43569Y-87262D01*
X-43639Y-87279D01*
X-43703Y-87297D01*
X-43762Y-87315D01*
X-43808Y-87326D01*
X-43855Y-87338D01*
X-43890Y-87350D01*
X-43949Y-87367D01*
X-43990Y-87379D01*
X-44013Y-87391D01*
X-44019D01*
X-44089Y-87420D01*
X-44148Y-87449D01*
X-44194Y-87473D01*
X-44235Y-87502D01*
X-44265Y-87525D01*
X-44282Y-87543D01*
X-44294Y-87555D01*
X-44300Y-87560D01*
X-44329Y-87595D01*
X-44346Y-87636D01*
X-44370Y-87707D01*
X-44376Y-87742D01*
X-44382Y-87765D01*
Y-87783D01*
Y-87788D01*
X-44376Y-87865D01*
X-44352Y-87935D01*
X-44323Y-87999D01*
X-44288Y-88052D01*
X-44247Y-88099D01*
X-44218Y-88128D01*
X-44194Y-88151D01*
X-44189Y-88157D01*
X-44113Y-88210D01*
X-44025Y-88251D01*
X-43931Y-88274D01*
X-43838Y-88297D01*
X-43756Y-88309D01*
X-43691Y-88315D01*
X-43627D01*
X-43498Y-88309D01*
X-43387Y-88286D01*
X-43293Y-88257D01*
X-43212Y-88227D01*
X-43147Y-88192D01*
X-43101Y-88169D01*
X-43071Y-88145D01*
X-43060Y-88139D01*
X-42989Y-88064D01*
X-42931Y-87976D01*
X-42884Y-87882D01*
X-42849Y-87794D01*
X-42820Y-87707D01*
X-42802Y-87642D01*
X-42796Y-87613D01*
Y-87595D01*
X-42790Y-87584D01*
Y-87578D01*
X-42036Y-87654D01*
X-42053Y-87771D01*
X-42077Y-87882D01*
X-42106Y-87987D01*
X-42135Y-88081D01*
X-42176Y-88169D01*
X-42211Y-88251D01*
X-42252Y-88321D01*
X-42293Y-88391D01*
X-42334Y-88444D01*
X-42369Y-88496D01*
X-42404Y-88537D01*
X-42434Y-88572D01*
X-42463Y-88602D01*
X-42480Y-88619D01*
X-42492Y-88631D01*
X-42498Y-88637D01*
X-42574Y-88695D01*
X-42662Y-88748D01*
X-42750Y-88789D01*
X-42837Y-88830D01*
X-42931Y-88859D01*
X-43024Y-88888D01*
X-43206Y-88929D01*
X-43293Y-88941D01*
X-43370Y-88953D01*
X-43440Y-88959D01*
X-43498Y-88964D01*
X-43551Y-88970D01*
X-43621D01*
X-43802Y-88964D01*
X-43960Y-88947D01*
X-44101Y-88929D01*
X-44224Y-88900D01*
X-44276Y-88888D01*
X-44323Y-88877D01*
X-44358Y-88865D01*
X-44393Y-88859D01*
X-44417Y-88847D01*
X-44434Y-88841D01*
X-44446Y-88836D01*
X-44452D01*
X-44575Y-88777D01*
X-44674Y-88707D01*
X-44768Y-88637D01*
X-44838Y-88566D01*
X-44896Y-88508D01*
X-44937Y-88455D01*
X-44967Y-88420D01*
X-44973Y-88414D01*
Y-88409D01*
X-45037Y-88297D01*
X-45084Y-88186D01*
X-45113Y-88081D01*
X-45136Y-87987D01*
X-45148Y-87906D01*
X-45160Y-87841D01*
Y-87818D01*
Y-87800D01*
Y-87788D01*
Y-87783D01*
X-45154Y-87654D01*
X-45136Y-87537D01*
X-45107Y-87432D01*
X-45084Y-87344D01*
X-45054Y-87274D01*
X-45025Y-87215D01*
X-45008Y-87186D01*
X-45002Y-87174D01*
X-44937Y-87086D01*
X-44873Y-87005D01*
X-44803Y-86940D01*
X-44733Y-86882D01*
X-44674Y-86841D01*
X-44627Y-86806D01*
X-44592Y-86788D01*
X-44586Y-86782D01*
X-44581D01*
X-44528Y-86753D01*
X-44469Y-86730D01*
X-44335Y-86677D01*
X-44200Y-86636D01*
X-44060Y-86589D01*
X-43937Y-86560D01*
X-43884Y-86542D01*
X-43838Y-86531D01*
X-43797Y-86519D01*
X-43767Y-86513D01*
X-43750Y-86507D01*
X-43744D01*
X-43644Y-86484D01*
X-43551Y-86455D01*
X-43469Y-86431D01*
X-43399Y-86408D01*
X-43329Y-86390D01*
X-43276Y-86367D01*
X-43223Y-86349D01*
X-43182Y-86326D01*
X-43141Y-86308D01*
X-43112Y-86297D01*
X-43065Y-86273D01*
X-43042Y-86256D01*
X-43036Y-86250D01*
X-43001Y-86209D01*
X-42972Y-86174D01*
X-42954Y-86133D01*
X-42937Y-86098D01*
X-42931Y-86063D01*
X-42925Y-86039D01*
Y-86022D01*
Y-86016D01*
X-42931Y-85963D01*
X-42943Y-85917D01*
X-42960Y-85875D01*
X-42983Y-85840D01*
X-43007Y-85811D01*
X-43024Y-85794D01*
X-43036Y-85782D01*
X-43042Y-85776D01*
X-43118Y-85729D01*
X-43206Y-85694D01*
X-43293Y-85671D01*
X-43375Y-85653D01*
X-43451Y-85641D01*
X-43516Y-85636D01*
X-43569D01*
X-43685Y-85641D01*
X-43785Y-85659D01*
X-43867Y-85677D01*
X-43937Y-85700D01*
X-43990Y-85729D01*
X-44025Y-85747D01*
X-44048Y-85764D01*
X-44054Y-85770D01*
X-44113Y-85823D01*
X-44159Y-85887D01*
X-44194Y-85957D01*
X-44224Y-86028D01*
X-44247Y-86092D01*
X-44259Y-86145D01*
X-44271Y-86180D01*
Y-86186D01*
Y-86191D01*
X-45048Y-86162D01*
X-45043Y-86069D01*
X-45025Y-85975D01*
X-45002Y-85887D01*
X-44978Y-85805D01*
X-44914Y-85665D01*
X-44885Y-85601D01*
X-44850Y-85542D01*
X-44815Y-85489D01*
X-44779Y-85443D01*
X-44750Y-85402D01*
X-44721Y-85373D01*
X-44697Y-85349D01*
X-44680Y-85331D01*
X-44668Y-85320D01*
X-44662Y-85314D01*
X-44592Y-85255D01*
X-44510Y-85209D01*
X-44428Y-85162D01*
X-44341Y-85127D01*
X-44159Y-85068D01*
X-43984Y-85033D01*
X-43902Y-85022D01*
X-43826Y-85010D01*
X-43756Y-85004D01*
X-43691Y-84998D01*
X-43644Y-84992D01*
X-43574D01*
X-43416Y-84998D01*
D02*
G37*
G36*
X-42270Y-81900D02*
X-43007D01*
Y-80508D01*
X-43013Y-80385D01*
X-43019Y-80279D01*
X-43030Y-80186D01*
X-43042Y-80110D01*
X-43054Y-80057D01*
X-43060Y-80016D01*
X-43071Y-79987D01*
Y-79981D01*
X-43101Y-79917D01*
X-43130Y-79864D01*
X-43165Y-79817D01*
X-43200Y-79776D01*
X-43229Y-79747D01*
X-43253Y-79730D01*
X-43270Y-79718D01*
X-43276Y-79712D01*
X-43334Y-79683D01*
X-43387Y-79659D01*
X-43446Y-79642D01*
X-43492Y-79630D01*
X-43539Y-79624D01*
X-43574Y-79619D01*
X-43662D01*
X-43709Y-79630D01*
X-43756Y-79642D01*
X-43797Y-79654D01*
X-43826Y-79665D01*
X-43849Y-79677D01*
X-43861Y-79683D01*
X-43867Y-79689D01*
X-43902Y-79718D01*
X-43937Y-79747D01*
X-43978Y-79812D01*
X-43995Y-79841D01*
X-44007Y-79858D01*
X-44013Y-79876D01*
Y-79882D01*
X-44019Y-79905D01*
X-44031Y-79940D01*
X-44042Y-80016D01*
X-44048Y-80104D01*
X-44054Y-80198D01*
X-44060Y-80285D01*
Y-80361D01*
Y-80391D01*
Y-80414D01*
Y-80426D01*
Y-80432D01*
Y-81900D01*
X-44797D01*
Y-80274D01*
Y-80145D01*
X-44791Y-80028D01*
X-44785Y-79934D01*
X-44779Y-79858D01*
X-44768Y-79800D01*
X-44762Y-79759D01*
X-44756Y-79730D01*
Y-79724D01*
X-44739Y-79659D01*
X-44721Y-79595D01*
X-44697Y-79542D01*
X-44674Y-79490D01*
X-44651Y-79455D01*
X-44633Y-79420D01*
X-44622Y-79402D01*
X-44616Y-79396D01*
X-44575Y-79344D01*
X-44522Y-79297D01*
X-44469Y-79256D01*
X-44423Y-79221D01*
X-44376Y-79191D01*
X-44341Y-79174D01*
X-44317Y-79162D01*
X-44306Y-79156D01*
X-44230Y-79121D01*
X-44153Y-79098D01*
X-44072Y-79080D01*
X-44001Y-79069D01*
X-43943Y-79063D01*
X-43890Y-79057D01*
X-43849D01*
X-43762Y-79063D01*
X-43674Y-79075D01*
X-43592Y-79098D01*
X-43510Y-79121D01*
X-43370Y-79191D01*
X-43247Y-79268D01*
X-43188Y-79308D01*
X-43141Y-79344D01*
X-43106Y-79379D01*
X-43071Y-79414D01*
X-43042Y-79437D01*
X-43024Y-79461D01*
X-43013Y-79472D01*
X-43007Y-79478D01*
Y-78057D01*
X-42270D01*
Y-81900D01*
D02*
G37*
G36*
X-65155Y-80116D02*
X-65746Y-80198D01*
X-65793Y-80151D01*
X-65845Y-80104D01*
X-65939Y-80034D01*
X-66038Y-79987D01*
X-66126Y-79952D01*
X-66202Y-79928D01*
X-66267Y-79923D01*
X-66290Y-79917D01*
X-66319D01*
X-66407Y-79923D01*
X-66489Y-79946D01*
X-66559Y-79975D01*
X-66618Y-80005D01*
X-66664Y-80040D01*
X-66699Y-80069D01*
X-66723Y-80092D01*
X-66729Y-80098D01*
X-66781Y-80168D01*
X-66822Y-80256D01*
X-66852Y-80344D01*
X-66875Y-80432D01*
X-66887Y-80508D01*
X-66892Y-80572D01*
Y-80595D01*
Y-80613D01*
Y-80625D01*
Y-80631D01*
X-66887Y-80759D01*
X-66869Y-80876D01*
X-66840Y-80970D01*
X-66811Y-81052D01*
X-66781Y-81110D01*
X-66752Y-81157D01*
X-66734Y-81180D01*
X-66729Y-81192D01*
X-66664Y-81257D01*
X-66600Y-81297D01*
X-66536Y-81333D01*
X-66471Y-81356D01*
X-66419Y-81368D01*
X-66378Y-81374D01*
X-66348Y-81379D01*
X-66337D01*
X-66267Y-81374D01*
X-66196Y-81356D01*
X-66138Y-81333D01*
X-66085Y-81309D01*
X-66038Y-81286D01*
X-66009Y-81262D01*
X-65986Y-81245D01*
X-65980Y-81239D01*
X-65927Y-81180D01*
X-65886Y-81116D01*
X-65857Y-81046D01*
X-65834Y-80987D01*
X-65816Y-80929D01*
X-65804Y-80882D01*
X-65798Y-80853D01*
Y-80841D01*
X-65067Y-80917D01*
X-65085Y-81005D01*
X-65102Y-81087D01*
X-65155Y-81245D01*
X-65219Y-81374D01*
X-65289Y-81485D01*
X-65325Y-81531D01*
X-65354Y-81572D01*
X-65383Y-81608D01*
X-65412Y-81637D01*
X-65436Y-81660D01*
X-65453Y-81678D01*
X-65459Y-81684D01*
X-65465Y-81689D01*
X-65529Y-81736D01*
X-65600Y-81783D01*
X-65740Y-81853D01*
X-65886Y-81900D01*
X-66021Y-81935D01*
X-66085Y-81947D01*
X-66144Y-81953D01*
X-66196Y-81964D01*
X-66243D01*
X-66278Y-81970D01*
X-66331D01*
X-66454Y-81964D01*
X-66565Y-81947D01*
X-66676Y-81923D01*
X-66775Y-81894D01*
X-66869Y-81853D01*
X-66951Y-81812D01*
X-67033Y-81765D01*
X-67103Y-81719D01*
X-67162Y-81672D01*
X-67220Y-81625D01*
X-67267Y-81584D01*
X-67302Y-81543D01*
X-67331Y-81514D01*
X-67355Y-81490D01*
X-67366Y-81473D01*
X-67372Y-81467D01*
X-67419Y-81397D01*
X-67466Y-81321D01*
X-67530Y-81175D01*
X-67583Y-81034D01*
X-67612Y-80900D01*
X-67624Y-80841D01*
X-67635Y-80788D01*
X-67641Y-80742D01*
Y-80701D01*
X-67647Y-80666D01*
Y-80642D01*
Y-80625D01*
Y-80619D01*
X-67641Y-80514D01*
X-67629Y-80414D01*
X-67618Y-80321D01*
X-67594Y-80233D01*
X-67565Y-80151D01*
X-67536Y-80075D01*
X-67507Y-80005D01*
X-67477Y-79940D01*
X-67442Y-79882D01*
X-67413Y-79829D01*
X-67384Y-79788D01*
X-67355Y-79753D01*
X-67331Y-79724D01*
X-67320Y-79706D01*
X-67308Y-79695D01*
X-67302Y-79689D01*
X-67238Y-79624D01*
X-67167Y-79572D01*
X-67097Y-79525D01*
X-67027Y-79484D01*
X-66957Y-79449D01*
X-66892Y-79420D01*
X-66758Y-79379D01*
X-66699Y-79361D01*
X-66647Y-79349D01*
X-66594Y-79344D01*
X-66553Y-79338D01*
X-66518Y-79332D01*
X-66471D01*
X-66378Y-79338D01*
X-66284Y-79349D01*
X-66196Y-79373D01*
X-66126Y-79390D01*
X-66062Y-79414D01*
X-66009Y-79437D01*
X-65980Y-79449D01*
X-65968Y-79455D01*
X-66085Y-78805D01*
X-67477D01*
Y-78115D01*
X-65529D01*
X-65155Y-80116D01*
D02*
G37*
G36*
X-45552Y-78735D02*
X-46289D01*
Y-78057D01*
X-45552D01*
Y-78735D01*
D02*
G37*
G36*
X-75855Y-85051D02*
X-75744Y-85062D01*
X-75644Y-85086D01*
X-75545Y-85115D01*
X-75457Y-85156D01*
X-75375Y-85191D01*
X-75299Y-85238D01*
X-75229Y-85279D01*
X-75164Y-85320D01*
X-75112Y-85367D01*
X-75065Y-85402D01*
X-75024Y-85437D01*
X-74995Y-85472D01*
X-74971Y-85495D01*
X-74960Y-85507D01*
X-74954Y-85513D01*
X-74884Y-85606D01*
X-74825Y-85712D01*
X-74772Y-85829D01*
X-74731Y-85946D01*
X-74691Y-86075D01*
X-74661Y-86203D01*
X-74614Y-86449D01*
X-74603Y-86572D01*
X-74591Y-86677D01*
X-74579Y-86782D01*
X-74573Y-86864D01*
X-74568Y-86940D01*
Y-86993D01*
Y-87028D01*
Y-87034D01*
Y-87040D01*
X-74573Y-87227D01*
X-74585Y-87397D01*
X-74603Y-87560D01*
X-74626Y-87707D01*
X-74655Y-87841D01*
X-74685Y-87958D01*
X-74720Y-88069D01*
X-74755Y-88163D01*
X-74784Y-88251D01*
X-74819Y-88321D01*
X-74848Y-88385D01*
X-74878Y-88432D01*
X-74901Y-88473D01*
X-74919Y-88496D01*
X-74930Y-88514D01*
X-74936Y-88520D01*
X-75006Y-88602D01*
X-75082Y-88666D01*
X-75164Y-88730D01*
X-75246Y-88777D01*
X-75322Y-88824D01*
X-75404Y-88859D01*
X-75480Y-88888D01*
X-75556Y-88912D01*
X-75626Y-88935D01*
X-75691Y-88947D01*
X-75749Y-88959D01*
X-75796Y-88964D01*
X-75837D01*
X-75872Y-88970D01*
X-75896D01*
X-75995Y-88964D01*
X-76089Y-88953D01*
X-76176Y-88935D01*
X-76258Y-88918D01*
X-76340Y-88888D01*
X-76410Y-88859D01*
X-76481Y-88830D01*
X-76539Y-88795D01*
X-76592Y-88760D01*
X-76644Y-88730D01*
X-76685Y-88701D01*
X-76715Y-88672D01*
X-76744Y-88654D01*
X-76761Y-88637D01*
X-76773Y-88625D01*
X-76779Y-88619D01*
X-76843Y-88549D01*
X-76896Y-88473D01*
X-76943Y-88397D01*
X-76984Y-88321D01*
X-77019Y-88239D01*
X-77042Y-88163D01*
X-77089Y-88011D01*
X-77101Y-87941D01*
X-77112Y-87876D01*
X-77118Y-87818D01*
X-77124Y-87771D01*
X-77130Y-87730D01*
Y-87695D01*
Y-87677D01*
Y-87672D01*
X-77124Y-87572D01*
X-77118Y-87473D01*
X-77101Y-87379D01*
X-77077Y-87297D01*
X-77054Y-87215D01*
X-77025Y-87139D01*
X-76995Y-87069D01*
X-76966Y-87011D01*
X-76931Y-86952D01*
X-76902Y-86905D01*
X-76872Y-86864D01*
X-76849Y-86829D01*
X-76826Y-86800D01*
X-76808Y-86782D01*
X-76802Y-86771D01*
X-76797Y-86765D01*
X-76732Y-86700D01*
X-76668Y-86648D01*
X-76603Y-86601D01*
X-76533Y-86560D01*
X-76469Y-86525D01*
X-76405Y-86496D01*
X-76282Y-86455D01*
X-76176Y-86426D01*
X-76130Y-86420D01*
X-76089Y-86414D01*
X-76059Y-86408D01*
X-76013D01*
X-75937Y-86414D01*
X-75866Y-86420D01*
X-75732Y-86461D01*
X-75615Y-86513D01*
X-75515Y-86572D01*
X-75439Y-86630D01*
X-75375Y-86683D01*
X-75357Y-86706D01*
X-75340Y-86724D01*
X-75334Y-86730D01*
X-75328Y-86735D01*
X-75340Y-86619D01*
X-75352Y-86507D01*
X-75363Y-86408D01*
X-75375Y-86320D01*
X-75393Y-86238D01*
X-75410Y-86168D01*
X-75428Y-86104D01*
X-75445Y-86051D01*
X-75457Y-86004D01*
X-75474Y-85963D01*
X-75492Y-85934D01*
X-75504Y-85905D01*
X-75510Y-85887D01*
X-75521Y-85875D01*
X-75527Y-85864D01*
X-75591Y-85794D01*
X-75656Y-85741D01*
X-75726Y-85706D01*
X-75790Y-85677D01*
X-75843Y-85665D01*
X-75884Y-85659D01*
X-75913Y-85653D01*
X-75925D01*
X-75989Y-85659D01*
X-76042Y-85671D01*
X-76089Y-85688D01*
X-76130Y-85706D01*
X-76165Y-85724D01*
X-76188Y-85741D01*
X-76200Y-85753D01*
X-76206Y-85759D01*
X-76247Y-85799D01*
X-76276Y-85852D01*
X-76299Y-85905D01*
X-76317Y-85957D01*
X-76328Y-86004D01*
X-76340Y-86045D01*
X-76346Y-86069D01*
Y-86080D01*
X-77060Y-86004D01*
X-77019Y-85840D01*
X-76966Y-85694D01*
X-76908Y-85571D01*
X-76843Y-85472D01*
X-76785Y-85390D01*
X-76738Y-85337D01*
X-76703Y-85302D01*
X-76697Y-85290D01*
X-76691D01*
X-76580Y-85209D01*
X-76457Y-85150D01*
X-76334Y-85103D01*
X-76223Y-85074D01*
X-76118Y-85057D01*
X-76077Y-85051D01*
X-76042D01*
X-76007Y-85045D01*
X-75966D01*
X-75855Y-85051D01*
D02*
G37*
G36*
X-53332Y-78706D02*
X-54461D01*
Y-81900D01*
X-55239D01*
Y-78706D01*
X-56368D01*
Y-78057D01*
X-53332D01*
Y-78706D01*
D02*
G37*
G36*
X-62130Y-95900D02*
X-62850D01*
Y-92875D01*
X-63611Y-95900D01*
X-64354D01*
X-65114Y-92875D01*
X-65120Y-95900D01*
X-65839D01*
Y-92057D01*
X-64669D01*
X-63985Y-94683D01*
X-63289Y-92057D01*
X-62130D01*
Y-95900D01*
D02*
G37*
G36*
X-78668Y-78706D02*
X-79798D01*
Y-81900D01*
X-80576D01*
Y-78706D01*
X-81705D01*
Y-78057D01*
X-78668D01*
Y-78706D01*
D02*
G37*
G36*
X-45552Y-81900D02*
X-46289D01*
Y-79115D01*
X-45552D01*
Y-81900D01*
D02*
G37*
G36*
X-53250Y-93063D02*
X-53151Y-93075D01*
X-53063Y-93092D01*
X-52975Y-93121D01*
X-52893Y-93151D01*
X-52817Y-93180D01*
X-52753Y-93221D01*
X-52689Y-93256D01*
X-52630Y-93291D01*
X-52583Y-93326D01*
X-52536Y-93361D01*
X-52501Y-93390D01*
X-52472Y-93420D01*
X-52455Y-93437D01*
X-52443Y-93449D01*
X-52437Y-93455D01*
X-52373Y-93531D01*
X-52320Y-93613D01*
X-52273Y-93700D01*
X-52232Y-93788D01*
X-52197Y-93882D01*
X-52168Y-93970D01*
X-52127Y-94145D01*
X-52109Y-94221D01*
X-52098Y-94297D01*
X-52092Y-94367D01*
X-52086Y-94420D01*
X-52080Y-94473D01*
Y-94508D01*
Y-94531D01*
Y-94537D01*
X-52086Y-94642D01*
X-52092Y-94742D01*
X-52121Y-94929D01*
X-52145Y-95017D01*
X-52168Y-95093D01*
X-52191Y-95169D01*
X-52215Y-95233D01*
X-52238Y-95292D01*
X-52262Y-95344D01*
X-52285Y-95391D01*
X-52308Y-95426D01*
X-52326Y-95455D01*
X-52338Y-95479D01*
X-52349Y-95490D01*
Y-95496D01*
X-52420Y-95578D01*
X-52496Y-95654D01*
X-52578Y-95719D01*
X-52665Y-95771D01*
X-52753Y-95818D01*
X-52847Y-95853D01*
X-52934Y-95888D01*
X-53022Y-95912D01*
X-53104Y-95929D01*
X-53180Y-95947D01*
X-53244Y-95953D01*
X-53309Y-95964D01*
X-53355D01*
X-53396Y-95970D01*
X-53426D01*
X-53589Y-95959D01*
X-53736Y-95935D01*
X-53865Y-95906D01*
X-53976Y-95865D01*
X-54063Y-95824D01*
X-54104Y-95806D01*
X-54134Y-95795D01*
X-54157Y-95777D01*
X-54175Y-95771D01*
X-54180Y-95760D01*
X-54186D01*
X-54291Y-95672D01*
X-54385Y-95572D01*
X-54461Y-95473D01*
X-54526Y-95373D01*
X-54572Y-95286D01*
X-54596Y-95245D01*
X-54607Y-95210D01*
X-54619Y-95186D01*
X-54631Y-95163D01*
X-54637Y-95151D01*
Y-95145D01*
X-53905Y-95022D01*
X-53882Y-95099D01*
X-53853Y-95157D01*
X-53818Y-95210D01*
X-53788Y-95251D01*
X-53765Y-95286D01*
X-53742Y-95309D01*
X-53730Y-95321D01*
X-53724Y-95327D01*
X-53677Y-95356D01*
X-53631Y-95379D01*
X-53578Y-95397D01*
X-53537Y-95409D01*
X-53496Y-95414D01*
X-53461Y-95420D01*
X-53432D01*
X-53344Y-95414D01*
X-53262Y-95391D01*
X-53186Y-95362D01*
X-53127Y-95327D01*
X-53075Y-95297D01*
X-53040Y-95268D01*
X-53016Y-95245D01*
X-53010Y-95239D01*
X-52952Y-95163D01*
X-52911Y-95081D01*
X-52882Y-94999D01*
X-52858Y-94911D01*
X-52847Y-94841D01*
X-52841Y-94777D01*
X-52835Y-94753D01*
Y-94736D01*
Y-94730D01*
Y-94724D01*
X-54678D01*
Y-94572D01*
X-54666Y-94426D01*
X-54648Y-94297D01*
X-54631Y-94174D01*
X-54602Y-94063D01*
X-54572Y-93958D01*
X-54543Y-93864D01*
X-54508Y-93782D01*
X-54479Y-93706D01*
X-54444Y-93648D01*
X-54414Y-93595D01*
X-54391Y-93548D01*
X-54368Y-93513D01*
X-54350Y-93490D01*
X-54338Y-93478D01*
X-54333Y-93472D01*
X-54262Y-93396D01*
X-54186Y-93338D01*
X-54110Y-93279D01*
X-54028Y-93232D01*
X-53946Y-93191D01*
X-53865Y-93156D01*
X-53783Y-93133D01*
X-53707Y-93110D01*
X-53636Y-93092D01*
X-53566Y-93080D01*
X-53508Y-93069D01*
X-53455Y-93063D01*
X-53408Y-93057D01*
X-53350D01*
X-53250Y-93063D01*
D02*
G37*
G36*
X-50460Y-81900D02*
X-51197D01*
Y-81163D01*
X-50460D01*
Y-81900D01*
D02*
G37*
G36*
X-81822D02*
X-82641D01*
X-82956Y-81028D01*
X-84507D01*
X-84834Y-81900D01*
X-85677D01*
X-84132Y-78057D01*
X-83313D01*
X-81822Y-81900D01*
D02*
G37*
G36*
X-48471Y-79063D02*
X-48371Y-79080D01*
X-48284Y-79098D01*
X-48213Y-79121D01*
X-48149Y-79150D01*
X-48102Y-79168D01*
X-48073Y-79186D01*
X-48061Y-79191D01*
X-47979Y-79244D01*
X-47909Y-79297D01*
X-47851Y-79355D01*
X-47798Y-79408D01*
X-47757Y-79455D01*
X-47728Y-79490D01*
X-47710Y-79513D01*
X-47704Y-79525D01*
Y-79115D01*
X-47020D01*
Y-82965D01*
X-47757D01*
Y-81567D01*
X-47833Y-81643D01*
X-47903Y-81707D01*
X-47973Y-81765D01*
X-48032Y-81806D01*
X-48079Y-81841D01*
X-48114Y-81865D01*
X-48143Y-81877D01*
X-48149Y-81882D01*
X-48219Y-81912D01*
X-48295Y-81935D01*
X-48366Y-81947D01*
X-48430Y-81959D01*
X-48482Y-81964D01*
X-48523Y-81970D01*
X-48564D01*
X-48652Y-81964D01*
X-48740Y-81953D01*
X-48822Y-81935D01*
X-48898Y-81912D01*
X-49038Y-81847D01*
X-49161Y-81777D01*
X-49208Y-81742D01*
X-49255Y-81707D01*
X-49296Y-81672D01*
X-49331Y-81643D01*
X-49354Y-81619D01*
X-49372Y-81602D01*
X-49383Y-81590D01*
X-49389Y-81584D01*
X-49448Y-81508D01*
X-49506Y-81426D01*
X-49547Y-81338D01*
X-49588Y-81251D01*
X-49623Y-81163D01*
X-49652Y-81069D01*
X-49693Y-80900D01*
X-49705Y-80818D01*
X-49717Y-80742D01*
X-49723Y-80677D01*
X-49729Y-80619D01*
X-49734Y-80566D01*
Y-80531D01*
Y-80508D01*
Y-80502D01*
X-49729Y-80379D01*
X-49723Y-80262D01*
X-49705Y-80151D01*
X-49682Y-80051D01*
X-49658Y-79958D01*
X-49629Y-79870D01*
X-49594Y-79788D01*
X-49565Y-79718D01*
X-49536Y-79654D01*
X-49500Y-79601D01*
X-49471Y-79554D01*
X-49448Y-79513D01*
X-49424Y-79484D01*
X-49413Y-79461D01*
X-49401Y-79449D01*
X-49395Y-79443D01*
X-49331Y-79373D01*
X-49261Y-79314D01*
X-49190Y-79262D01*
X-49126Y-79221D01*
X-49056Y-79180D01*
X-48986Y-79150D01*
X-48857Y-79104D01*
X-48740Y-79075D01*
X-48693Y-79069D01*
X-48652Y-79063D01*
X-48617Y-79057D01*
X-48570D01*
X-48471Y-79063D01*
D02*
G37*
G36*
X-43048Y-95900D02*
X-43785D01*
Y-94508D01*
X-43791Y-94385D01*
X-43797Y-94279D01*
X-43808Y-94186D01*
X-43820Y-94110D01*
X-43832Y-94057D01*
X-43838Y-94016D01*
X-43849Y-93987D01*
Y-93981D01*
X-43878Y-93917D01*
X-43908Y-93864D01*
X-43943Y-93817D01*
X-43978Y-93776D01*
X-44007Y-93747D01*
X-44031Y-93730D01*
X-44048Y-93718D01*
X-44054Y-93712D01*
X-44113Y-93683D01*
X-44165Y-93660D01*
X-44224Y-93642D01*
X-44271Y-93630D01*
X-44317Y-93624D01*
X-44352Y-93619D01*
X-44440D01*
X-44487Y-93630D01*
X-44534Y-93642D01*
X-44575Y-93654D01*
X-44604Y-93665D01*
X-44627Y-93677D01*
X-44639Y-93683D01*
X-44645Y-93689D01*
X-44680Y-93718D01*
X-44715Y-93747D01*
X-44756Y-93812D01*
X-44774Y-93841D01*
X-44785Y-93858D01*
X-44791Y-93876D01*
Y-93882D01*
X-44797Y-93905D01*
X-44809Y-93940D01*
X-44820Y-94016D01*
X-44826Y-94104D01*
X-44832Y-94198D01*
X-44838Y-94285D01*
Y-94362D01*
Y-94391D01*
Y-94414D01*
Y-94426D01*
Y-94432D01*
Y-95900D01*
X-45575D01*
Y-94274D01*
Y-94145D01*
X-45569Y-94028D01*
X-45563Y-93934D01*
X-45557Y-93858D01*
X-45546Y-93800D01*
X-45540Y-93759D01*
X-45534Y-93730D01*
Y-93724D01*
X-45516Y-93660D01*
X-45499Y-93595D01*
X-45476Y-93542D01*
X-45452Y-93490D01*
X-45429Y-93455D01*
X-45411Y-93420D01*
X-45399Y-93402D01*
X-45394Y-93396D01*
X-45353Y-93344D01*
X-45300Y-93297D01*
X-45247Y-93256D01*
X-45201Y-93221D01*
X-45154Y-93191D01*
X-45119Y-93174D01*
X-45095Y-93162D01*
X-45084Y-93156D01*
X-45008Y-93121D01*
X-44932Y-93098D01*
X-44850Y-93080D01*
X-44779Y-93069D01*
X-44721Y-93063D01*
X-44668Y-93057D01*
X-44627D01*
X-44540Y-93063D01*
X-44452Y-93075D01*
X-44370Y-93098D01*
X-44288Y-93121D01*
X-44148Y-93191D01*
X-44025Y-93268D01*
X-43966Y-93309D01*
X-43920Y-93344D01*
X-43884Y-93379D01*
X-43849Y-93414D01*
X-43820Y-93437D01*
X-43802Y-93461D01*
X-43791Y-93472D01*
X-43785Y-93478D01*
Y-92057D01*
X-43048D01*
Y-95900D01*
D02*
G37*
G36*
X-74380Y-92057D02*
X-74217Y-92086D01*
X-74070Y-92133D01*
X-74006Y-92156D01*
X-73948Y-92179D01*
X-73889Y-92203D01*
X-73842Y-92226D01*
X-73801Y-92250D01*
X-73772Y-92273D01*
X-73743Y-92291D01*
X-73725Y-92302D01*
X-73713Y-92308D01*
X-73708Y-92314D01*
X-73649Y-92367D01*
X-73591Y-92425D01*
X-73544Y-92489D01*
X-73497Y-92560D01*
X-73427Y-92706D01*
X-73374Y-92846D01*
X-73351Y-92917D01*
X-73339Y-92981D01*
X-73322Y-93033D01*
X-73316Y-93086D01*
X-73304Y-93127D01*
Y-93156D01*
X-73298Y-93180D01*
Y-93186D01*
X-74029Y-93256D01*
X-74041Y-93145D01*
X-74059Y-93045D01*
X-74088Y-92969D01*
X-74111Y-92905D01*
X-74141Y-92852D01*
X-74158Y-92823D01*
X-74176Y-92800D01*
X-74181Y-92794D01*
X-74240Y-92747D01*
X-74299Y-92712D01*
X-74363Y-92688D01*
X-74421Y-92671D01*
X-74468Y-92659D01*
X-74515Y-92653D01*
X-74550D01*
X-74632Y-92659D01*
X-74708Y-92677D01*
X-74772Y-92694D01*
X-74825Y-92718D01*
X-74866Y-92747D01*
X-74895Y-92764D01*
X-74913Y-92782D01*
X-74919Y-92788D01*
X-74965Y-92840D01*
X-74995Y-92905D01*
X-75018Y-92969D01*
X-75036Y-93028D01*
X-75047Y-93080D01*
X-75053Y-93127D01*
Y-93156D01*
Y-93168D01*
X-75047Y-93250D01*
X-75030Y-93332D01*
X-75006Y-93408D01*
X-74977Y-93478D01*
X-74948Y-93537D01*
X-74924Y-93577D01*
X-74907Y-93607D01*
X-74901Y-93619D01*
X-74878Y-93654D01*
X-74843Y-93695D01*
X-74802Y-93735D01*
X-74755Y-93782D01*
X-74655Y-93888D01*
X-74550Y-93993D01*
X-74451Y-94086D01*
X-74404Y-94133D01*
X-74369Y-94168D01*
X-74334Y-94198D01*
X-74310Y-94227D01*
X-74293Y-94239D01*
X-74287Y-94244D01*
X-74176Y-94350D01*
X-74070Y-94449D01*
X-73983Y-94543D01*
X-73895Y-94631D01*
X-73819Y-94713D01*
X-73755Y-94788D01*
X-73690Y-94859D01*
X-73637Y-94923D01*
X-73597Y-94976D01*
X-73556Y-95028D01*
X-73526Y-95069D01*
X-73497Y-95104D01*
X-73479Y-95134D01*
X-73468Y-95151D01*
X-73456Y-95163D01*
Y-95169D01*
X-73386Y-95297D01*
X-73333Y-95426D01*
X-73286Y-95549D01*
X-73257Y-95666D01*
X-73234Y-95760D01*
X-73228Y-95801D01*
X-73222Y-95836D01*
X-73216Y-95859D01*
X-73210Y-95882D01*
Y-95894D01*
Y-95900D01*
X-75790D01*
Y-95215D01*
X-74322D01*
X-74369Y-95139D01*
X-74421Y-95081D01*
X-74439Y-95052D01*
X-74457Y-95034D01*
X-74468Y-95022D01*
X-74474Y-95017D01*
X-74497Y-94993D01*
X-74521Y-94970D01*
X-74585Y-94906D01*
X-74655Y-94835D01*
X-74731Y-94765D01*
X-74802Y-94695D01*
X-74860Y-94642D01*
X-74878Y-94619D01*
X-74895Y-94601D01*
X-74907Y-94595D01*
X-74913Y-94590D01*
X-75036Y-94478D01*
X-75135Y-94379D01*
X-75223Y-94291D01*
X-75287Y-94221D01*
X-75340Y-94168D01*
X-75375Y-94127D01*
X-75393Y-94104D01*
X-75398Y-94098D01*
X-75468Y-94005D01*
X-75533Y-93917D01*
X-75586Y-93835D01*
X-75626Y-93759D01*
X-75656Y-93700D01*
X-75679Y-93654D01*
X-75691Y-93624D01*
X-75697Y-93613D01*
X-75726Y-93525D01*
X-75749Y-93431D01*
X-75767Y-93349D01*
X-75779Y-93273D01*
X-75784Y-93209D01*
X-75790Y-93156D01*
Y-93127D01*
Y-93115D01*
X-75784Y-93033D01*
X-75779Y-92952D01*
X-75738Y-92805D01*
X-75685Y-92677D01*
X-75626Y-92566D01*
X-75568Y-92478D01*
X-75539Y-92437D01*
X-75515Y-92408D01*
X-75492Y-92384D01*
X-75474Y-92367D01*
X-75468Y-92361D01*
X-75463Y-92355D01*
X-75398Y-92302D01*
X-75334Y-92250D01*
X-75258Y-92209D01*
X-75188Y-92174D01*
X-75036Y-92121D01*
X-74895Y-92086D01*
X-74825Y-92068D01*
X-74766Y-92062D01*
X-74708Y-92057D01*
X-74661Y-92051D01*
X-74620Y-92045D01*
X-74474D01*
X-74380Y-92057D01*
D02*
G37*
G36*
X-47225Y-93063D02*
X-47137Y-93075D01*
X-47061Y-93086D01*
X-46985Y-93104D01*
X-46920Y-93121D01*
X-46856Y-93139D01*
X-46804Y-93156D01*
X-46757Y-93174D01*
X-46716Y-93191D01*
X-46681Y-93209D01*
X-46651Y-93226D01*
X-46628Y-93238D01*
X-46611Y-93250D01*
X-46605Y-93256D01*
X-46599D01*
X-46505Y-93338D01*
X-46423Y-93431D01*
X-46353Y-93525D01*
X-46300Y-93624D01*
X-46265Y-93712D01*
X-46236Y-93782D01*
X-46224Y-93806D01*
X-46218Y-93829D01*
X-46213Y-93841D01*
Y-93847D01*
X-46874Y-93970D01*
X-46897Y-93905D01*
X-46926Y-93847D01*
X-46956Y-93800D01*
X-46985Y-93765D01*
X-47008Y-93735D01*
X-47032Y-93718D01*
X-47043Y-93706D01*
X-47049Y-93700D01*
X-47096Y-93671D01*
X-47143Y-93654D01*
X-47248Y-93630D01*
X-47289Y-93624D01*
X-47324Y-93619D01*
X-47359D01*
X-47459Y-93624D01*
X-47546Y-93630D01*
X-47617Y-93648D01*
X-47669Y-93665D01*
X-47710Y-93683D01*
X-47734Y-93695D01*
X-47751Y-93706D01*
X-47757Y-93712D01*
X-47792Y-93753D01*
X-47816Y-93800D01*
X-47839Y-93847D01*
X-47851Y-93899D01*
X-47857Y-93946D01*
X-47862Y-93981D01*
Y-94005D01*
Y-94016D01*
Y-94086D01*
X-47821Y-94104D01*
X-47775Y-94122D01*
X-47664Y-94151D01*
X-47546Y-94180D01*
X-47429Y-94209D01*
X-47318Y-94233D01*
X-47271Y-94244D01*
X-47225Y-94250D01*
X-47190Y-94256D01*
X-47166Y-94262D01*
X-47149Y-94268D01*
X-47143D01*
X-47008Y-94297D01*
X-46891Y-94326D01*
X-46792Y-94356D01*
X-46710Y-94385D01*
X-46646Y-94408D01*
X-46599Y-94426D01*
X-46569Y-94437D01*
X-46558Y-94443D01*
X-46488Y-94484D01*
X-46423Y-94531D01*
X-46371Y-94578D01*
X-46330Y-94625D01*
X-46295Y-94666D01*
X-46271Y-94701D01*
X-46254Y-94724D01*
X-46248Y-94730D01*
X-46213Y-94800D01*
X-46183Y-94870D01*
X-46166Y-94941D01*
X-46148Y-95005D01*
X-46143Y-95064D01*
X-46137Y-95104D01*
Y-95134D01*
Y-95145D01*
X-46148Y-95274D01*
X-46178Y-95391D01*
X-46213Y-95490D01*
X-46259Y-95578D01*
X-46306Y-95648D01*
X-46341Y-95701D01*
X-46371Y-95730D01*
X-46382Y-95742D01*
X-46482Y-95818D01*
X-46593Y-95877D01*
X-46704Y-95912D01*
X-46815Y-95941D01*
X-46909Y-95959D01*
X-46956Y-95964D01*
X-46991D01*
X-47020Y-95970D01*
X-47061D01*
X-47149Y-95964D01*
X-47236Y-95959D01*
X-47313Y-95941D01*
X-47377Y-95923D01*
X-47435Y-95912D01*
X-47482Y-95894D01*
X-47506Y-95888D01*
X-47517Y-95882D01*
X-47599Y-95841D01*
X-47669Y-95801D01*
X-47739Y-95754D01*
X-47798Y-95707D01*
X-47851Y-95666D01*
X-47886Y-95631D01*
X-47915Y-95608D01*
X-47921Y-95602D01*
X-47927Y-95625D01*
X-47933Y-95654D01*
X-47944Y-95678D01*
Y-95684D01*
Y-95689D01*
X-47962Y-95736D01*
X-47973Y-95783D01*
X-47991Y-95818D01*
X-48003Y-95847D01*
X-48009Y-95871D01*
X-48015Y-95888D01*
X-48020Y-95894D01*
Y-95900D01*
X-48746D01*
X-48711Y-95824D01*
X-48681Y-95760D01*
X-48658Y-95695D01*
X-48640Y-95643D01*
X-48629Y-95596D01*
X-48617Y-95561D01*
X-48611Y-95537D01*
Y-95531D01*
X-48599Y-95455D01*
X-48594Y-95373D01*
X-48582Y-95280D01*
Y-95192D01*
X-48576Y-95110D01*
Y-95046D01*
Y-95022D01*
Y-95005D01*
Y-94993D01*
Y-94987D01*
X-48588Y-94133D01*
Y-94046D01*
X-48582Y-93970D01*
X-48576Y-93893D01*
X-48570Y-93829D01*
X-48564Y-93765D01*
X-48559Y-93712D01*
X-48547Y-93665D01*
X-48541Y-93624D01*
X-48518Y-93554D01*
X-48506Y-93507D01*
X-48494Y-93478D01*
X-48488Y-93472D01*
X-48447Y-93408D01*
X-48395Y-93349D01*
X-48336Y-93297D01*
X-48284Y-93256D01*
X-48231Y-93221D01*
X-48190Y-93197D01*
X-48161Y-93180D01*
X-48149Y-93174D01*
X-48102Y-93151D01*
X-48050Y-93133D01*
X-47933Y-93104D01*
X-47810Y-93086D01*
X-47693Y-93069D01*
X-47582Y-93063D01*
X-47535D01*
X-47494Y-93057D01*
X-47313D01*
X-47225Y-93063D01*
D02*
G37*
G36*
X-70326Y-93853D02*
X-71064D01*
Y-93115D01*
X-70326D01*
Y-93853D01*
D02*
G37*
G36*
X-75153Y-78051D02*
X-75053Y-78062D01*
X-74965Y-78080D01*
X-74878Y-78109D01*
X-74802Y-78139D01*
X-74731Y-78168D01*
X-74667Y-78209D01*
X-74609Y-78244D01*
X-74556Y-78279D01*
X-74509Y-78314D01*
X-74468Y-78349D01*
X-74439Y-78378D01*
X-74415Y-78408D01*
X-74392Y-78425D01*
X-74386Y-78437D01*
X-74380Y-78443D01*
X-74316Y-78536D01*
X-74258Y-78647D01*
X-74205Y-78764D01*
X-74164Y-78887D01*
X-74129Y-79016D01*
X-74100Y-79145D01*
X-74053Y-79402D01*
X-74035Y-79525D01*
X-74024Y-79636D01*
X-74018Y-79735D01*
X-74012Y-79829D01*
X-74006Y-79899D01*
Y-79958D01*
Y-79993D01*
Y-79999D01*
Y-80005D01*
X-74012Y-80203D01*
X-74024Y-80391D01*
X-74035Y-80554D01*
X-74059Y-80712D01*
X-74082Y-80853D01*
X-74111Y-80976D01*
X-74146Y-81087D01*
X-74176Y-81186D01*
X-74205Y-81274D01*
X-74240Y-81350D01*
X-74269Y-81409D01*
X-74293Y-81455D01*
X-74316Y-81496D01*
X-74334Y-81520D01*
X-74339Y-81537D01*
X-74345Y-81543D01*
X-74410Y-81619D01*
X-74486Y-81684D01*
X-74556Y-81742D01*
X-74632Y-81789D01*
X-74708Y-81830D01*
X-74784Y-81865D01*
X-74860Y-81894D01*
X-74930Y-81918D01*
X-74995Y-81935D01*
X-75059Y-81947D01*
X-75112Y-81959D01*
X-75159Y-81964D01*
X-75199D01*
X-75229Y-81970D01*
X-75252D01*
X-75352Y-81964D01*
X-75451Y-81953D01*
X-75539Y-81935D01*
X-75621Y-81906D01*
X-75697Y-81877D01*
X-75773Y-81847D01*
X-75837Y-81812D01*
X-75896Y-81771D01*
X-75948Y-81736D01*
X-75989Y-81701D01*
X-76030Y-81672D01*
X-76059Y-81637D01*
X-76089Y-81613D01*
X-76106Y-81596D01*
X-76112Y-81584D01*
X-76118Y-81578D01*
X-76182Y-81485D01*
X-76241Y-81374D01*
X-76293Y-81257D01*
X-76340Y-81134D01*
X-76375Y-81005D01*
X-76405Y-80876D01*
X-76451Y-80619D01*
X-76469Y-80496D01*
X-76481Y-80379D01*
X-76486Y-80279D01*
X-76492Y-80186D01*
X-76498Y-80116D01*
Y-80057D01*
Y-80022D01*
Y-80016D01*
Y-80010D01*
X-76492Y-79812D01*
X-76481Y-79630D01*
X-76463Y-79461D01*
X-76440Y-79303D01*
X-76410Y-79162D01*
X-76381Y-79033D01*
X-76346Y-78922D01*
X-76311Y-78817D01*
X-76276Y-78729D01*
X-76241Y-78653D01*
X-76212Y-78589D01*
X-76182Y-78536D01*
X-76159Y-78501D01*
X-76141Y-78472D01*
X-76130Y-78454D01*
X-76124Y-78448D01*
X-76059Y-78378D01*
X-75995Y-78314D01*
X-75925Y-78261D01*
X-75855Y-78215D01*
X-75784Y-78174D01*
X-75708Y-78144D01*
X-75638Y-78115D01*
X-75568Y-78097D01*
X-75504Y-78080D01*
X-75445Y-78068D01*
X-75393Y-78057D01*
X-75346Y-78051D01*
X-75305Y-78045D01*
X-75252D01*
X-75153Y-78051D01*
D02*
G37*
G36*
X-38268Y-95900D02*
X-39046D01*
Y-92057D01*
X-38268D01*
Y-95900D01*
D02*
G37*
G36*
X-67787Y-91998D02*
X-67641Y-92016D01*
X-67513Y-92033D01*
X-67401Y-92057D01*
X-67314Y-92086D01*
X-67278Y-92098D01*
X-67249Y-92103D01*
X-67226Y-92115D01*
X-67203Y-92121D01*
X-67197Y-92127D01*
X-67191D01*
X-67080Y-92179D01*
X-66986Y-92244D01*
X-66904Y-92308D01*
X-66840Y-92373D01*
X-66787Y-92431D01*
X-66746Y-92478D01*
X-66723Y-92507D01*
X-66717Y-92513D01*
Y-92519D01*
X-66664Y-92618D01*
X-66623Y-92712D01*
X-66594Y-92805D01*
X-66576Y-92887D01*
X-66565Y-92963D01*
X-66553Y-93016D01*
Y-93039D01*
Y-93057D01*
Y-93063D01*
Y-93069D01*
X-66559Y-93151D01*
X-66571Y-93232D01*
X-66588Y-93309D01*
X-66606Y-93379D01*
X-66664Y-93513D01*
X-66729Y-93624D01*
X-66764Y-93671D01*
X-66793Y-93718D01*
X-66822Y-93753D01*
X-66852Y-93782D01*
X-66869Y-93806D01*
X-66887Y-93823D01*
X-66898Y-93835D01*
X-66904Y-93841D01*
X-66957Y-93882D01*
X-67015Y-93923D01*
X-67144Y-93999D01*
X-67290Y-94063D01*
X-67436Y-94116D01*
X-67565Y-94162D01*
X-67624Y-94180D01*
X-67676Y-94192D01*
X-67717Y-94204D01*
X-67747Y-94215D01*
X-67770Y-94221D01*
X-67776D01*
X-67864Y-94244D01*
X-67940Y-94262D01*
X-68010Y-94279D01*
X-68074Y-94297D01*
X-68133Y-94315D01*
X-68179Y-94326D01*
X-68226Y-94338D01*
X-68261Y-94350D01*
X-68320Y-94367D01*
X-68361Y-94379D01*
X-68384Y-94391D01*
X-68390D01*
X-68460Y-94420D01*
X-68519Y-94449D01*
X-68565Y-94473D01*
X-68607Y-94502D01*
X-68636Y-94525D01*
X-68653Y-94543D01*
X-68665Y-94555D01*
X-68671Y-94560D01*
X-68700Y-94595D01*
X-68718Y-94636D01*
X-68741Y-94707D01*
X-68747Y-94742D01*
X-68753Y-94765D01*
Y-94783D01*
Y-94788D01*
X-68747Y-94864D01*
X-68723Y-94935D01*
X-68694Y-94999D01*
X-68659Y-95052D01*
X-68618Y-95099D01*
X-68589Y-95128D01*
X-68565Y-95151D01*
X-68560Y-95157D01*
X-68484Y-95210D01*
X-68396Y-95251D01*
X-68302Y-95274D01*
X-68209Y-95297D01*
X-68127Y-95309D01*
X-68062Y-95315D01*
X-67998D01*
X-67869Y-95309D01*
X-67758Y-95286D01*
X-67665Y-95257D01*
X-67583Y-95227D01*
X-67518Y-95192D01*
X-67472Y-95169D01*
X-67442Y-95145D01*
X-67431Y-95139D01*
X-67360Y-95064D01*
X-67302Y-94976D01*
X-67255Y-94882D01*
X-67220Y-94794D01*
X-67191Y-94707D01*
X-67173Y-94642D01*
X-67167Y-94613D01*
Y-94595D01*
X-67162Y-94584D01*
Y-94578D01*
X-66407Y-94654D01*
X-66424Y-94771D01*
X-66448Y-94882D01*
X-66477Y-94987D01*
X-66506Y-95081D01*
X-66547Y-95169D01*
X-66582Y-95251D01*
X-66623Y-95321D01*
X-66664Y-95391D01*
X-66705Y-95444D01*
X-66740Y-95496D01*
X-66775Y-95537D01*
X-66805Y-95572D01*
X-66834Y-95602D01*
X-66852Y-95619D01*
X-66863Y-95631D01*
X-66869Y-95637D01*
X-66945Y-95695D01*
X-67033Y-95748D01*
X-67121Y-95789D01*
X-67208Y-95830D01*
X-67302Y-95859D01*
X-67396Y-95888D01*
X-67577Y-95929D01*
X-67665Y-95941D01*
X-67741Y-95953D01*
X-67811Y-95959D01*
X-67869Y-95964D01*
X-67922Y-95970D01*
X-67992D01*
X-68174Y-95964D01*
X-68331Y-95947D01*
X-68472Y-95929D01*
X-68595Y-95900D01*
X-68647Y-95888D01*
X-68694Y-95877D01*
X-68729Y-95865D01*
X-68764Y-95859D01*
X-68788Y-95847D01*
X-68805Y-95841D01*
X-68817Y-95836D01*
X-68823D01*
X-68946Y-95777D01*
X-69045Y-95707D01*
X-69139Y-95637D01*
X-69209Y-95566D01*
X-69267Y-95508D01*
X-69309Y-95455D01*
X-69338Y-95420D01*
X-69344Y-95414D01*
Y-95409D01*
X-69408Y-95297D01*
X-69455Y-95186D01*
X-69484Y-95081D01*
X-69507Y-94987D01*
X-69519Y-94906D01*
X-69531Y-94841D01*
Y-94818D01*
Y-94800D01*
Y-94788D01*
Y-94783D01*
X-69525Y-94654D01*
X-69507Y-94537D01*
X-69478Y-94432D01*
X-69455Y-94344D01*
X-69425Y-94274D01*
X-69396Y-94215D01*
X-69379Y-94186D01*
X-69373Y-94174D01*
X-69309Y-94086D01*
X-69244Y-94005D01*
X-69174Y-93940D01*
X-69104Y-93882D01*
X-69045Y-93841D01*
X-68998Y-93806D01*
X-68963Y-93788D01*
X-68958Y-93782D01*
X-68952D01*
X-68899Y-93753D01*
X-68840Y-93730D01*
X-68706Y-93677D01*
X-68571Y-93636D01*
X-68431Y-93589D01*
X-68308Y-93560D01*
X-68256Y-93542D01*
X-68209Y-93531D01*
X-68168Y-93519D01*
X-68138Y-93513D01*
X-68121Y-93507D01*
X-68115D01*
X-68016Y-93484D01*
X-67922Y-93455D01*
X-67840Y-93431D01*
X-67770Y-93408D01*
X-67700Y-93390D01*
X-67647Y-93367D01*
X-67594Y-93349D01*
X-67554Y-93326D01*
X-67513Y-93309D01*
X-67483Y-93297D01*
X-67436Y-93273D01*
X-67413Y-93256D01*
X-67407Y-93250D01*
X-67372Y-93209D01*
X-67343Y-93174D01*
X-67325Y-93133D01*
X-67308Y-93098D01*
X-67302Y-93063D01*
X-67296Y-93039D01*
Y-93022D01*
Y-93016D01*
X-67302Y-92963D01*
X-67314Y-92917D01*
X-67331Y-92875D01*
X-67355Y-92840D01*
X-67378Y-92811D01*
X-67396Y-92794D01*
X-67407Y-92782D01*
X-67413Y-92776D01*
X-67489Y-92729D01*
X-67577Y-92694D01*
X-67665Y-92671D01*
X-67747Y-92653D01*
X-67823Y-92642D01*
X-67887Y-92636D01*
X-67940D01*
X-68057Y-92642D01*
X-68156Y-92659D01*
X-68238Y-92677D01*
X-68308Y-92700D01*
X-68361Y-92729D01*
X-68396Y-92747D01*
X-68419Y-92764D01*
X-68425Y-92770D01*
X-68484Y-92823D01*
X-68530Y-92887D01*
X-68565Y-92957D01*
X-68595Y-93028D01*
X-68618Y-93092D01*
X-68630Y-93145D01*
X-68642Y-93180D01*
Y-93186D01*
Y-93191D01*
X-69420Y-93162D01*
X-69414Y-93069D01*
X-69396Y-92975D01*
X-69373Y-92887D01*
X-69349Y-92805D01*
X-69285Y-92665D01*
X-69256Y-92601D01*
X-69221Y-92542D01*
X-69186Y-92489D01*
X-69151Y-92443D01*
X-69121Y-92402D01*
X-69092Y-92373D01*
X-69069Y-92349D01*
X-69051Y-92331D01*
X-69039Y-92320D01*
X-69033Y-92314D01*
X-68963Y-92255D01*
X-68881Y-92209D01*
X-68800Y-92162D01*
X-68712Y-92127D01*
X-68530Y-92068D01*
X-68355Y-92033D01*
X-68273Y-92022D01*
X-68197Y-92010D01*
X-68127Y-92004D01*
X-68062Y-91998D01*
X-68016Y-91992D01*
X-67945D01*
X-67787Y-91998D01*
D02*
G37*
G36*
X-72678Y-85051D02*
X-72567Y-85062D01*
X-72473Y-85086D01*
X-72386Y-85103D01*
X-72315Y-85127D01*
X-72263Y-85150D01*
X-72228Y-85162D01*
X-72222Y-85168D01*
X-72216D01*
X-72128Y-85215D01*
X-72046Y-85267D01*
X-71982Y-85320D01*
X-71923Y-85373D01*
X-71877Y-85425D01*
X-71847Y-85460D01*
X-71824Y-85484D01*
X-71818Y-85495D01*
X-71771Y-85577D01*
X-71724Y-85671D01*
X-71689Y-85764D01*
X-71660Y-85852D01*
X-71637Y-85934D01*
X-71619Y-85998D01*
X-71613Y-86022D01*
Y-86039D01*
X-71608Y-86051D01*
Y-86057D01*
X-72286Y-86168D01*
X-72298Y-86080D01*
X-72321Y-86004D01*
X-72345Y-85940D01*
X-72374Y-85881D01*
X-72403Y-85840D01*
X-72421Y-85811D01*
X-72438Y-85794D01*
X-72444Y-85788D01*
X-72497Y-85741D01*
X-72555Y-85712D01*
X-72608Y-85688D01*
X-72660Y-85671D01*
X-72707Y-85659D01*
X-72742Y-85653D01*
X-72772D01*
X-72842Y-85659D01*
X-72906Y-85671D01*
X-72959Y-85688D01*
X-73006Y-85712D01*
X-73041Y-85735D01*
X-73064Y-85753D01*
X-73082Y-85764D01*
X-73088Y-85770D01*
X-73128Y-85817D01*
X-73158Y-85870D01*
X-73175Y-85922D01*
X-73193Y-85969D01*
X-73199Y-86010D01*
X-73205Y-86045D01*
Y-86075D01*
Y-86080D01*
X-73199Y-86162D01*
X-73181Y-86232D01*
X-73152Y-86297D01*
X-73123Y-86349D01*
X-73093Y-86390D01*
X-73064Y-86426D01*
X-73047Y-86443D01*
X-73041Y-86449D01*
X-72976Y-86490D01*
X-72900Y-86525D01*
X-72824Y-86548D01*
X-72754Y-86560D01*
X-72690Y-86566D01*
X-72631Y-86572D01*
X-72584D01*
X-72503Y-87168D01*
X-72573Y-87151D01*
X-72637Y-87133D01*
X-72696Y-87122D01*
X-72742Y-87116D01*
X-72783Y-87110D01*
X-72836D01*
X-72912Y-87116D01*
X-72982Y-87133D01*
X-73047Y-87163D01*
X-73099Y-87192D01*
X-73146Y-87221D01*
X-73175Y-87250D01*
X-73199Y-87268D01*
X-73205Y-87274D01*
X-73257Y-87338D01*
X-73292Y-87414D01*
X-73322Y-87484D01*
X-73339Y-87555D01*
X-73351Y-87619D01*
X-73357Y-87672D01*
Y-87707D01*
Y-87713D01*
Y-87718D01*
X-73351Y-87824D01*
X-73333Y-87917D01*
X-73304Y-87999D01*
X-73281Y-88069D01*
X-73251Y-88122D01*
X-73222Y-88157D01*
X-73205Y-88186D01*
X-73199Y-88192D01*
X-73134Y-88251D01*
X-73070Y-88292D01*
X-73006Y-88321D01*
X-72947Y-88338D01*
X-72895Y-88350D01*
X-72854Y-88362D01*
X-72813D01*
X-72737Y-88356D01*
X-72666Y-88338D01*
X-72608Y-88315D01*
X-72555Y-88292D01*
X-72508Y-88268D01*
X-72479Y-88245D01*
X-72456Y-88227D01*
X-72450Y-88221D01*
X-72397Y-88163D01*
X-72356Y-88093D01*
X-72327Y-88023D01*
X-72304Y-87958D01*
X-72286Y-87894D01*
X-72274Y-87847D01*
X-72269Y-87812D01*
Y-87806D01*
Y-87800D01*
X-71555Y-87888D01*
X-71567Y-87976D01*
X-71584Y-88064D01*
X-71637Y-88216D01*
X-71701Y-88350D01*
X-71771Y-88461D01*
X-71806Y-88508D01*
X-71836Y-88549D01*
X-71865Y-88590D01*
X-71894Y-88619D01*
X-71918Y-88643D01*
X-71935Y-88660D01*
X-71941Y-88666D01*
X-71947Y-88672D01*
X-72011Y-88724D01*
X-72081Y-88771D01*
X-72157Y-88812D01*
X-72228Y-88841D01*
X-72374Y-88900D01*
X-72514Y-88935D01*
X-72573Y-88947D01*
X-72631Y-88953D01*
X-72684Y-88959D01*
X-72731Y-88964D01*
X-72766Y-88970D01*
X-72818D01*
X-72918Y-88964D01*
X-73017Y-88953D01*
X-73105Y-88935D01*
X-73193Y-88912D01*
X-73275Y-88888D01*
X-73351Y-88859D01*
X-73421Y-88824D01*
X-73485Y-88789D01*
X-73544Y-88760D01*
X-73591Y-88724D01*
X-73637Y-88695D01*
X-73673Y-88666D01*
X-73702Y-88648D01*
X-73719Y-88631D01*
X-73731Y-88619D01*
X-73737Y-88613D01*
X-73801Y-88543D01*
X-73860Y-88473D01*
X-73912Y-88403D01*
X-73953Y-88327D01*
X-73988Y-88257D01*
X-74018Y-88186D01*
X-74064Y-88052D01*
X-74082Y-87987D01*
X-74094Y-87929D01*
X-74100Y-87882D01*
X-74106Y-87835D01*
X-74111Y-87800D01*
Y-87777D01*
Y-87759D01*
Y-87753D01*
X-74106Y-87625D01*
X-74082Y-87514D01*
X-74047Y-87408D01*
X-74012Y-87321D01*
X-73977Y-87250D01*
X-73942Y-87198D01*
X-73918Y-87168D01*
X-73912Y-87157D01*
X-73830Y-87075D01*
X-73749Y-87005D01*
X-73661Y-86946D01*
X-73573Y-86905D01*
X-73503Y-86876D01*
X-73439Y-86853D01*
X-73415Y-86847D01*
X-73404D01*
X-73392Y-86841D01*
X-73386D01*
X-73485Y-86782D01*
X-73567Y-86718D01*
X-73643Y-86654D01*
X-73708Y-86583D01*
X-73760Y-86519D01*
X-73807Y-86449D01*
X-73842Y-86384D01*
X-73871Y-86320D01*
X-73895Y-86262D01*
X-73912Y-86209D01*
X-73924Y-86162D01*
X-73936Y-86115D01*
Y-86080D01*
X-73942Y-86057D01*
Y-86039D01*
Y-86033D01*
Y-85969D01*
X-73930Y-85905D01*
X-73901Y-85782D01*
X-73854Y-85677D01*
X-73807Y-85583D01*
X-73755Y-85501D01*
X-73708Y-85443D01*
X-73690Y-85425D01*
X-73678Y-85408D01*
X-73673Y-85402D01*
X-73667Y-85396D01*
X-73602Y-85331D01*
X-73538Y-85279D01*
X-73462Y-85232D01*
X-73392Y-85191D01*
X-73322Y-85156D01*
X-73246Y-85133D01*
X-73111Y-85086D01*
X-73047Y-85074D01*
X-72982Y-85062D01*
X-72930Y-85057D01*
X-72883Y-85051D01*
X-72848Y-85045D01*
X-72795D01*
X-72678Y-85051D01*
D02*
G37*
G36*
X-78920Y-92051D02*
X-78821Y-92057D01*
X-78733Y-92068D01*
X-78651Y-92086D01*
X-78575Y-92109D01*
X-78505Y-92133D01*
X-78440Y-92156D01*
X-78382Y-92185D01*
X-78335Y-92209D01*
X-78288Y-92238D01*
X-78253Y-92261D01*
X-78218Y-92279D01*
X-78195Y-92302D01*
X-78177Y-92314D01*
X-78171Y-92320D01*
X-78165Y-92326D01*
X-78113Y-92378D01*
X-78066Y-92437D01*
X-78025Y-92495D01*
X-77996Y-92554D01*
X-77937Y-92677D01*
X-77902Y-92788D01*
X-77885Y-92887D01*
X-77879Y-92928D01*
X-77873Y-92969D01*
X-77867Y-92998D01*
Y-93022D01*
Y-93033D01*
Y-93039D01*
X-77873Y-93133D01*
X-77885Y-93215D01*
X-77908Y-93297D01*
X-77931Y-93367D01*
X-77955Y-93420D01*
X-77978Y-93466D01*
X-77990Y-93490D01*
X-77996Y-93502D01*
X-78048Y-93577D01*
X-78113Y-93642D01*
X-78183Y-93700D01*
X-78247Y-93741D01*
X-78312Y-93782D01*
X-78358Y-93806D01*
X-78394Y-93823D01*
X-78399Y-93829D01*
X-78405D01*
X-78288Y-93888D01*
X-78189Y-93952D01*
X-78107Y-94016D01*
X-78037Y-94081D01*
X-77984Y-94139D01*
X-77949Y-94192D01*
X-77925Y-94221D01*
X-77920Y-94227D01*
Y-94233D01*
X-77867Y-94332D01*
X-77832Y-94432D01*
X-77803Y-94531D01*
X-77785Y-94619D01*
X-77773Y-94695D01*
X-77768Y-94753D01*
Y-94777D01*
Y-94794D01*
Y-94800D01*
Y-94806D01*
X-77773Y-94911D01*
X-77785Y-95005D01*
X-77803Y-95099D01*
X-77832Y-95186D01*
X-77861Y-95262D01*
X-77896Y-95338D01*
X-77937Y-95403D01*
X-77972Y-95461D01*
X-78013Y-95514D01*
X-78048Y-95561D01*
X-78083Y-95602D01*
X-78113Y-95637D01*
X-78142Y-95660D01*
X-78159Y-95678D01*
X-78171Y-95689D01*
X-78177Y-95695D01*
X-78241Y-95742D01*
X-78312Y-95783D01*
X-78458Y-95853D01*
X-78604Y-95900D01*
X-78745Y-95935D01*
X-78803Y-95947D01*
X-78861Y-95953D01*
X-78914Y-95964D01*
X-78961D01*
X-78996Y-95970D01*
X-79049D01*
X-79154Y-95964D01*
X-79248Y-95959D01*
X-79341Y-95941D01*
X-79429Y-95918D01*
X-79505Y-95894D01*
X-79581Y-95865D01*
X-79651Y-95836D01*
X-79710Y-95806D01*
X-79762Y-95777D01*
X-79815Y-95748D01*
X-79856Y-95719D01*
X-79885Y-95695D01*
X-79914Y-95672D01*
X-79932Y-95654D01*
X-79944Y-95648D01*
X-79950Y-95643D01*
X-80008Y-95578D01*
X-80067Y-95508D01*
X-80108Y-95438D01*
X-80149Y-95368D01*
X-80184Y-95292D01*
X-80213Y-95221D01*
X-80254Y-95087D01*
X-80265Y-95022D01*
X-80277Y-94964D01*
X-80283Y-94911D01*
X-80289Y-94864D01*
X-80295Y-94829D01*
Y-94800D01*
Y-94783D01*
Y-94777D01*
X-80289Y-94660D01*
X-80271Y-94549D01*
X-80242Y-94449D01*
X-80213Y-94367D01*
X-80178Y-94297D01*
X-80154Y-94244D01*
X-80131Y-94215D01*
X-80125Y-94204D01*
X-80055Y-94116D01*
X-79979Y-94040D01*
X-79897Y-93975D01*
X-79821Y-93923D01*
X-79751Y-93882D01*
X-79692Y-93853D01*
X-79669Y-93841D01*
X-79651Y-93835D01*
X-79645Y-93829D01*
X-79640D01*
X-79727Y-93782D01*
X-79809Y-93735D01*
X-79874Y-93683D01*
X-79932Y-93630D01*
X-79973Y-93583D01*
X-80008Y-93548D01*
X-80026Y-93525D01*
X-80032Y-93513D01*
X-80078Y-93431D01*
X-80113Y-93349D01*
X-80137Y-93273D01*
X-80154Y-93197D01*
X-80166Y-93133D01*
X-80172Y-93086D01*
Y-93051D01*
Y-93039D01*
X-80166Y-92957D01*
X-80160Y-92881D01*
X-80125Y-92747D01*
X-80078Y-92624D01*
X-80020Y-92519D01*
X-79961Y-92437D01*
X-79914Y-92378D01*
X-79897Y-92355D01*
X-79879Y-92337D01*
X-79874Y-92331D01*
X-79868Y-92326D01*
X-79809Y-92279D01*
X-79745Y-92232D01*
X-79605Y-92162D01*
X-79464Y-92115D01*
X-79330Y-92080D01*
X-79265Y-92068D01*
X-79207Y-92057D01*
X-79154Y-92051D01*
X-79107D01*
X-79072Y-92045D01*
X-79019D01*
X-78920Y-92051D01*
D02*
G37*
G36*
X-41205Y-93063D02*
X-41106Y-93080D01*
X-41018Y-93098D01*
X-40948Y-93121D01*
X-40883Y-93151D01*
X-40837Y-93168D01*
X-40807Y-93186D01*
X-40796Y-93191D01*
X-40714Y-93244D01*
X-40644Y-93297D01*
X-40585Y-93355D01*
X-40532Y-93408D01*
X-40491Y-93455D01*
X-40462Y-93490D01*
X-40445Y-93513D01*
X-40439Y-93525D01*
Y-93115D01*
X-39754D01*
Y-96965D01*
X-40491D01*
Y-95566D01*
X-40567Y-95643D01*
X-40638Y-95707D01*
X-40708Y-95765D01*
X-40766Y-95806D01*
X-40813Y-95841D01*
X-40848Y-95865D01*
X-40878Y-95877D01*
X-40883Y-95882D01*
X-40953Y-95912D01*
X-41030Y-95935D01*
X-41100Y-95947D01*
X-41164Y-95959D01*
X-41217Y-95964D01*
X-41258Y-95970D01*
X-41299D01*
X-41386Y-95964D01*
X-41474Y-95953D01*
X-41556Y-95935D01*
X-41632Y-95912D01*
X-41772Y-95847D01*
X-41895Y-95777D01*
X-41942Y-95742D01*
X-41989Y-95707D01*
X-42030Y-95672D01*
X-42065Y-95643D01*
X-42088Y-95619D01*
X-42106Y-95602D01*
X-42118Y-95590D01*
X-42123Y-95584D01*
X-42182Y-95508D01*
X-42241Y-95426D01*
X-42281Y-95338D01*
X-42322Y-95251D01*
X-42358Y-95163D01*
X-42387Y-95069D01*
X-42428Y-94900D01*
X-42439Y-94818D01*
X-42451Y-94742D01*
X-42457Y-94677D01*
X-42463Y-94619D01*
X-42469Y-94566D01*
Y-94531D01*
Y-94508D01*
Y-94502D01*
X-42463Y-94379D01*
X-42457Y-94262D01*
X-42439Y-94151D01*
X-42416Y-94051D01*
X-42393Y-93958D01*
X-42363Y-93870D01*
X-42328Y-93788D01*
X-42299Y-93718D01*
X-42270Y-93654D01*
X-42235Y-93601D01*
X-42205Y-93554D01*
X-42182Y-93513D01*
X-42159Y-93484D01*
X-42147Y-93461D01*
X-42135Y-93449D01*
X-42129Y-93443D01*
X-42065Y-93373D01*
X-41995Y-93314D01*
X-41925Y-93262D01*
X-41860Y-93221D01*
X-41790Y-93180D01*
X-41720Y-93151D01*
X-41591Y-93104D01*
X-41474Y-93075D01*
X-41427Y-93069D01*
X-41386Y-93063D01*
X-41351Y-93057D01*
X-41304D01*
X-41205Y-93063D01*
D02*
G37*
G36*
X-55263Y-95900D02*
X-55620D01*
X-55614Y-95976D01*
X-55602Y-96046D01*
X-55584Y-96105D01*
X-55567Y-96152D01*
X-55543Y-96193D01*
X-55532Y-96222D01*
X-55520Y-96239D01*
X-55514Y-96245D01*
X-55473Y-96292D01*
X-55426Y-96333D01*
X-55374Y-96368D01*
X-55327Y-96397D01*
X-55280Y-96421D01*
X-55239Y-96438D01*
X-55216Y-96444D01*
X-55204Y-96450D01*
X-55344Y-96754D01*
X-55426Y-96719D01*
X-55502Y-96678D01*
X-55567Y-96643D01*
X-55625Y-96602D01*
X-55672Y-96573D01*
X-55701Y-96544D01*
X-55725Y-96526D01*
X-55731Y-96520D01*
X-55783Y-96462D01*
X-55830Y-96409D01*
X-55865Y-96351D01*
X-55894Y-96298D01*
X-55918Y-96251D01*
X-55929Y-96216D01*
X-55941Y-96193D01*
Y-96187D01*
X-55959Y-96111D01*
X-55976Y-96035D01*
X-55988Y-95947D01*
X-55994Y-95871D01*
X-56000Y-95801D01*
Y-95742D01*
Y-95719D01*
Y-95701D01*
Y-95695D01*
Y-95689D01*
Y-95163D01*
X-55263D01*
Y-95900D01*
D02*
G37*
G36*
X-76440D02*
X-77177D01*
Y-95163D01*
X-76440D01*
Y-95900D01*
D02*
G37*
G36*
X-70326D02*
X-71064D01*
Y-95163D01*
X-70326D01*
Y-95900D01*
D02*
G37*
G36*
X-58270D02*
X-59048D01*
Y-94297D01*
X-59293D01*
X-59375Y-94303D01*
X-59439Y-94309D01*
X-59492Y-94320D01*
X-59533Y-94326D01*
X-59562Y-94338D01*
X-59580Y-94344D01*
X-59586D01*
X-59633Y-94362D01*
X-59674Y-94385D01*
X-59750Y-94437D01*
X-59779Y-94461D01*
X-59802Y-94484D01*
X-59814Y-94496D01*
X-59820Y-94502D01*
X-59843Y-94525D01*
X-59867Y-94560D01*
X-59931Y-94642D01*
X-60001Y-94730D01*
X-60066Y-94829D01*
X-60130Y-94923D01*
X-60159Y-94958D01*
X-60182Y-94999D01*
X-60200Y-95028D01*
X-60218Y-95052D01*
X-60223Y-95064D01*
X-60229Y-95069D01*
X-60779Y-95900D01*
X-61709D01*
X-61241Y-95151D01*
X-61189Y-95069D01*
X-61142Y-94999D01*
X-61101Y-94929D01*
X-61054Y-94864D01*
X-60984Y-94759D01*
X-60920Y-94671D01*
X-60867Y-94607D01*
X-60832Y-94566D01*
X-60808Y-94537D01*
X-60803Y-94531D01*
X-60738Y-94467D01*
X-60668Y-94408D01*
X-60598Y-94350D01*
X-60533Y-94303D01*
X-60475Y-94262D01*
X-60428Y-94233D01*
X-60399Y-94215D01*
X-60393Y-94209D01*
X-60387D01*
X-60481Y-94192D01*
X-60563Y-94174D01*
X-60645Y-94151D01*
X-60715Y-94122D01*
X-60785Y-94092D01*
X-60849Y-94063D01*
X-60902Y-94034D01*
X-60955Y-94005D01*
X-60996Y-93975D01*
X-61037Y-93946D01*
X-61066Y-93917D01*
X-61095Y-93899D01*
X-61113Y-93876D01*
X-61130Y-93864D01*
X-61142Y-93858D01*
Y-93853D01*
X-61189Y-93800D01*
X-61230Y-93741D01*
X-61288Y-93624D01*
X-61335Y-93502D01*
X-61370Y-93390D01*
X-61388Y-93291D01*
X-61393Y-93250D01*
Y-93209D01*
X-61399Y-93180D01*
Y-93156D01*
Y-93145D01*
Y-93139D01*
X-61393Y-93016D01*
X-61376Y-92899D01*
X-61347Y-92800D01*
X-61317Y-92712D01*
X-61282Y-92636D01*
X-61259Y-92583D01*
X-61235Y-92548D01*
X-61230Y-92536D01*
X-61159Y-92443D01*
X-61089Y-92367D01*
X-61013Y-92302D01*
X-60943Y-92250D01*
X-60879Y-92209D01*
X-60826Y-92179D01*
X-60791Y-92168D01*
X-60785Y-92162D01*
X-60779D01*
X-60726Y-92144D01*
X-60662Y-92127D01*
X-60522Y-92103D01*
X-60375Y-92080D01*
X-60229Y-92068D01*
X-60165Y-92062D01*
X-60042D01*
X-59989Y-92057D01*
X-58270D01*
Y-95900D01*
D02*
G37*
G36*
X-50109Y-93069D02*
X-50015Y-93080D01*
X-49927Y-93098D01*
X-49845Y-93115D01*
X-49775Y-93139D01*
X-49705Y-93156D01*
X-49647Y-93180D01*
X-49600Y-93203D01*
X-49553Y-93226D01*
X-49518Y-93250D01*
X-49483Y-93268D01*
X-49459Y-93285D01*
X-49442Y-93297D01*
X-49436Y-93303D01*
X-49430Y-93309D01*
X-49383Y-93355D01*
X-49337Y-93402D01*
X-49266Y-93507D01*
X-49220Y-93607D01*
X-49185Y-93706D01*
X-49167Y-93788D01*
X-49155Y-93858D01*
X-49149Y-93882D01*
Y-93899D01*
Y-93911D01*
Y-93917D01*
X-49155Y-93987D01*
X-49161Y-94057D01*
X-49202Y-94180D01*
X-49255Y-94291D01*
X-49313Y-94379D01*
X-49372Y-94449D01*
X-49424Y-94502D01*
X-49465Y-94531D01*
X-49471Y-94543D01*
X-49477D01*
X-49530Y-94572D01*
X-49594Y-94607D01*
X-49670Y-94636D01*
X-49752Y-94666D01*
X-49845Y-94701D01*
X-49939Y-94730D01*
X-50132Y-94783D01*
X-50226Y-94806D01*
X-50314Y-94829D01*
X-50395Y-94847D01*
X-50466Y-94864D01*
X-50524Y-94882D01*
X-50565Y-94888D01*
X-50594Y-94900D01*
X-50606D01*
X-50670Y-94917D01*
X-50729Y-94935D01*
X-50770Y-94952D01*
X-50805Y-94964D01*
X-50828Y-94982D01*
X-50846Y-94987D01*
X-50858Y-94999D01*
X-50887Y-95046D01*
X-50904Y-95087D01*
X-50910Y-95122D01*
Y-95134D01*
Y-95139D01*
X-50904Y-95180D01*
X-50893Y-95221D01*
X-50863Y-95286D01*
X-50840Y-95309D01*
X-50828Y-95327D01*
X-50817Y-95333D01*
X-50811Y-95338D01*
X-50752Y-95373D01*
X-50682Y-95397D01*
X-50612Y-95414D01*
X-50542Y-95426D01*
X-50483Y-95432D01*
X-50431Y-95438D01*
X-50384D01*
X-50290Y-95432D01*
X-50214Y-95420D01*
X-50144Y-95403D01*
X-50085Y-95385D01*
X-50039Y-95368D01*
X-50009Y-95350D01*
X-49986Y-95338D01*
X-49980Y-95333D01*
X-49933Y-95286D01*
X-49892Y-95233D01*
X-49857Y-95180D01*
X-49834Y-95128D01*
X-49816Y-95081D01*
X-49805Y-95040D01*
X-49793Y-95017D01*
Y-95005D01*
X-49056Y-95116D01*
X-49103Y-95257D01*
X-49167Y-95379D01*
X-49237Y-95490D01*
X-49307Y-95578D01*
X-49372Y-95648D01*
X-49430Y-95701D01*
X-49454Y-95719D01*
X-49471Y-95730D01*
X-49477Y-95742D01*
X-49483D01*
X-49617Y-95818D01*
X-49764Y-95877D01*
X-49916Y-95912D01*
X-50056Y-95941D01*
X-50126Y-95953D01*
X-50185Y-95959D01*
X-50243Y-95964D01*
X-50290D01*
X-50331Y-95970D01*
X-50384D01*
X-50495Y-95964D01*
X-50606Y-95959D01*
X-50705Y-95947D01*
X-50793Y-95929D01*
X-50881Y-95906D01*
X-50957Y-95882D01*
X-51027Y-95859D01*
X-51092Y-95830D01*
X-51144Y-95806D01*
X-51191Y-95783D01*
X-51232Y-95760D01*
X-51267Y-95736D01*
X-51291Y-95719D01*
X-51314Y-95707D01*
X-51320Y-95695D01*
X-51326D01*
X-51384Y-95643D01*
X-51431Y-95590D01*
X-51478Y-95531D01*
X-51513Y-95479D01*
X-51571Y-95368D01*
X-51606Y-95262D01*
X-51630Y-95175D01*
X-51636Y-95134D01*
X-51641Y-95104D01*
X-51647Y-95075D01*
Y-95058D01*
Y-95046D01*
Y-95040D01*
X-51636Y-94911D01*
X-51612Y-94806D01*
X-51571Y-94707D01*
X-51530Y-94631D01*
X-51489Y-94572D01*
X-51448Y-94525D01*
X-51425Y-94502D01*
X-51413Y-94490D01*
X-51367Y-94455D01*
X-51308Y-94420D01*
X-51185Y-94356D01*
X-51051Y-94297D01*
X-50916Y-94250D01*
X-50787Y-94215D01*
X-50735Y-94198D01*
X-50682Y-94186D01*
X-50647Y-94174D01*
X-50612Y-94168D01*
X-50594Y-94162D01*
X-50589D01*
X-50483Y-94139D01*
X-50390Y-94116D01*
X-50308Y-94092D01*
X-50238Y-94075D01*
X-50173Y-94051D01*
X-50115Y-94034D01*
X-50068Y-94022D01*
X-50027Y-94005D01*
X-49992Y-93993D01*
X-49968Y-93981D01*
X-49927Y-93964D01*
X-49910Y-93958D01*
X-49904Y-93952D01*
X-49881Y-93928D01*
X-49863Y-93911D01*
X-49845Y-93864D01*
X-49834Y-93829D01*
Y-93823D01*
Y-93817D01*
X-49840Y-93782D01*
X-49845Y-93753D01*
X-49875Y-93706D01*
X-49904Y-93677D01*
X-49910Y-93665D01*
X-49916D01*
X-49968Y-93636D01*
X-50033Y-93619D01*
X-50167Y-93595D01*
X-50232Y-93589D01*
X-50284Y-93583D01*
X-50331D01*
X-50413Y-93589D01*
X-50483Y-93595D01*
X-50542Y-93613D01*
X-50594Y-93624D01*
X-50629Y-93642D01*
X-50659Y-93660D01*
X-50676Y-93665D01*
X-50682Y-93671D01*
X-50729Y-93706D01*
X-50764Y-93747D01*
X-50793Y-93788D01*
X-50817Y-93829D01*
X-50834Y-93864D01*
X-50846Y-93893D01*
X-50858Y-93911D01*
Y-93917D01*
X-51554Y-93788D01*
X-51507Y-93660D01*
X-51448Y-93554D01*
X-51384Y-93461D01*
X-51320Y-93384D01*
X-51261Y-93320D01*
X-51214Y-93279D01*
X-51179Y-93250D01*
X-51174Y-93244D01*
X-51168D01*
X-51115Y-93209D01*
X-51051Y-93180D01*
X-50922Y-93133D01*
X-50776Y-93104D01*
X-50641Y-93080D01*
X-50518Y-93069D01*
X-50460Y-93063D01*
X-50413Y-93057D01*
X-50208D01*
X-50109Y-93069D01*
D02*
G37*
G36*
X-80535Y-95900D02*
X-81354D01*
X-81669Y-95028D01*
X-83220D01*
X-83547Y-95900D01*
X-84390D01*
X-82845Y-92057D01*
X-82026D01*
X-80535Y-95900D01*
D02*
G37*
%LPC*%
G36*
X-64336Y-85653D02*
X-64371D01*
X-64447Y-85659D01*
X-64523Y-85682D01*
X-64587Y-85718D01*
X-64640Y-85753D01*
X-64687Y-85788D01*
X-64722Y-85823D01*
X-64745Y-85846D01*
X-64751Y-85852D01*
X-64804Y-85934D01*
X-64845Y-86022D01*
X-64874Y-86115D01*
X-64898Y-86203D01*
X-64909Y-86285D01*
X-64915Y-86349D01*
Y-86373D01*
Y-86390D01*
Y-86402D01*
Y-86408D01*
X-64909Y-86525D01*
X-64892Y-86624D01*
X-64868Y-86706D01*
X-64845Y-86776D01*
X-64816Y-86835D01*
X-64792Y-86876D01*
X-64775Y-86899D01*
X-64769Y-86905D01*
X-64710Y-86958D01*
X-64652Y-86999D01*
X-64593Y-87028D01*
X-64535Y-87046D01*
X-64488Y-87057D01*
X-64447Y-87069D01*
X-64412D01*
X-64330Y-87063D01*
X-64260Y-87040D01*
X-64196Y-87016D01*
X-64143Y-86981D01*
X-64102Y-86952D01*
X-64073Y-86923D01*
X-64049Y-86905D01*
X-64043Y-86899D01*
X-63997Y-86823D01*
X-63962Y-86741D01*
X-63938Y-86648D01*
X-63921Y-86560D01*
X-63909Y-86478D01*
X-63903Y-86408D01*
Y-86384D01*
Y-86367D01*
Y-86355D01*
Y-86349D01*
X-63909Y-86221D01*
X-63921Y-86110D01*
X-63944Y-86016D01*
X-63967Y-85946D01*
X-63991Y-85887D01*
X-64014Y-85846D01*
X-64026Y-85823D01*
X-64032Y-85817D01*
X-64084Y-85764D01*
X-64143Y-85724D01*
X-64196Y-85694D01*
X-64254Y-85671D01*
X-64301Y-85659D01*
X-64336Y-85653D01*
D02*
G37*
G36*
X-72315Y-79952D02*
X-72351D01*
X-72426Y-79958D01*
X-72497Y-79981D01*
X-72561Y-80005D01*
X-72614Y-80040D01*
X-72655Y-80069D01*
X-72690Y-80098D01*
X-72707Y-80122D01*
X-72713Y-80127D01*
X-72766Y-80203D01*
X-72801Y-80285D01*
X-72830Y-80379D01*
X-72848Y-80467D01*
X-72859Y-80549D01*
X-72865Y-80613D01*
Y-80642D01*
Y-80660D01*
Y-80672D01*
Y-80677D01*
X-72859Y-80806D01*
X-72842Y-80917D01*
X-72818Y-81005D01*
X-72795Y-81081D01*
X-72772Y-81134D01*
X-72748Y-81175D01*
X-72731Y-81198D01*
X-72725Y-81204D01*
X-72672Y-81257D01*
X-72614Y-81297D01*
X-72561Y-81321D01*
X-72503Y-81344D01*
X-72456Y-81356D01*
X-72421Y-81362D01*
X-72386D01*
X-72309Y-81356D01*
X-72239Y-81333D01*
X-72175Y-81303D01*
X-72122Y-81262D01*
X-72075Y-81227D01*
X-72040Y-81198D01*
X-72017Y-81175D01*
X-72011Y-81169D01*
X-71959Y-81087D01*
X-71918Y-80999D01*
X-71888Y-80905D01*
X-71871Y-80818D01*
X-71859Y-80736D01*
X-71847Y-80672D01*
Y-80648D01*
Y-80631D01*
Y-80619D01*
Y-80613D01*
X-71853Y-80496D01*
X-71871Y-80397D01*
X-71894Y-80315D01*
X-71923Y-80244D01*
X-71947Y-80192D01*
X-71970Y-80151D01*
X-71988Y-80127D01*
X-71994Y-80122D01*
X-72052Y-80063D01*
X-72111Y-80022D01*
X-72169Y-79993D01*
X-72228Y-79975D01*
X-72274Y-79958D01*
X-72315Y-79952D01*
D02*
G37*
G36*
X-53677Y-86636D02*
X-53689D01*
X-53783Y-86648D01*
X-53870Y-86671D01*
X-53946Y-86706D01*
X-54005Y-86741D01*
X-54058Y-86782D01*
X-54098Y-86817D01*
X-54122Y-86841D01*
X-54128Y-86853D01*
X-54186Y-86940D01*
X-54227Y-87040D01*
X-54262Y-87151D01*
X-54280Y-87256D01*
X-54291Y-87350D01*
X-54297Y-87391D01*
X-54303Y-87432D01*
Y-87461D01*
Y-87484D01*
Y-87496D01*
Y-87502D01*
Y-87590D01*
X-54297Y-87666D01*
X-54286Y-87742D01*
X-54274Y-87806D01*
X-54262Y-87870D01*
X-54251Y-87923D01*
X-54216Y-88017D01*
X-54186Y-88093D01*
X-54157Y-88139D01*
X-54134Y-88169D01*
X-54128Y-88180D01*
X-54063Y-88251D01*
X-53993Y-88297D01*
X-53923Y-88333D01*
X-53853Y-88362D01*
X-53794Y-88374D01*
X-53747Y-88379D01*
X-53718Y-88385D01*
X-53707D01*
X-53607Y-88374D01*
X-53519Y-88350D01*
X-53443Y-88315D01*
X-53379Y-88274D01*
X-53326Y-88233D01*
X-53285Y-88198D01*
X-53256Y-88175D01*
X-53250Y-88163D01*
X-53221Y-88116D01*
X-53192Y-88069D01*
X-53145Y-87958D01*
X-53116Y-87847D01*
X-53092Y-87730D01*
X-53081Y-87631D01*
X-53075Y-87584D01*
Y-87543D01*
X-53069Y-87514D01*
Y-87490D01*
Y-87473D01*
Y-87467D01*
X-53075Y-87321D01*
X-53098Y-87198D01*
X-53127Y-87092D01*
X-53157Y-87005D01*
X-53192Y-86934D01*
X-53215Y-86888D01*
X-53238Y-86858D01*
X-53244Y-86847D01*
X-53315Y-86776D01*
X-53391Y-86724D01*
X-53461Y-86689D01*
X-53531Y-86659D01*
X-53595Y-86648D01*
X-53642Y-86642D01*
X-53677Y-86636D01*
D02*
G37*
G36*
X-50401D02*
X-50413D01*
X-50507Y-86648D01*
X-50594Y-86671D01*
X-50670Y-86706D01*
X-50729Y-86741D01*
X-50782Y-86782D01*
X-50823Y-86817D01*
X-50846Y-86841D01*
X-50852Y-86853D01*
X-50910Y-86940D01*
X-50951Y-87040D01*
X-50986Y-87151D01*
X-51004Y-87256D01*
X-51016Y-87350D01*
X-51021Y-87391D01*
X-51027Y-87432D01*
Y-87461D01*
Y-87484D01*
Y-87496D01*
Y-87502D01*
Y-87590D01*
X-51021Y-87666D01*
X-51010Y-87742D01*
X-50998Y-87806D01*
X-50986Y-87870D01*
X-50975Y-87923D01*
X-50940Y-88017D01*
X-50910Y-88093D01*
X-50881Y-88139D01*
X-50858Y-88169D01*
X-50852Y-88180D01*
X-50787Y-88251D01*
X-50717Y-88297D01*
X-50647Y-88333D01*
X-50577Y-88362D01*
X-50518Y-88374D01*
X-50472Y-88379D01*
X-50442Y-88385D01*
X-50431D01*
X-50331Y-88374D01*
X-50243Y-88350D01*
X-50167Y-88315D01*
X-50103Y-88274D01*
X-50050Y-88233D01*
X-50009Y-88198D01*
X-49980Y-88175D01*
X-49974Y-88163D01*
X-49945Y-88116D01*
X-49916Y-88069D01*
X-49869Y-87958D01*
X-49840Y-87847D01*
X-49816Y-87730D01*
X-49805Y-87631D01*
X-49799Y-87584D01*
Y-87543D01*
X-49793Y-87514D01*
Y-87490D01*
Y-87473D01*
Y-87467D01*
X-49799Y-87321D01*
X-49822Y-87198D01*
X-49851Y-87092D01*
X-49881Y-87005D01*
X-49916Y-86934D01*
X-49939Y-86888D01*
X-49962Y-86858D01*
X-49968Y-86847D01*
X-50039Y-86776D01*
X-50115Y-86724D01*
X-50185Y-86689D01*
X-50255Y-86659D01*
X-50319Y-86648D01*
X-50366Y-86642D01*
X-50401Y-86636D01*
D02*
G37*
G36*
X-75861Y-86952D02*
X-75896D01*
X-75972Y-86958D01*
X-76042Y-86981D01*
X-76106Y-87005D01*
X-76159Y-87040D01*
X-76200Y-87069D01*
X-76235Y-87098D01*
X-76252Y-87122D01*
X-76258Y-87127D01*
X-76311Y-87204D01*
X-76346Y-87285D01*
X-76375Y-87379D01*
X-76393Y-87467D01*
X-76405Y-87549D01*
X-76410Y-87613D01*
Y-87642D01*
Y-87660D01*
Y-87672D01*
Y-87677D01*
X-76405Y-87806D01*
X-76387Y-87917D01*
X-76364Y-88005D01*
X-76340Y-88081D01*
X-76317Y-88134D01*
X-76293Y-88175D01*
X-76276Y-88198D01*
X-76270Y-88204D01*
X-76217Y-88257D01*
X-76159Y-88297D01*
X-76106Y-88321D01*
X-76048Y-88344D01*
X-76001Y-88356D01*
X-75966Y-88362D01*
X-75931D01*
X-75855Y-88356D01*
X-75784Y-88333D01*
X-75720Y-88303D01*
X-75667Y-88262D01*
X-75621Y-88227D01*
X-75586Y-88198D01*
X-75562Y-88175D01*
X-75556Y-88169D01*
X-75504Y-88087D01*
X-75463Y-87999D01*
X-75433Y-87906D01*
X-75416Y-87818D01*
X-75404Y-87736D01*
X-75393Y-87672D01*
Y-87648D01*
Y-87631D01*
Y-87619D01*
Y-87613D01*
X-75398Y-87496D01*
X-75416Y-87397D01*
X-75439Y-87315D01*
X-75468Y-87244D01*
X-75492Y-87192D01*
X-75515Y-87151D01*
X-75533Y-87127D01*
X-75539Y-87122D01*
X-75597Y-87063D01*
X-75656Y-87022D01*
X-75714Y-86993D01*
X-75773Y-86975D01*
X-75819Y-86958D01*
X-75861Y-86952D01*
D02*
G37*
G36*
X-53355Y-93619D02*
X-53396D01*
X-53478Y-93624D01*
X-53554Y-93642D01*
X-53619Y-93671D01*
X-53671Y-93700D01*
X-53718Y-93735D01*
X-53747Y-93759D01*
X-53771Y-93782D01*
X-53777Y-93788D01*
X-53829Y-93858D01*
X-53870Y-93934D01*
X-53900Y-94016D01*
X-53923Y-94092D01*
X-53935Y-94162D01*
X-53940Y-94221D01*
X-53946Y-94244D01*
Y-94262D01*
Y-94268D01*
Y-94274D01*
X-52847D01*
X-52852Y-94168D01*
X-52870Y-94075D01*
X-52893Y-93993D01*
X-52923Y-93923D01*
X-52952Y-93870D01*
X-52975Y-93829D01*
X-52993Y-93806D01*
X-52999Y-93800D01*
X-53063Y-93741D01*
X-53127Y-93695D01*
X-53192Y-93665D01*
X-53256Y-93642D01*
X-53315Y-93630D01*
X-53355Y-93619D01*
D02*
G37*
G36*
X-83717Y-78952D02*
X-84255Y-80379D01*
X-83196D01*
X-83717Y-78952D01*
D02*
G37*
G36*
X-48354Y-79636D02*
X-48366D01*
X-48459Y-79648D01*
X-48547Y-79671D01*
X-48623Y-79706D01*
X-48681Y-79741D01*
X-48734Y-79782D01*
X-48775Y-79817D01*
X-48798Y-79841D01*
X-48804Y-79852D01*
X-48863Y-79940D01*
X-48904Y-80040D01*
X-48939Y-80151D01*
X-48956Y-80256D01*
X-48968Y-80350D01*
X-48974Y-80391D01*
X-48980Y-80432D01*
Y-80461D01*
Y-80484D01*
Y-80496D01*
Y-80502D01*
Y-80590D01*
X-48974Y-80666D01*
X-48962Y-80742D01*
X-48950Y-80806D01*
X-48939Y-80870D01*
X-48927Y-80923D01*
X-48892Y-81017D01*
X-48863Y-81093D01*
X-48834Y-81139D01*
X-48810Y-81169D01*
X-48804Y-81180D01*
X-48740Y-81251D01*
X-48670Y-81297D01*
X-48599Y-81333D01*
X-48529Y-81362D01*
X-48471Y-81374D01*
X-48424Y-81379D01*
X-48395Y-81385D01*
X-48383D01*
X-48284Y-81374D01*
X-48196Y-81350D01*
X-48120Y-81315D01*
X-48055Y-81274D01*
X-48003Y-81233D01*
X-47962Y-81198D01*
X-47933Y-81175D01*
X-47927Y-81163D01*
X-47897Y-81116D01*
X-47868Y-81069D01*
X-47821Y-80958D01*
X-47792Y-80847D01*
X-47769Y-80730D01*
X-47757Y-80631D01*
X-47751Y-80584D01*
Y-80543D01*
X-47745Y-80514D01*
Y-80490D01*
Y-80473D01*
Y-80467D01*
X-47751Y-80321D01*
X-47775Y-80198D01*
X-47804Y-80092D01*
X-47833Y-80005D01*
X-47868Y-79934D01*
X-47892Y-79888D01*
X-47915Y-79858D01*
X-47921Y-79847D01*
X-47991Y-79776D01*
X-48067Y-79724D01*
X-48137Y-79689D01*
X-48208Y-79659D01*
X-48272Y-79648D01*
X-48319Y-79642D01*
X-48354Y-79636D01*
D02*
G37*
G36*
X-47857Y-94566D02*
X-47862D01*
Y-94718D01*
Y-94812D01*
X-47857Y-94882D01*
X-47851Y-94946D01*
Y-94993D01*
X-47845Y-95034D01*
X-47839Y-95058D01*
X-47833Y-95069D01*
Y-95075D01*
X-47810Y-95128D01*
X-47786Y-95175D01*
X-47757Y-95215D01*
X-47728Y-95251D01*
X-47699Y-95280D01*
X-47681Y-95303D01*
X-47664Y-95315D01*
X-47658Y-95321D01*
X-47587Y-95362D01*
X-47523Y-95397D01*
X-47459Y-95420D01*
X-47400Y-95432D01*
X-47348Y-95444D01*
X-47313Y-95450D01*
X-47277D01*
X-47213Y-95444D01*
X-47160Y-95432D01*
X-47108Y-95414D01*
X-47067Y-95391D01*
X-47032Y-95373D01*
X-47008Y-95356D01*
X-46991Y-95344D01*
X-46985Y-95338D01*
X-46950Y-95297D01*
X-46920Y-95251D01*
X-46903Y-95204D01*
X-46885Y-95163D01*
X-46880Y-95128D01*
X-46874Y-95093D01*
Y-95075D01*
Y-95069D01*
X-46880Y-95011D01*
X-46897Y-94964D01*
X-46920Y-94917D01*
X-46944Y-94882D01*
X-46967Y-94853D01*
X-46991Y-94829D01*
X-47008Y-94818D01*
X-47014Y-94812D01*
X-47061Y-94788D01*
X-47114Y-94765D01*
X-47184Y-94742D01*
X-47248Y-94724D01*
X-47313Y-94707D01*
X-47365Y-94695D01*
X-47400Y-94683D01*
X-47412D01*
X-47517Y-94660D01*
X-47611Y-94636D01*
X-47687Y-94619D01*
X-47751Y-94601D01*
X-47798Y-94584D01*
X-47833Y-94578D01*
X-47857Y-94566D01*
D02*
G37*
G36*
X-75229Y-78653D02*
X-75252D01*
X-75299Y-78659D01*
X-75340Y-78665D01*
X-75381Y-78683D01*
X-75416Y-78694D01*
X-75439Y-78712D01*
X-75463Y-78729D01*
X-75474Y-78735D01*
X-75480Y-78741D01*
X-75515Y-78782D01*
X-75550Y-78829D01*
X-75603Y-78946D01*
X-75626Y-78998D01*
X-75638Y-79039D01*
X-75650Y-79069D01*
Y-79075D01*
Y-79080D01*
X-75662Y-79133D01*
X-75673Y-79191D01*
X-75685Y-79262D01*
X-75691Y-79332D01*
X-75703Y-79484D01*
X-75714Y-79642D01*
Y-79712D01*
Y-79782D01*
X-75720Y-79847D01*
Y-79899D01*
Y-79946D01*
Y-79981D01*
Y-80005D01*
Y-80010D01*
Y-80133D01*
X-75714Y-80244D01*
Y-80350D01*
X-75708Y-80449D01*
X-75703Y-80537D01*
X-75697Y-80613D01*
X-75691Y-80683D01*
X-75685Y-80748D01*
X-75673Y-80800D01*
X-75667Y-80847D01*
X-75662Y-80888D01*
X-75656Y-80917D01*
X-75650Y-80946D01*
Y-80964D01*
X-75644Y-80970D01*
Y-80976D01*
X-75621Y-81052D01*
X-75591Y-81116D01*
X-75568Y-81169D01*
X-75539Y-81210D01*
X-75515Y-81239D01*
X-75498Y-81262D01*
X-75486Y-81274D01*
X-75480Y-81280D01*
X-75439Y-81309D01*
X-75404Y-81327D01*
X-75328Y-81350D01*
X-75299Y-81356D01*
X-75275Y-81362D01*
X-75252D01*
X-75205Y-81356D01*
X-75159Y-81350D01*
X-75117Y-81338D01*
X-75082Y-81321D01*
X-75053Y-81303D01*
X-75030Y-81292D01*
X-75018Y-81286D01*
X-75012Y-81280D01*
X-74977Y-81239D01*
X-74942Y-81192D01*
X-74919Y-81139D01*
X-74895Y-81081D01*
X-74872Y-81028D01*
X-74860Y-80987D01*
X-74854Y-80958D01*
X-74848Y-80946D01*
X-74837Y-80894D01*
X-74825Y-80829D01*
X-74819Y-80765D01*
X-74813Y-80689D01*
X-74802Y-80537D01*
X-74790Y-80379D01*
Y-80309D01*
Y-80239D01*
X-74784Y-80174D01*
Y-80122D01*
Y-80075D01*
Y-80040D01*
Y-80016D01*
Y-80010D01*
Y-79888D01*
X-74790Y-79776D01*
Y-79671D01*
X-74796Y-79572D01*
X-74802Y-79484D01*
X-74808Y-79408D01*
X-74813Y-79338D01*
X-74819Y-79273D01*
X-74825Y-79221D01*
X-74831Y-79174D01*
X-74837Y-79133D01*
X-74843Y-79098D01*
X-74848Y-79075D01*
X-74854Y-79057D01*
Y-79051D01*
Y-79045D01*
X-74878Y-78969D01*
X-74901Y-78905D01*
X-74930Y-78852D01*
X-74954Y-78811D01*
X-74977Y-78782D01*
X-74995Y-78759D01*
X-75006Y-78747D01*
X-75012Y-78741D01*
X-75053Y-78712D01*
X-75094Y-78688D01*
X-75135Y-78677D01*
X-75170Y-78665D01*
X-75205Y-78659D01*
X-75229Y-78653D01*
D02*
G37*
G36*
X-78979Y-94139D02*
X-79025D01*
X-79107Y-94145D01*
X-79183Y-94162D01*
X-79248Y-94192D01*
X-79306Y-94221D01*
X-79353Y-94256D01*
X-79382Y-94279D01*
X-79406Y-94303D01*
X-79411Y-94309D01*
X-79464Y-94373D01*
X-79505Y-94443D01*
X-79528Y-94519D01*
X-79552Y-94584D01*
X-79563Y-94648D01*
X-79569Y-94695D01*
Y-94730D01*
Y-94736D01*
Y-94742D01*
X-79563Y-94853D01*
X-79546Y-94946D01*
X-79523Y-95028D01*
X-79493Y-95093D01*
X-79464Y-95145D01*
X-79441Y-95186D01*
X-79423Y-95210D01*
X-79417Y-95215D01*
X-79359Y-95268D01*
X-79294Y-95309D01*
X-79230Y-95338D01*
X-79172Y-95356D01*
X-79119Y-95368D01*
X-79078Y-95379D01*
X-79037D01*
X-78955Y-95373D01*
X-78879Y-95350D01*
X-78809Y-95327D01*
X-78756Y-95292D01*
X-78709Y-95262D01*
X-78674Y-95233D01*
X-78651Y-95215D01*
X-78645Y-95210D01*
X-78592Y-95139D01*
X-78557Y-95064D01*
X-78528Y-94987D01*
X-78510Y-94911D01*
X-78499Y-94841D01*
X-78493Y-94788D01*
Y-94748D01*
Y-94742D01*
Y-94736D01*
X-78499Y-94654D01*
X-78510Y-94578D01*
X-78534Y-94508D01*
X-78557Y-94449D01*
X-78581Y-94397D01*
X-78604Y-94362D01*
X-78616Y-94332D01*
X-78622Y-94326D01*
X-78680Y-94262D01*
X-78745Y-94215D01*
X-78809Y-94186D01*
X-78873Y-94162D01*
X-78932Y-94151D01*
X-78979Y-94139D01*
D02*
G37*
G36*
X-78990Y-92630D02*
X-79025D01*
X-79096Y-92636D01*
X-79166Y-92647D01*
X-79218Y-92671D01*
X-79265Y-92694D01*
X-79306Y-92718D01*
X-79330Y-92741D01*
X-79347Y-92753D01*
X-79353Y-92759D01*
X-79394Y-92805D01*
X-79429Y-92864D01*
X-79452Y-92917D01*
X-79464Y-92969D01*
X-79476Y-93016D01*
X-79482Y-93051D01*
Y-93075D01*
Y-93086D01*
X-79476Y-93162D01*
X-79464Y-93232D01*
X-79441Y-93291D01*
X-79417Y-93344D01*
X-79394Y-93379D01*
X-79370Y-93408D01*
X-79359Y-93426D01*
X-79353Y-93431D01*
X-79300Y-93472D01*
X-79248Y-93502D01*
X-79189Y-93525D01*
X-79137Y-93537D01*
X-79090Y-93548D01*
X-79055Y-93554D01*
X-79019D01*
X-78943Y-93548D01*
X-78879Y-93537D01*
X-78821Y-93513D01*
X-78774Y-93490D01*
X-78739Y-93472D01*
X-78709Y-93449D01*
X-78692Y-93437D01*
X-78686Y-93431D01*
X-78645Y-93379D01*
X-78616Y-93326D01*
X-78592Y-93268D01*
X-78581Y-93215D01*
X-78569Y-93168D01*
X-78563Y-93127D01*
Y-93104D01*
Y-93092D01*
X-78569Y-93016D01*
X-78581Y-92952D01*
X-78604Y-92893D01*
X-78628Y-92846D01*
X-78645Y-92811D01*
X-78668Y-92782D01*
X-78680Y-92764D01*
X-78686Y-92759D01*
X-78739Y-92718D01*
X-78791Y-92682D01*
X-78850Y-92659D01*
X-78903Y-92647D01*
X-78949Y-92636D01*
X-78990Y-92630D01*
D02*
G37*
G36*
X-41088Y-93636D02*
X-41100D01*
X-41193Y-93648D01*
X-41281Y-93671D01*
X-41357Y-93706D01*
X-41416Y-93741D01*
X-41468Y-93782D01*
X-41509Y-93817D01*
X-41533Y-93841D01*
X-41539Y-93853D01*
X-41597Y-93940D01*
X-41638Y-94040D01*
X-41673Y-94151D01*
X-41691Y-94256D01*
X-41702Y-94350D01*
X-41708Y-94391D01*
X-41714Y-94432D01*
Y-94461D01*
Y-94484D01*
Y-94496D01*
Y-94502D01*
Y-94590D01*
X-41708Y-94666D01*
X-41697Y-94742D01*
X-41685Y-94806D01*
X-41673Y-94870D01*
X-41661Y-94923D01*
X-41626Y-95017D01*
X-41597Y-95093D01*
X-41568Y-95139D01*
X-41544Y-95169D01*
X-41539Y-95180D01*
X-41474Y-95251D01*
X-41404Y-95297D01*
X-41334Y-95333D01*
X-41264Y-95362D01*
X-41205Y-95373D01*
X-41158Y-95379D01*
X-41129Y-95385D01*
X-41117D01*
X-41018Y-95373D01*
X-40930Y-95350D01*
X-40854Y-95315D01*
X-40790Y-95274D01*
X-40737Y-95233D01*
X-40696Y-95198D01*
X-40667Y-95175D01*
X-40661Y-95163D01*
X-40632Y-95116D01*
X-40602Y-95069D01*
X-40556Y-94958D01*
X-40527Y-94847D01*
X-40503Y-94730D01*
X-40491Y-94631D01*
X-40486Y-94584D01*
Y-94543D01*
X-40480Y-94513D01*
Y-94490D01*
Y-94473D01*
Y-94467D01*
X-40486Y-94320D01*
X-40509Y-94198D01*
X-40538Y-94092D01*
X-40567Y-94005D01*
X-40602Y-93934D01*
X-40626Y-93888D01*
X-40649Y-93858D01*
X-40655Y-93847D01*
X-40725Y-93776D01*
X-40801Y-93724D01*
X-40872Y-93689D01*
X-40942Y-93660D01*
X-41006Y-93648D01*
X-41053Y-93642D01*
X-41088Y-93636D01*
D02*
G37*
G36*
X-59048Y-92706D02*
X-59931D01*
X-59984Y-92712D01*
X-60101D01*
X-60153Y-92718D01*
X-60182D01*
X-60200Y-92724D01*
X-60206D01*
X-60270Y-92741D01*
X-60329Y-92759D01*
X-60375Y-92782D01*
X-60417Y-92811D01*
X-60452Y-92835D01*
X-60475Y-92858D01*
X-60487Y-92870D01*
X-60492Y-92875D01*
X-60528Y-92922D01*
X-60551Y-92975D01*
X-60574Y-93028D01*
X-60586Y-93075D01*
X-60592Y-93115D01*
X-60598Y-93151D01*
Y-93180D01*
Y-93186D01*
X-60592Y-93250D01*
X-60586Y-93303D01*
X-60574Y-93355D01*
X-60557Y-93396D01*
X-60539Y-93431D01*
X-60528Y-93455D01*
X-60522Y-93472D01*
X-60516Y-93478D01*
X-60487Y-93519D01*
X-60452Y-93548D01*
X-60381Y-93601D01*
X-60346Y-93613D01*
X-60323Y-93624D01*
X-60305Y-93636D01*
X-60299D01*
X-60270Y-93642D01*
X-60229Y-93654D01*
X-60188Y-93660D01*
X-60136Y-93665D01*
X-60024Y-93671D01*
X-59908Y-93677D01*
X-59796Y-93683D01*
X-59048D01*
Y-92706D01*
D02*
G37*
G36*
X-82430Y-92952D02*
X-82968Y-94379D01*
X-81909D01*
X-82430Y-92952D01*
D02*
G37*
%LPD*%
D19*
X-5000Y-55000D02*
Y-15000D01*
D34*
Y-55000D02*
X5000D01*
Y-15000D01*
X-5000Y-55000D02*
Y-15000D01*
X5000D01*
X-135000Y-105000D02*
Y-55000D01*
X-145000D02*
X-135000D01*
X-145000Y-105000D02*
Y-55000D01*
Y-105000D02*
X-135000D01*
X-145000Y-15000D02*
X-135000D01*
X-145000Y-55000D02*
Y-15000D01*
X-135000Y-55000D02*
Y-15000D01*
X-145000Y-55000D02*
X-135000D01*
X-5000Y-105000D02*
Y-75000D01*
Y-105000D02*
X5000D01*
Y-75000D01*
X-5000D02*
X5000D01*
X-145000Y5000D02*
X-135000D01*
Y-15000D02*
Y5000D01*
X-145000Y-15000D02*
X-135000D01*
X-145000D02*
Y5000D01*
X-5000D02*
X5000D01*
Y-15000D02*
Y5000D01*
X-5000Y-15000D02*
X5000D01*
X-5000D02*
Y5000D01*
Y-55000D02*
X5000D01*
Y-75000D02*
Y-55000D01*
X-5000Y-75000D02*
X5000D01*
X-5000D02*
Y-55000D01*
D36*
X-38968Y-69902D02*
X-42301D01*
X-40635D01*
Y-74900D01*
X-43967D02*
Y-69902D01*
X-45633Y-71568D01*
X-47299Y-69902D01*
Y-74900D01*
X-52297Y-70735D02*
X-51464Y-69902D01*
X-49798D01*
X-48965Y-70735D01*
Y-74067D01*
X-49798Y-74900D01*
X-51464D01*
X-52297Y-74067D01*
X-57296Y-69902D02*
X-53964D01*
Y-72401D01*
X-55630Y-71568D01*
X-56463D01*
X-57296Y-72401D01*
Y-74067D01*
X-56463Y-74900D01*
X-54797D01*
X-53964Y-74067D01*
X-58962Y-74900D02*
X-60628D01*
X-59795D01*
Y-69902D01*
X-58962Y-70735D01*
X-66460Y-69902D02*
X-64793Y-70735D01*
X-63127Y-72401D01*
Y-74067D01*
X-63960Y-74900D01*
X-65626D01*
X-66460Y-74067D01*
Y-73234D01*
X-65626Y-72401D01*
X-63127D01*
X-68126Y-70735D02*
X-68959Y-69902D01*
X-70625D01*
X-71458Y-70735D01*
Y-74067D01*
X-70625Y-74900D01*
X-68959D01*
X-68126Y-74067D01*
Y-70735D01*
X-73124Y-75733D02*
X-76456D01*
X-78122Y-69902D02*
Y-74900D01*
X-80622D01*
X-81455Y-74067D01*
Y-73234D01*
X-80622Y-72401D01*
X-78122D01*
X-80622D01*
X-81455Y-71568D01*
Y-70735D01*
X-80622Y-69902D01*
X-78122D01*
X-85620D02*
X-83954D01*
X-83121Y-70735D01*
Y-74067D01*
X-83954Y-74900D01*
X-85620D01*
X-86453Y-74067D01*
Y-70735D01*
X-85620Y-69902D01*
X-88119D02*
Y-74900D01*
X-90618D01*
X-91451Y-74067D01*
Y-73234D01*
X-90618Y-72401D01*
X-88119D01*
X-90618D01*
X-91451Y-71568D01*
Y-70735D01*
X-90618Y-69902D01*
X-88119D01*
X-96268Y-74900D02*
X-97935D01*
X-97101D01*
Y-69902D01*
X-96268Y-70735D01*
X-100434Y-74900D02*
Y-74067D01*
X-101267D01*
Y-74900D01*
X-100434D01*
X-107931D02*
X-104599D01*
X-107931Y-71568D01*
Y-70735D01*
X-107098Y-69902D01*
X-105432D01*
X-104599Y-70735D01*
X-9066Y-98001D02*
X-6400D01*
Y-101999D01*
X-9066D01*
X-6400Y-100000D02*
X-7733D01*
X-10399Y-101999D02*
Y-98001D01*
X-13065Y-101999D01*
Y-98001D01*
X-17063Y-98667D02*
X-16397Y-98001D01*
X-15064D01*
X-14397Y-98667D01*
Y-101333D01*
X-15064Y-101999D01*
X-16397D01*
X-17063Y-101333D01*
X-18396Y-101999D02*
Y-98001D01*
X-21062Y-101999D01*
Y-98001D01*
X-9066Y-90001D02*
X-6400D01*
Y-93999D01*
X-9066D01*
X-6400Y-92000D02*
X-7733D01*
X-10399Y-93999D02*
Y-90001D01*
X-13065Y-93999D01*
Y-90001D01*
X-17063Y-90667D02*
X-16397Y-90001D01*
X-15064D01*
X-14397Y-90667D01*
Y-93333D01*
X-15064Y-93999D01*
X-16397D01*
X-17063Y-93333D01*
X-18396Y-90001D02*
Y-93999D01*
X-20395D01*
X-21062Y-93333D01*
Y-92666D01*
X-20395Y-92000D01*
X-18396D01*
X-20395D01*
X-21062Y-91334D01*
Y-90667D01*
X-20395Y-90001D01*
X-18396D01*
X-9066Y-82001D02*
X-6400D01*
Y-85999D01*
X-9066D01*
X-6400Y-84000D02*
X-7733D01*
X-10399Y-85999D02*
Y-82001D01*
X-13065Y-85999D01*
Y-82001D01*
X-17063Y-82667D02*
X-16397Y-82001D01*
X-15064D01*
X-14397Y-82667D01*
Y-85333D01*
X-15064Y-85999D01*
X-16397D01*
X-17063Y-85333D01*
X-18396Y-85999D02*
Y-83334D01*
X-19729Y-82001D01*
X-21062Y-83334D01*
Y-85999D01*
Y-84000D01*
X-18396D01*
X-6400Y-68001D02*
Y-71999D01*
X-8399D01*
X-9066Y-71333D01*
Y-68667D01*
X-8399Y-68001D01*
X-6400D01*
X-10399D02*
X-11732D01*
X-11065D01*
Y-71999D01*
X-10399D01*
X-11732D01*
X-13731D02*
Y-69334D01*
X-15064Y-68001D01*
X-16397Y-69334D01*
Y-71999D01*
Y-70000D01*
X-13731D01*
X-20395Y-68667D02*
X-19729Y-68001D01*
X-18396D01*
X-17730Y-68667D01*
Y-71333D01*
X-18396Y-71999D01*
X-19729D01*
X-20395Y-71333D01*
Y-70000D01*
X-19063D01*
X-21728Y-68667D02*
X-22395Y-68001D01*
X-23728D01*
X-24394Y-68667D01*
Y-71333D01*
X-23728Y-71999D01*
X-22395D01*
X-21728Y-71333D01*
Y-68667D01*
X-6900Y-28001D02*
Y-31999D01*
X-8899D01*
X-9566Y-31333D01*
Y-30666D01*
X-8899Y-30000D01*
X-6900D01*
X-8899D01*
X-9566Y-29334D01*
Y-28667D01*
X-8899Y-28001D01*
X-6900D01*
X-10899Y-31999D02*
X-12232D01*
X-11565D01*
Y-28001D01*
X-10899Y-28667D01*
X-6700Y-18001D02*
Y-21999D01*
X-8699D01*
X-9366Y-21333D01*
Y-20666D01*
X-8699Y-20000D01*
X-6700D01*
X-8699D01*
X-9366Y-19333D01*
Y-18667D01*
X-8699Y-18001D01*
X-6700D01*
X-13364Y-21999D02*
X-10699D01*
X-13364Y-19333D01*
Y-18667D01*
X-12698Y-18001D01*
X-11365D01*
X-10699Y-18667D01*
X-10266Y-58667D02*
X-9599Y-58001D01*
X-8266D01*
X-7600Y-58667D01*
Y-61333D01*
X-8266Y-61999D01*
X-9599D01*
X-10266Y-61333D01*
Y-60000D01*
X-8933D01*
X-11599Y-61999D02*
Y-58001D01*
X-14265Y-61999D01*
Y-58001D01*
X-15597D02*
Y-61999D01*
X-17597D01*
X-18263Y-61333D01*
Y-58667D01*
X-17597Y-58001D01*
X-15597D01*
X-7337Y1999D02*
Y-667D01*
X-8670Y-2000D01*
X-10003Y-667D01*
Y1999D01*
X-14001Y1332D02*
X-13335Y1999D01*
X-12002D01*
X-11336Y1332D01*
Y666D01*
X-12002Y-1D01*
X-13335D01*
X-14001Y-667D01*
Y-1333D01*
X-13335Y-2000D01*
X-12002D01*
X-11336Y-1333D01*
X-10003Y-8668D02*
X-9336Y-8001D01*
X-8003D01*
X-7337Y-8668D01*
Y-11333D01*
X-8003Y-12000D01*
X-9336D01*
X-10003Y-11333D01*
Y-10001D01*
X-8670D01*
X-11336Y-12000D02*
Y-8001D01*
X-14001Y-12000D01*
Y-8001D01*
X-15334D02*
Y-12000D01*
X-17334D01*
X-18000Y-11333D01*
Y-8668D01*
X-17334Y-8001D01*
X-15334D01*
X-7600Y-41999D02*
Y-39334D01*
X-8933Y-38001D01*
X-10266Y-39334D01*
Y-41999D01*
Y-40000D01*
X-7600D01*
X-14265Y-41999D02*
X-11599D01*
X-14265Y-39334D01*
Y-38667D01*
X-13598Y-38001D01*
X-12265D01*
X-11599Y-38667D01*
X-7600Y-51999D02*
Y-49334D01*
X-8933Y-48001D01*
X-10266Y-49334D01*
Y-51999D01*
Y-50000D01*
X-7600D01*
X-11599Y-51999D02*
X-12932D01*
X-12265D01*
Y-48001D01*
X-11599Y-48667D01*
X-124503Y-58667D02*
X-123836Y-58001D01*
X-122503D01*
X-121837Y-58667D01*
Y-61333D01*
X-122503Y-61999D01*
X-123836D01*
X-124503Y-61333D01*
Y-60000D01*
X-123170D01*
X-125836Y-61999D02*
Y-58001D01*
X-128501Y-61999D01*
Y-58001D01*
X-129834D02*
Y-61999D01*
X-131834D01*
X-132500Y-61333D01*
Y-58667D01*
X-131834Y-58001D01*
X-129834D01*
X-117172Y-68667D02*
X-116505Y-68001D01*
X-115172D01*
X-114506Y-68667D01*
Y-71333D01*
X-115172Y-71999D01*
X-116505D01*
X-117172Y-71333D01*
X-118505Y-68001D02*
Y-71999D01*
X-121170D01*
X-122503Y-68001D02*
Y-71999D01*
Y-70666D01*
X-125169Y-68001D01*
X-123170Y-70000D01*
X-125169Y-71999D01*
X-126502D02*
X-127835D01*
X-127168D01*
Y-68001D01*
X-126502Y-68667D01*
X-132500Y-68001D02*
X-131167Y-68667D01*
X-129834Y-70000D01*
Y-71333D01*
X-130501Y-71999D01*
X-131834D01*
X-132500Y-71333D01*
Y-70666D01*
X-131834Y-70000D01*
X-129834D01*
X-117838Y-91999D02*
Y-88001D01*
X-119837D01*
X-120504Y-88667D01*
Y-90000D01*
X-119837Y-90666D01*
X-117838D01*
X-119171D02*
X-120504Y-91999D01*
X-124503Y-88001D02*
X-121837D01*
Y-91999D01*
X-124503D01*
X-121837Y-90000D02*
X-123170D01*
X-128501Y-88001D02*
X-125836D01*
Y-90000D01*
X-127168D01*
X-125836D01*
Y-91999D01*
X-129834Y-88001D02*
Y-91999D01*
X-132500D01*
X-105842Y-78001D02*
Y-81999D01*
X-107841D01*
X-108508Y-81333D01*
Y-78667D01*
X-107841Y-78001D01*
X-105842D01*
X-109841Y-81999D02*
Y-78001D01*
X-111840D01*
X-112506Y-78667D01*
Y-80000D01*
X-111840Y-80666D01*
X-109841D01*
X-111174D02*
X-112506Y-81999D01*
X-113839Y-78001D02*
Y-80666D01*
X-115172Y-81999D01*
X-116505Y-80666D01*
Y-78001D01*
X-117838Y-82666D02*
X-120504D01*
X-124503Y-78001D02*
X-121837D01*
Y-81999D01*
X-124503D01*
X-121837Y-80000D02*
X-123170D01*
X-125836Y-81999D02*
Y-78001D01*
X-128501Y-81999D01*
Y-78001D01*
X-129834Y-81999D02*
Y-78001D01*
X-132500Y-81999D01*
Y-78001D01*
X-117838Y-101999D02*
Y-98001D01*
X-119837D01*
X-120504Y-98667D01*
Y-100000D01*
X-119837Y-100666D01*
X-117838D01*
X-119171D02*
X-120504Y-101999D01*
X-124503Y-98001D02*
X-121837D01*
Y-101999D01*
X-124503D01*
X-121837Y-100000D02*
X-123170D01*
X-128501Y-98001D02*
X-125836D01*
Y-100000D01*
X-127168D01*
X-125836D01*
Y-101999D01*
X-129834D02*
Y-98001D01*
X-131834D01*
X-132500Y-98667D01*
Y-100000D01*
X-131834Y-100666D01*
X-129834D01*
X-131167D02*
X-132500Y-101999D01*
X-124503Y-48667D02*
X-123836Y-48001D01*
X-122503D01*
X-121837Y-48667D01*
Y-49334D01*
X-122503Y-50000D01*
X-123836D01*
X-124503Y-50666D01*
Y-51333D01*
X-123836Y-51999D01*
X-122503D01*
X-121837Y-51333D01*
X-125836Y-48001D02*
Y-51999D01*
X-127835D01*
X-128501Y-51333D01*
Y-48667D01*
X-127835Y-48001D01*
X-125836D01*
X-131834D02*
X-130501D01*
X-129834Y-48667D01*
Y-51333D01*
X-130501Y-51999D01*
X-131834D01*
X-132500Y-51333D01*
Y-48667D01*
X-131834Y-48001D01*
X-124503Y-28667D02*
X-123836Y-28001D01*
X-122503D01*
X-121837Y-28667D01*
Y-29334D01*
X-122503Y-30000D01*
X-123836D01*
X-124503Y-30666D01*
Y-31333D01*
X-123836Y-31999D01*
X-122503D01*
X-121837Y-31333D01*
X-128501Y-28667D02*
X-127835Y-28001D01*
X-126502D01*
X-125836Y-28667D01*
Y-31333D01*
X-126502Y-31999D01*
X-127835D01*
X-128501Y-31333D01*
X-129834Y-28001D02*
Y-31999D01*
Y-30666D01*
X-132500Y-28001D01*
X-130501Y-30000D01*
X-132500Y-31999D01*
X-125836Y-38667D02*
X-125169Y-38001D01*
X-123836D01*
X-123170Y-38667D01*
Y-39334D01*
X-123836Y-40000D01*
X-125169D01*
X-125836Y-40666D01*
Y-41333D01*
X-125169Y-41999D01*
X-123836D01*
X-123170Y-41333D01*
X-127168Y-38001D02*
Y-41999D01*
X-129168D01*
X-129834Y-41333D01*
Y-38667D01*
X-129168Y-38001D01*
X-127168D01*
X-131167D02*
X-132500D01*
X-131834D01*
Y-41999D01*
X-131167D01*
X-132500D01*
X-124503Y-18667D02*
X-123836Y-18001D01*
X-122503D01*
X-121837Y-18667D01*
Y-21333D01*
X-122503Y-21999D01*
X-123836D01*
X-124503Y-21333D01*
X-128501Y-18667D02*
X-127835Y-18001D01*
X-126502D01*
X-125836Y-18667D01*
Y-19333D01*
X-126502Y-20000D01*
X-127835D01*
X-128501Y-20666D01*
Y-21333D01*
X-127835Y-21999D01*
X-126502D01*
X-125836Y-21333D01*
X-129834Y-21999D02*
Y-18001D01*
X-132500Y-21999D01*
Y-18001D01*
X-124503Y-8667D02*
X-123836Y-8001D01*
X-122503D01*
X-121837Y-8667D01*
Y-11333D01*
X-122503Y-11999D01*
X-123836D01*
X-124503Y-11333D01*
Y-10000D01*
X-123170D01*
X-125836Y-11999D02*
Y-8001D01*
X-128501Y-11999D01*
Y-8001D01*
X-129834D02*
Y-11999D01*
X-131834D01*
X-132500Y-11333D01*
Y-8667D01*
X-131834Y-8001D01*
X-129834D01*
X-110407Y1999D02*
Y-667D01*
X-111740Y-1999D01*
X-113073Y-667D01*
Y1999D01*
X-117072Y1333D02*
X-116405Y1999D01*
X-115072D01*
X-114406Y1333D01*
Y-1333D01*
X-115072Y-1999D01*
X-116405D01*
X-117072Y-1333D01*
X-121070Y1333D02*
X-120404Y1999D01*
X-119071D01*
X-118404Y1333D01*
Y-1333D01*
X-119071Y-1999D01*
X-120404D01*
X-121070Y-1333D01*
X-122403Y-2666D02*
X-125069D01*
X-126402Y1999D02*
X-127735D01*
X-127068D01*
Y-1999D01*
X-126402D01*
X-127735D01*
X-131734Y1999D02*
X-130401D01*
X-129734Y1333D01*
Y-1333D01*
X-130401Y-1999D01*
X-131734D01*
X-132400Y-1333D01*
Y1333D01*
X-131734Y1999D01*
M02*
