G04 Layer_Physical_Order=4*
G04 Layer_Color=16711680*
%FSLAX25Y25*%
%MOIN*%
G70*
G01*
G75*
%ADD19C,0.00800*%
%ADD23C,0.06299*%
%ADD24C,0.05905*%
%ADD25C,0.02800*%
%ADD26C,0.02200*%
%ADD27C,0.02981*%
%ADD28C,0.02400*%
%ADD29C,0.02410*%
%ADD30C,0.01968*%
G36*
X-47656Y-7849D02*
X-46905Y-8600D01*
Y-15070D01*
Y-18412D01*
X-40268Y-25049D01*
X-25958D01*
X-25571Y-25549D01*
X-25641Y-25900D01*
X-25501Y-26602D01*
X-25103Y-27198D01*
X-24508Y-27596D01*
X-23806Y-27735D01*
X-23103Y-27596D01*
X-22508Y-27198D01*
X-22110Y-26602D01*
X-21970Y-25900D01*
X-22040Y-25549D01*
X-21653Y-25049D01*
X3190D01*
Y-34900D01*
X-24635D01*
X-25268Y-34817D01*
X-25902Y-34900D01*
X-34635D01*
X-35268Y-34817D01*
X-35902Y-34900D01*
X-51997D01*
X-69297Y-17600D01*
X-69305D01*
X-70205Y-16700D01*
X-70205Y-8642D01*
X-69413Y-7849D01*
X-47656Y-7849D01*
D02*
G37*
G36*
X3190Y-45954D02*
Y-54600D01*
X-6968Y-54600D01*
X-36268Y-83900D01*
X-36268Y-85572D01*
X-36655Y-85889D01*
X-36768Y-85867D01*
X-37432Y-85999D01*
X-37994Y-86374D01*
X-38370Y-86937D01*
X-38502Y-87600D01*
X-38370Y-88263D01*
X-37994Y-88826D01*
X-37432Y-89201D01*
X-36768Y-89333D01*
X-36655Y-89311D01*
X-36268Y-89628D01*
X-36268Y-90572D01*
X-36655Y-90889D01*
X-36768Y-90867D01*
X-37432Y-90999D01*
X-37994Y-91374D01*
X-38370Y-91937D01*
X-38502Y-92600D01*
X-38370Y-93263D01*
X-37994Y-93826D01*
X-37432Y-94201D01*
X-36768Y-94333D01*
X-36654Y-94311D01*
X-36268Y-94628D01*
X-36268Y-95456D01*
X-36768Y-95867D01*
X-36768Y-95867D01*
X-37432Y-95999D01*
X-37994Y-96374D01*
X-38370Y-96937D01*
X-38502Y-97600D01*
X-38418Y-98019D01*
X-43299Y-102900D01*
X-60115Y-102900D01*
X-60156Y-102800D01*
X-65806Y-102800D01*
X-66706Y-101900D01*
X-66705Y-93682D01*
X-66124Y-93100D01*
X-50968D01*
X-50918Y-93049D01*
X-50768D01*
X-50309Y-92859D01*
X-42946Y-85496D01*
X-42946Y-85496D01*
X-42946Y-85496D01*
X-42871Y-85316D01*
X-42756Y-85037D01*
X-42756Y-85037D01*
X-42756Y-85037D01*
X-42756Y-83800D01*
Y-77888D01*
X-10469Y-45600D01*
X2837Y-45600D01*
X3190Y-45954D01*
D02*
G37*
G36*
X-47905Y2400D02*
X-47905Y2400D01*
X-43568Y2400D01*
X-40856Y-313D01*
X-41019Y-857D01*
X-41494Y-1174D01*
X-41870Y-1737D01*
X-42002Y-2400D01*
X-41870Y-3063D01*
X-41494Y-3626D01*
X-40932Y-4001D01*
X-40268Y-4133D01*
X-40268Y-5667D01*
X-40932Y-5799D01*
X-41494Y-6174D01*
X-41870Y-6737D01*
X-42002Y-7400D01*
X-41870Y-8063D01*
X-41494Y-8626D01*
X-40932Y-9001D01*
X-40268Y-9133D01*
X-40268Y-10667D01*
X-40932Y-10799D01*
X-41494Y-11174D01*
X-41870Y-11737D01*
X-42002Y-12400D01*
X-41870Y-13063D01*
X-41494Y-13626D01*
X-40932Y-14001D01*
X-40268Y-14133D01*
X-39951Y-14070D01*
X-39560Y-14502D01*
X-39639Y-14900D01*
X-39507Y-15563D01*
X-39131Y-16126D01*
X-38569Y-16501D01*
X-37905Y-16633D01*
X-37242Y-16501D01*
X-36680Y-16126D01*
X-36304Y-15563D01*
X-36272Y-15400D01*
X-9701D01*
X-9408Y-15596D01*
X-8705Y-15735D01*
X-8003Y-15596D01*
X-7711Y-15400D01*
X3190D01*
Y-24400D01*
X-22810D01*
X-23103Y-24204D01*
X-23806Y-24065D01*
X-24508Y-24204D01*
X-24801Y-24400D01*
X-39999D01*
X-46256Y-18143D01*
Y-15070D01*
Y-8600D01*
X-46352Y-8370D01*
X-46446Y-8141D01*
X-47197Y-7390D01*
X-47197Y-7390D01*
X-47197Y-7390D01*
X-47413Y-7301D01*
X-47506Y-7262D01*
Y-7200D01*
X-69705Y-7200D01*
X-70205Y-6700D01*
X-70205Y1519D01*
X-69324Y2400D01*
X-47905Y2400D01*
D02*
G37*
G36*
X-110107Y-34870D02*
Y-62832D01*
X-110607Y-62984D01*
X-110680Y-62874D01*
X-111242Y-62499D01*
X-111906Y-62367D01*
X-112569Y-62499D01*
X-113131Y-62874D01*
X-113269Y-63080D01*
X-117055D01*
X-117446Y-63158D01*
X-117776Y-63379D01*
X-119367Y-64969D01*
X-119588Y-65300D01*
X-119665Y-65690D01*
Y-66483D01*
X-120165Y-66830D01*
X-120560Y-66752D01*
X-121223Y-66884D01*
X-121786Y-67259D01*
X-122161Y-67822D01*
X-122293Y-68485D01*
X-122245Y-68728D01*
X-132497Y-78980D01*
X-136577D01*
X-136897Y-78208D01*
X-137466Y-77466D01*
X-138208Y-76897D01*
X-139073Y-76539D01*
X-140000Y-76417D01*
X-140927Y-76539D01*
X-141792Y-76897D01*
X-142534Y-77466D01*
X-142691Y-77670D01*
X-143191Y-77500D01*
Y-72499D01*
X-142691Y-72330D01*
X-142534Y-72534D01*
X-141792Y-73103D01*
X-140927Y-73461D01*
X-140000Y-73583D01*
X-139073Y-73461D01*
X-138208Y-73103D01*
X-137466Y-72534D01*
X-136897Y-71792D01*
X-136539Y-70927D01*
X-136417Y-70000D01*
X-136539Y-69073D01*
X-136858Y-68300D01*
X-132379Y-63821D01*
X-132158Y-63490D01*
X-132080Y-63100D01*
Y-55422D01*
X-111143Y-34485D01*
X-110900Y-34533D01*
X-110607Y-34475D01*
X-110107Y-34870D01*
D02*
G37*
G36*
X-118965Y-69989D02*
Y-71735D01*
X-118888Y-72125D01*
X-118667Y-72456D01*
X-109839Y-81284D01*
X-109855Y-81412D01*
X-110036Y-81794D01*
X-110563Y-81899D01*
X-111126Y-82274D01*
X-111501Y-82837D01*
X-111633Y-83500D01*
X-111501Y-84163D01*
X-111126Y-84726D01*
X-110563Y-85101D01*
X-109900Y-85233D01*
X-109237Y-85101D01*
X-108674Y-84726D01*
X-108299Y-84163D01*
X-108194Y-83636D01*
X-107812Y-83455D01*
X-107684Y-83439D01*
X-101802Y-89321D01*
X-101471Y-89542D01*
X-101081Y-89620D01*
X-88938D01*
X-88548Y-89542D01*
X-88217Y-89321D01*
X-70356Y-71460D01*
X-69823Y-71634D01*
X-69494Y-72126D01*
X-69288Y-72263D01*
Y-91237D01*
X-69210Y-91627D01*
X-68989Y-91958D01*
X-67329Y-93619D01*
X-67355Y-93682D01*
X-67355Y-101900D01*
X-67355Y-101900D01*
X-67355Y-101900D01*
X-67273Y-102098D01*
X-67165Y-102359D01*
X-67165Y-102359D01*
X-67165Y-102359D01*
X-66795Y-102728D01*
X-66987Y-103190D01*
X-137501D01*
X-137670Y-102690D01*
X-137466Y-102534D01*
X-136897Y-101792D01*
X-136539Y-100927D01*
X-136417Y-100000D01*
X-136539Y-99073D01*
X-136897Y-98208D01*
X-137466Y-97466D01*
X-138208Y-96897D01*
X-139073Y-96539D01*
X-140000Y-96417D01*
X-140927Y-96539D01*
X-141792Y-96897D01*
X-142534Y-97466D01*
X-142691Y-97670D01*
X-143191Y-97500D01*
Y-92500D01*
X-142691Y-92330D01*
X-142534Y-92534D01*
X-141792Y-93103D01*
X-140927Y-93461D01*
X-140000Y-93583D01*
X-139073Y-93461D01*
X-138208Y-93103D01*
X-137466Y-92534D01*
X-136897Y-91792D01*
X-136539Y-90927D01*
X-136417Y-90000D01*
X-136539Y-89073D01*
X-136897Y-88208D01*
X-137466Y-87466D01*
X-138208Y-86897D01*
X-139073Y-86539D01*
X-140000Y-86417D01*
X-140927Y-86539D01*
X-141792Y-86897D01*
X-142534Y-87466D01*
X-142691Y-87670D01*
X-143191Y-87501D01*
Y-82499D01*
X-142691Y-82330D01*
X-142534Y-82534D01*
X-141792Y-83103D01*
X-140927Y-83461D01*
X-140000Y-83583D01*
X-139073Y-83461D01*
X-138208Y-83103D01*
X-137466Y-82534D01*
X-136897Y-81792D01*
X-136577Y-81020D01*
X-132075D01*
X-131685Y-80942D01*
X-131354Y-80721D01*
X-120803Y-70170D01*
X-120560Y-70218D01*
X-119897Y-70086D01*
X-119465Y-69798D01*
X-118965Y-69989D01*
D02*
G37*
G36*
X-49872Y-69881D02*
X-62141Y-82151D01*
X-65824D01*
X-66283Y-82341D01*
X-66749Y-82806D01*
X-67249Y-82599D01*
Y-72263D01*
X-67043Y-72126D01*
X-66667Y-71563D01*
X-66535Y-70900D01*
X-66650Y-70320D01*
X-66396Y-69820D01*
X-64720D01*
X-64219Y-70321D01*
X-63888Y-70542D01*
X-63498Y-70620D01*
X-59439D01*
X-59049Y-70542D01*
X-58718Y-70321D01*
X-57816Y-69420D01*
X-50064D01*
X-49872Y-69881D01*
D02*
G37*
G36*
X3190Y-55249D02*
Y-56900D01*
X2690Y-57082D01*
X1993Y-56547D01*
X1032Y-56149D01*
X750Y-56112D01*
Y-60000D01*
Y-63888D01*
X1032Y-63851D01*
X1993Y-63453D01*
X2690Y-62918D01*
X3190Y-63100D01*
Y-67501D01*
X2690Y-67670D01*
X2534Y-67466D01*
X1792Y-66897D01*
X927Y-66539D01*
X0Y-66417D01*
X-927Y-66539D01*
X-1792Y-66897D01*
X-2534Y-67466D01*
X-3103Y-68208D01*
X-3461Y-69073D01*
X-3583Y-70000D01*
X-3461Y-70927D01*
X-3103Y-71792D01*
X-2534Y-72534D01*
X-1792Y-73103D01*
X-927Y-73461D01*
X0Y-73583D01*
X927Y-73461D01*
X1792Y-73103D01*
X2534Y-72534D01*
X2690Y-72330D01*
X3190Y-72500D01*
X3190Y-77500D01*
X2690Y-77670D01*
X2534Y-77466D01*
X1792Y-76897D01*
X927Y-76539D01*
X0Y-76417D01*
X-927Y-76539D01*
X-1792Y-76897D01*
X-2534Y-77466D01*
X-3103Y-78208D01*
X-3461Y-79073D01*
X-3583Y-80000D01*
X-3461Y-80927D01*
X-3103Y-81792D01*
X-2534Y-82534D01*
X-1792Y-83103D01*
X-927Y-83461D01*
X0Y-83583D01*
X927Y-83461D01*
X1792Y-83103D01*
X2534Y-82534D01*
X2690Y-82330D01*
X3190Y-82499D01*
Y-87501D01*
X2690Y-87670D01*
X2534Y-87466D01*
X1792Y-86897D01*
X927Y-86539D01*
X0Y-86417D01*
X-927Y-86539D01*
X-1792Y-86897D01*
X-2534Y-87466D01*
X-3103Y-88208D01*
X-3461Y-89073D01*
X-3583Y-90000D01*
X-3461Y-90927D01*
X-3103Y-91792D01*
X-2534Y-92534D01*
X-1792Y-93103D01*
X-927Y-93461D01*
X0Y-93583D01*
X927Y-93461D01*
X1792Y-93103D01*
X2534Y-92534D01*
X2690Y-92330D01*
X3190Y-92500D01*
X3190Y-97500D01*
X2690Y-97670D01*
X2534Y-97466D01*
X1792Y-96897D01*
X927Y-96539D01*
X0Y-96417D01*
X-927Y-96539D01*
X-1792Y-96897D01*
X-2534Y-97466D01*
X-3103Y-98208D01*
X-3461Y-99073D01*
X-3583Y-100000D01*
X-3461Y-100927D01*
X-3103Y-101792D01*
X-2534Y-102534D01*
X-2330Y-102690D01*
X-2499Y-103190D01*
X-42018D01*
X-42209Y-102728D01*
X-38278Y-98798D01*
X-37994Y-98826D01*
X-37432Y-99201D01*
X-36768Y-99333D01*
X-36451Y-99270D01*
X-36060Y-99702D01*
X-36139Y-100100D01*
X-36007Y-100763D01*
X-35631Y-101326D01*
X-35069Y-101701D01*
X-34405Y-101833D01*
X-33742Y-101701D01*
X-33180Y-101326D01*
X-32804Y-100763D01*
X-32672Y-100100D01*
X-32804Y-99437D01*
X-33180Y-98874D01*
X-33742Y-98499D01*
X-34405Y-98367D01*
X-34723Y-98430D01*
X-35114Y-97998D01*
X-35035Y-97600D01*
X-35114Y-97202D01*
X-34723Y-96770D01*
X-34405Y-96833D01*
X-33742Y-96701D01*
X-33180Y-96326D01*
X-32804Y-95763D01*
X-32672Y-95100D01*
X-32804Y-94437D01*
X-33180Y-93874D01*
X-33742Y-93499D01*
X-34405Y-93367D01*
X-34723Y-93430D01*
X-35114Y-92998D01*
X-35035Y-92600D01*
X-35114Y-92202D01*
X-34723Y-91770D01*
X-34405Y-91833D01*
X-33742Y-91701D01*
X-33180Y-91326D01*
X-32804Y-90763D01*
X-32672Y-90100D01*
X-32804Y-89437D01*
X-33180Y-88874D01*
X-33742Y-88499D01*
X-34405Y-88367D01*
X-34723Y-88430D01*
X-35114Y-87998D01*
X-35035Y-87600D01*
X-35114Y-87202D01*
X-34723Y-86770D01*
X-34405Y-86833D01*
X-33742Y-86701D01*
X-33180Y-86326D01*
X-32804Y-85763D01*
X-32672Y-85100D01*
X-32804Y-84437D01*
X-33180Y-83874D01*
X-33742Y-83499D01*
X-34159Y-83416D01*
X-34331Y-82881D01*
X-6699Y-55249D01*
X3190Y-55249D01*
D02*
G37*
G36*
Y-44951D02*
X-10737D01*
X-43406Y-77619D01*
Y-83800D01*
X-43405Y-85037D01*
X-50768Y-92400D01*
X-65664D01*
X-66706Y-91358D01*
X-66705Y-83681D01*
X-65824Y-82800D01*
X-65171D01*
D01*
X-61872D01*
X-48816Y-69744D01*
X-48432Y-70001D01*
X-47768Y-70133D01*
X-47105Y-70001D01*
X-46543Y-69626D01*
X-46167Y-69063D01*
X-46035Y-68400D01*
X-46167Y-67737D01*
X-46424Y-67352D01*
X-14622Y-35549D01*
X3190D01*
X3190Y-44951D01*
D02*
G37*
G36*
X-2330Y2690D02*
X-2534Y2534D01*
X-3103Y1792D01*
X-3461Y927D01*
X-3583Y0D01*
X-3461Y-927D01*
X-3103Y-1792D01*
X-2534Y-2534D01*
X-1792Y-3103D01*
X-927Y-3461D01*
X0Y-3583D01*
X927Y-3461D01*
X1792Y-3103D01*
X2534Y-2534D01*
X2691Y-2330D01*
X3190Y-2499D01*
Y-6900D01*
X2691Y-7082D01*
X1993Y-6547D01*
X1032Y-6149D01*
X750Y-6112D01*
Y-10000D01*
Y-13888D01*
X1032Y-13851D01*
X1993Y-13453D01*
X2691Y-12918D01*
X3190Y-13100D01*
Y-14251D01*
X3190Y-14751D01*
X-7711D01*
X-7886Y-14823D01*
X-8071Y-14860D01*
X-8257Y-14984D01*
X-8705Y-15073D01*
X-9154Y-14984D01*
X-9340Y-14860D01*
X-9526Y-14823D01*
X-9701Y-14751D01*
X-19420D01*
X-19656Y-14310D01*
X-19584Y-14202D01*
X-19444Y-13500D01*
X-19584Y-12798D01*
X-19982Y-12202D01*
X-20577Y-11804D01*
X-21279Y-11665D01*
X-21982Y-11804D01*
X-22577Y-12202D01*
X-22975Y-12798D01*
X-23115Y-13500D01*
X-22975Y-14202D01*
X-22903Y-14310D01*
X-23139Y-14751D01*
X-36202D01*
X-36304Y-14237D01*
X-36680Y-13674D01*
X-37242Y-13299D01*
X-37905Y-13167D01*
X-38223Y-13230D01*
X-38614Y-12798D01*
X-38535Y-12400D01*
X-38614Y-12002D01*
X-38223Y-11570D01*
X-37905Y-11633D01*
X-37242Y-11501D01*
X-36680Y-11126D01*
X-36304Y-10563D01*
X-36172Y-9900D01*
X-36304Y-9237D01*
X-36680Y-8674D01*
X-37242Y-8299D01*
X-37905Y-8167D01*
X-38223Y-8230D01*
X-38614Y-7798D01*
X-38535Y-7400D01*
X-38614Y-7002D01*
X-38223Y-6570D01*
X-37905Y-6633D01*
X-37242Y-6501D01*
X-36680Y-6126D01*
X-36304Y-5563D01*
X-36172Y-4900D01*
X-36304Y-4237D01*
X-36680Y-3674D01*
X-37242Y-3299D01*
X-37905Y-3167D01*
X-38223Y-3230D01*
X-38614Y-2798D01*
X-38535Y-2400D01*
X-38614Y-2002D01*
X-38223Y-1570D01*
X-37905Y-1633D01*
X-37242Y-1501D01*
X-36680Y-1126D01*
X-36304Y-563D01*
X-36172Y100D01*
X-36304Y763D01*
X-36680Y1326D01*
X-37242Y1701D01*
X-37905Y1833D01*
X-38569Y1701D01*
X-39131Y1326D01*
X-39507Y763D01*
X-39639Y100D01*
X-40066Y-317D01*
X-40148Y-314D01*
X-40214Y-284D01*
X-40284Y-4D01*
X-40360Y57D01*
X-40397Y147D01*
X-42940Y2690D01*
X-42733Y3190D01*
X-2499D01*
X-2330Y2690D01*
D02*
G37*
G36*
X-69952D02*
X-70665Y1978D01*
X-70855Y1519D01*
X-70855Y-6408D01*
X-71989Y-7542D01*
X-72210Y-7873D01*
X-72288Y-8263D01*
Y-17900D01*
X-72210Y-18290D01*
X-71989Y-18621D01*
X-66375Y-24235D01*
X-66622Y-24696D01*
X-66768Y-24667D01*
X-67432Y-24799D01*
X-67994Y-25174D01*
X-68370Y-25737D01*
X-68502Y-26400D01*
X-68370Y-27063D01*
X-67994Y-27626D01*
X-67788Y-27763D01*
Y-31978D01*
X-72525Y-36715D01*
X-72768Y-36667D01*
X-73432Y-36799D01*
X-73994Y-37174D01*
X-74370Y-37737D01*
X-74502Y-38400D01*
X-74370Y-39063D01*
X-73994Y-39626D01*
X-73432Y-40001D01*
X-72768Y-40133D01*
X-72105Y-40001D01*
X-71543Y-39626D01*
X-71167Y-39063D01*
X-71035Y-38400D01*
X-71083Y-38157D01*
X-66047Y-33121D01*
X-65826Y-32790D01*
X-65749Y-32400D01*
Y-27763D01*
X-65543Y-27626D01*
X-65167Y-27063D01*
X-65035Y-26400D01*
X-65053Y-26311D01*
X-64621Y-26085D01*
X-64288Y-26351D01*
Y-35537D01*
X-64494Y-35674D01*
X-64870Y-36237D01*
X-65002Y-36900D01*
X-64870Y-37563D01*
X-64494Y-38126D01*
X-63932Y-38501D01*
X-63268Y-38633D01*
X-62605Y-38501D01*
X-62043Y-38126D01*
X-61667Y-37563D01*
X-61535Y-36900D01*
X-61667Y-36237D01*
X-62043Y-35674D01*
X-62249Y-35537D01*
Y-26274D01*
X-61749Y-26066D01*
X-52456Y-35359D01*
X-51997Y-35549D01*
X-38178D01*
X-37943Y-36049D01*
X-38372Y-36608D01*
X-38730Y-37473D01*
X-38852Y-38400D01*
X-38730Y-39327D01*
X-38372Y-40192D01*
X-37802Y-40934D01*
X-37060Y-41503D01*
X-36196Y-41861D01*
X-35268Y-41983D01*
X-34341Y-41861D01*
X-33477Y-41503D01*
X-32735Y-40934D01*
X-32165Y-40192D01*
X-31807Y-39327D01*
X-31685Y-38400D01*
X-31807Y-37473D01*
X-32165Y-36608D01*
X-32594Y-36049D01*
X-32359Y-35549D01*
X-28694D01*
X-28447Y-36049D01*
X-28721Y-36407D01*
X-29119Y-37368D01*
X-29157Y-37650D01*
X-21380D01*
X-21417Y-37368D01*
X-21816Y-36407D01*
X-22090Y-36049D01*
X-21843Y-35549D01*
X-16193D01*
X-16002Y-36011D01*
X-46883Y-66893D01*
X-46939Y-66910D01*
X-47105Y-66799D01*
X-47719Y-66677D01*
X-47771Y-66663D01*
X-48099Y-66223D01*
X-48035Y-65900D01*
X-48167Y-65237D01*
X-48543Y-64674D01*
X-49105Y-64299D01*
X-49719Y-64177D01*
X-49771Y-64163D01*
X-50099Y-63723D01*
X-50035Y-63400D01*
X-50167Y-62737D01*
X-50543Y-62174D01*
X-51105Y-61799D01*
X-51504Y-61719D01*
X-51753Y-61193D01*
X-51667Y-61063D01*
X-51535Y-60400D01*
X-51667Y-59737D01*
X-52043Y-59174D01*
X-52605Y-58799D01*
X-53268Y-58667D01*
X-53932Y-58799D01*
X-54494Y-59174D01*
X-54870Y-59737D01*
X-54878Y-59780D01*
X-100342D01*
X-100480Y-59574D01*
X-101042Y-59199D01*
X-101706Y-59067D01*
X-102369Y-59199D01*
X-102931Y-59574D01*
X-103307Y-60137D01*
X-103439Y-60800D01*
X-103307Y-61463D01*
X-102931Y-62026D01*
X-102369Y-62401D01*
X-101706Y-62533D01*
X-101042Y-62401D01*
X-100480Y-62026D01*
X-100342Y-61820D01*
X-54617D01*
X-54572Y-61880D01*
X-54823Y-62380D01*
X-57199D01*
X-57589Y-62458D01*
X-57920Y-62679D01*
X-59381Y-64140D01*
X-59914Y-63966D01*
X-60243Y-63474D01*
X-60805Y-63099D01*
X-61468Y-62967D01*
X-62132Y-63099D01*
X-62694Y-63474D01*
X-62765Y-63580D01*
X-82409D01*
X-82480Y-63474D01*
X-83042Y-63099D01*
X-83706Y-62967D01*
X-84369Y-63099D01*
X-84931Y-63474D01*
X-85307Y-64037D01*
X-85439Y-64700D01*
X-85307Y-65363D01*
X-84931Y-65926D01*
X-84369Y-66301D01*
X-83706Y-66433D01*
X-83042Y-66301D01*
X-82480Y-65926D01*
X-82275Y-65620D01*
X-72013D01*
X-71821Y-66082D01*
X-90520Y-84780D01*
X-95460D01*
X-95598Y-84496D01*
X-95650Y-84280D01*
X-95304Y-83763D01*
X-95172Y-83100D01*
X-95304Y-82437D01*
X-95680Y-81874D01*
X-96242Y-81499D01*
X-96905Y-81367D01*
X-96961Y-81378D01*
X-106668Y-71672D01*
Y-35410D01*
X-100943Y-29685D01*
X-100700Y-29733D01*
X-100037Y-29601D01*
X-99743Y-29405D01*
X-99205Y-29562D01*
X-99185Y-29588D01*
X-98826Y-30126D01*
X-98263Y-30501D01*
X-97600Y-30633D01*
X-96937Y-30501D01*
X-96374Y-30126D01*
X-95999Y-29563D01*
X-95867Y-28900D01*
X-95999Y-28237D01*
X-96374Y-27674D01*
X-96937Y-27299D01*
X-97491Y-27188D01*
X-97588Y-27091D01*
X-97658Y-26740D01*
X-97879Y-26409D01*
X-98866Y-25422D01*
X-98874Y-24826D01*
X-98832Y-24763D01*
X-98499Y-24263D01*
X-98367Y-23600D01*
X-98499Y-22937D01*
X-98874Y-22374D01*
X-99437Y-21999D01*
X-100100Y-21867D01*
X-100763Y-21999D01*
X-101326Y-22374D01*
X-101701Y-22937D01*
X-101833Y-23600D01*
X-101701Y-24263D01*
X-101612Y-24398D01*
X-101611Y-24406D01*
X-101853Y-24937D01*
X-101960Y-24958D01*
X-102291Y-25179D01*
X-103521Y-26409D01*
X-103742Y-26740D01*
X-103820Y-27130D01*
Y-27248D01*
X-108812Y-32240D01*
X-109346Y-32066D01*
X-109674Y-31574D01*
X-110237Y-31199D01*
X-110900Y-31067D01*
X-111563Y-31199D01*
X-112126Y-31574D01*
X-112501Y-32137D01*
X-112633Y-32800D01*
X-112585Y-33043D01*
X-133821Y-54279D01*
X-134042Y-54610D01*
X-134120Y-55000D01*
Y-62678D01*
X-138300Y-66859D01*
X-139073Y-66539D01*
X-140000Y-66417D01*
X-140927Y-66539D01*
X-141792Y-66897D01*
X-142534Y-67466D01*
X-142691Y-67670D01*
X-143191Y-67501D01*
Y-63100D01*
X-142691Y-62918D01*
X-141993Y-63453D01*
X-141032Y-63851D01*
X-140750Y-63888D01*
Y-60000D01*
Y-56112D01*
X-141032Y-56149D01*
X-141993Y-56547D01*
X-142691Y-57082D01*
X-143191Y-56900D01*
Y-52499D01*
X-142691Y-52330D01*
X-142534Y-52534D01*
X-141792Y-53103D01*
X-140927Y-53461D01*
X-140000Y-53583D01*
X-139073Y-53461D01*
X-138208Y-53103D01*
X-137466Y-52534D01*
X-136897Y-51792D01*
X-136539Y-50927D01*
X-136417Y-50000D01*
X-136539Y-49073D01*
X-136897Y-48208D01*
X-137466Y-47466D01*
X-138208Y-46897D01*
X-139073Y-46539D01*
X-140000Y-46417D01*
X-140927Y-46539D01*
X-141792Y-46897D01*
X-142534Y-47466D01*
X-142691Y-47670D01*
X-143191Y-47501D01*
Y-42499D01*
X-142691Y-42330D01*
X-142534Y-42534D01*
X-141792Y-43103D01*
X-140927Y-43461D01*
X-140000Y-43583D01*
X-139073Y-43461D01*
X-138208Y-43103D01*
X-137466Y-42534D01*
X-136897Y-41792D01*
X-136539Y-40927D01*
X-136417Y-40000D01*
X-136539Y-39073D01*
X-136897Y-38208D01*
X-137466Y-37466D01*
X-138208Y-36897D01*
X-139073Y-36539D01*
X-140000Y-36417D01*
X-140927Y-36539D01*
X-141792Y-36897D01*
X-142534Y-37466D01*
X-142691Y-37670D01*
X-143191Y-37501D01*
X-143191Y-32499D01*
X-142691Y-32330D01*
X-142534Y-32534D01*
X-141792Y-33103D01*
X-140927Y-33461D01*
X-140000Y-33583D01*
X-139073Y-33461D01*
X-138208Y-33103D01*
X-137466Y-32534D01*
X-136897Y-31792D01*
X-136539Y-30927D01*
X-136417Y-30000D01*
X-136539Y-29073D01*
X-136897Y-28208D01*
X-137466Y-27466D01*
X-138208Y-26897D01*
X-139073Y-26539D01*
X-140000Y-26417D01*
X-140927Y-26539D01*
X-141792Y-26897D01*
X-142534Y-27466D01*
X-142691Y-27670D01*
X-143191Y-27501D01*
Y-22499D01*
X-142691Y-22330D01*
X-142534Y-22534D01*
X-141792Y-23103D01*
X-140927Y-23461D01*
X-140000Y-23583D01*
X-139073Y-23461D01*
X-138208Y-23103D01*
X-137466Y-22534D01*
X-136897Y-21792D01*
X-136539Y-20927D01*
X-136417Y-20000D01*
X-136539Y-19073D01*
X-136897Y-18208D01*
X-137466Y-17466D01*
X-138208Y-16897D01*
X-139073Y-16539D01*
X-140000Y-16417D01*
X-140927Y-16539D01*
X-141792Y-16897D01*
X-142534Y-17466D01*
X-142691Y-17670D01*
X-143191Y-17501D01*
Y-13100D01*
X-142691Y-12918D01*
X-141993Y-13453D01*
X-141032Y-13851D01*
X-140750Y-13888D01*
Y-10000D01*
Y-6112D01*
X-141032Y-6149D01*
X-141993Y-6547D01*
X-142691Y-7082D01*
X-143191Y-6900D01*
Y-2499D01*
X-142691Y-2330D01*
X-142534Y-2534D01*
X-141792Y-3103D01*
X-140927Y-3461D01*
X-140000Y-3583D01*
X-139073Y-3461D01*
X-138208Y-3103D01*
X-137466Y-2534D01*
X-136897Y-1792D01*
X-136539Y-927D01*
X-136417Y0D01*
X-136539Y927D01*
X-136897Y1792D01*
X-137466Y2534D01*
X-137670Y2690D01*
X-137501Y3190D01*
X-70159D01*
X-69952Y2690D01*
D02*
G37*
%LPC*%
G36*
X-117405Y-51867D02*
X-118069Y-51999D01*
X-118631Y-52374D01*
X-119007Y-52937D01*
X-119139Y-53600D01*
X-119090Y-53843D01*
X-125627Y-60379D01*
X-125847Y-60710D01*
X-125925Y-61100D01*
Y-65801D01*
X-126005Y-65867D01*
X-126669Y-65999D01*
X-127231Y-66374D01*
X-127607Y-66937D01*
X-127739Y-67600D01*
X-127607Y-68263D01*
X-127231Y-68826D01*
X-126669Y-69201D01*
X-126005Y-69333D01*
X-125342Y-69201D01*
X-124780Y-68826D01*
X-124404Y-68263D01*
X-124272Y-67600D01*
X-124321Y-67357D01*
X-124185Y-67221D01*
X-123963Y-66890D01*
X-123886Y-66500D01*
Y-61522D01*
X-117649Y-55285D01*
X-117405Y-55333D01*
X-116742Y-55201D01*
X-116180Y-54826D01*
X-115804Y-54263D01*
X-115672Y-53600D01*
X-115804Y-52937D01*
X-116180Y-52374D01*
X-116742Y-51999D01*
X-117405Y-51867D01*
D02*
G37*
G36*
X-122500Y-50967D02*
X-123163Y-51099D01*
X-123726Y-51474D01*
X-124101Y-52037D01*
X-124233Y-52700D01*
X-124101Y-53363D01*
X-123726Y-53926D01*
X-123163Y-54301D01*
X-122500Y-54433D01*
X-121837Y-54301D01*
X-121274Y-53926D01*
X-120899Y-53363D01*
X-120767Y-52700D01*
X-120899Y-52037D01*
X-121274Y-51474D01*
X-121837Y-51099D01*
X-122500Y-50967D01*
D02*
G37*
G36*
Y-82067D02*
X-123163Y-82199D01*
X-123726Y-82574D01*
X-124101Y-83137D01*
X-124233Y-83800D01*
X-124101Y-84463D01*
X-123726Y-85026D01*
X-123163Y-85401D01*
X-122500Y-85533D01*
X-121837Y-85401D01*
X-121274Y-85026D01*
X-120899Y-84463D01*
X-120767Y-83800D01*
X-120899Y-83137D01*
X-121274Y-82574D01*
X-121837Y-82199D01*
X-122500Y-82067D01*
D02*
G37*
G36*
X-750Y-56112D02*
X-1032Y-56149D01*
X-1993Y-56547D01*
X-2819Y-57181D01*
X-3453Y-58007D01*
X-3851Y-58968D01*
X-3888Y-59250D01*
X-750D01*
Y-56112D01*
D02*
G37*
G36*
Y-60750D02*
X-3888D01*
X-3851Y-61032D01*
X-3453Y-61993D01*
X-2819Y-62819D01*
X-1993Y-63453D01*
X-1032Y-63851D01*
X-750Y-63888D01*
Y-60750D01*
D02*
G37*
G36*
X-21279Y-2665D02*
X-21982Y-2804D01*
X-22577Y-3202D01*
X-22975Y-3798D01*
X-23115Y-4500D01*
X-22975Y-5202D01*
X-22577Y-5798D01*
X-21982Y-6196D01*
X-21279Y-6335D01*
X-20577Y-6196D01*
X-19982Y-5798D01*
X-19584Y-5202D01*
X-19444Y-4500D01*
X-19584Y-3798D01*
X-19982Y-3202D01*
X-20577Y-2804D01*
X-21279Y-2665D01*
D02*
G37*
G36*
Y1535D02*
X-21982Y1396D01*
X-22577Y998D01*
X-22975Y402D01*
X-23115Y-300D01*
X-22975Y-1002D01*
X-22577Y-1598D01*
X-21982Y-1996D01*
X-21279Y-2135D01*
X-20577Y-1996D01*
X-19982Y-1598D01*
X-19584Y-1002D01*
X-19444Y-300D01*
X-19584Y402D01*
X-19982Y998D01*
X-20577Y1396D01*
X-21279Y1535D01*
D02*
G37*
G36*
X-750Y-10750D02*
X-3888D01*
X-3851Y-11032D01*
X-3453Y-11993D01*
X-2819Y-12819D01*
X-1993Y-13453D01*
X-1032Y-13851D01*
X-750Y-13888D01*
Y-10750D01*
D02*
G37*
G36*
X-21279Y-7465D02*
X-21982Y-7604D01*
X-22577Y-8002D01*
X-22975Y-8598D01*
X-23115Y-9300D01*
X-22975Y-10002D01*
X-22577Y-10598D01*
X-21982Y-10995D01*
X-21279Y-11135D01*
X-20577Y-10995D01*
X-19982Y-10598D01*
X-19584Y-10002D01*
X-19444Y-9300D01*
X-19584Y-8598D01*
X-19982Y-8002D01*
X-20577Y-7604D01*
X-21279Y-7465D01*
D02*
G37*
G36*
X-750Y-6112D02*
X-1032Y-6149D01*
X-1993Y-6547D01*
X-2819Y-7181D01*
X-3453Y-8007D01*
X-3851Y-8968D01*
X-3888Y-9250D01*
X-750D01*
Y-6112D01*
D02*
G37*
G36*
X-139250Y-56112D02*
Y-59250D01*
X-136112D01*
X-136149Y-58968D01*
X-136547Y-58007D01*
X-137181Y-57181D01*
X-138007Y-56547D01*
X-138968Y-56149D01*
X-139250Y-56112D01*
D02*
G37*
G36*
X-92106Y-67361D02*
X-92886Y-67516D01*
X-93547Y-67958D01*
X-93989Y-68620D01*
X-94145Y-69400D01*
X-93989Y-70180D01*
X-93547Y-70842D01*
X-92886Y-71284D01*
X-92106Y-71439D01*
X-91325Y-71284D01*
X-90664Y-70842D01*
X-90222Y-70180D01*
X-90066Y-69400D01*
X-90222Y-68620D01*
X-90664Y-67958D01*
X-91325Y-67516D01*
X-92106Y-67361D01*
D02*
G37*
G36*
X-136112Y-60750D02*
X-139250D01*
Y-63888D01*
X-138968Y-63851D01*
X-138007Y-63453D01*
X-137181Y-62819D01*
X-136547Y-61993D01*
X-136149Y-61032D01*
X-136112Y-60750D01*
D02*
G37*
G36*
X-91505Y-25761D02*
X-92286Y-25916D01*
X-92947Y-26358D01*
X-93389Y-27020D01*
X-93545Y-27800D01*
X-93389Y-28580D01*
X-92947Y-29242D01*
X-92286Y-29684D01*
X-91505Y-29839D01*
X-90725Y-29684D01*
X-90064Y-29242D01*
X-89622Y-28580D01*
X-89466Y-27800D01*
X-89622Y-27020D01*
X-90064Y-26358D01*
X-90725Y-25916D01*
X-91505Y-25761D01*
D02*
G37*
G36*
X-78405Y-14867D02*
X-79069Y-14999D01*
X-79631Y-15374D01*
X-80007Y-15937D01*
X-80139Y-16600D01*
X-80090Y-16843D01*
X-85627Y-22379D01*
X-85848Y-22710D01*
X-85925Y-23100D01*
Y-38737D01*
X-86131Y-38874D01*
X-86507Y-39437D01*
X-86639Y-40100D01*
X-86507Y-40763D01*
X-86131Y-41326D01*
X-85569Y-41701D01*
X-84905Y-41833D01*
X-84242Y-41701D01*
X-83680Y-41326D01*
X-83304Y-40763D01*
X-83172Y-40100D01*
X-83304Y-39437D01*
X-83680Y-38874D01*
X-83886Y-38737D01*
Y-23522D01*
X-78649Y-18285D01*
X-78405Y-18333D01*
X-77742Y-18201D01*
X-77180Y-17826D01*
X-76804Y-17263D01*
X-76672Y-16600D01*
X-76804Y-15937D01*
X-77180Y-15374D01*
X-77742Y-14999D01*
X-78405Y-14867D01*
D02*
G37*
G36*
X-136112Y-10750D02*
X-139250D01*
Y-13888D01*
X-138968Y-13851D01*
X-138007Y-13453D01*
X-137181Y-12819D01*
X-136547Y-11993D01*
X-136149Y-11032D01*
X-136112Y-10750D01*
D02*
G37*
G36*
X-122500Y-11667D02*
X-123163Y-11799D01*
X-123726Y-12174D01*
X-124101Y-12737D01*
X-124233Y-13400D01*
X-124101Y-14063D01*
X-123726Y-14626D01*
X-123163Y-15001D01*
X-122500Y-15133D01*
X-121837Y-15001D01*
X-121274Y-14626D01*
X-120899Y-14063D01*
X-120767Y-13400D01*
X-120899Y-12737D01*
X-121274Y-12174D01*
X-121837Y-11799D01*
X-122500Y-11667D01*
D02*
G37*
G36*
X-139250Y-6112D02*
Y-9250D01*
X-136112D01*
X-136149Y-8968D01*
X-136547Y-8007D01*
X-137181Y-7181D01*
X-138007Y-6547D01*
X-138968Y-6149D01*
X-139250Y-6112D01*
D02*
G37*
G36*
X-26018Y-39150D02*
X-29157D01*
X-29119Y-39432D01*
X-28721Y-40393D01*
X-28087Y-41219D01*
X-27262Y-41853D01*
X-26300Y-42251D01*
X-26018Y-42288D01*
Y-39150D01*
D02*
G37*
G36*
X-21380D02*
X-24518D01*
Y-42288D01*
X-24237Y-42251D01*
X-23275Y-41853D01*
X-22449Y-41219D01*
X-21816Y-40393D01*
X-21417Y-39432D01*
X-21380Y-39150D01*
D02*
G37*
%LPD*%
D19*
X-124906Y-61100D02*
X-117405Y-53600D01*
X-133100Y-63100D02*
Y-55000D01*
X-140000Y-70000D02*
X-133100Y-63100D01*
Y-55000D02*
X-110900Y-32800D01*
X-96905Y-83100D02*
Y-82876D01*
X-107687Y-34987D02*
X-100700Y-28000D01*
X-84905Y-40100D02*
Y-23100D01*
X-78405Y-16600D01*
X-98600Y-27521D02*
Y-27130D01*
X-97600Y-28900D02*
Y-28521D01*
X-98600Y-27521D02*
X-97600Y-28521D01*
X-99830Y-25900D02*
X-98600Y-27130D01*
X-126005Y-67600D02*
X-124906Y-66500D01*
Y-61100D01*
X-140000Y-80000D02*
X-132075D01*
X-101570Y-25900D02*
X-99830D01*
X-109087Y-33957D02*
X-102800Y-27670D01*
Y-27130D02*
X-101570Y-25900D01*
X-109087Y-73664D02*
X-99705Y-83046D01*
X-102800Y-27670D02*
Y-27130D01*
X-107687Y-72094D02*
X-96905Y-82876D01*
X-107687Y-72094D02*
Y-34987D01*
X-109087Y-73664D02*
Y-33957D01*
X-132075Y-80000D02*
X-120560Y-68485D01*
X-53668Y-60800D02*
X-53268Y-60400D01*
X-101706Y-60800D02*
X-53668D01*
X-118646Y-67430D02*
X-117946Y-68130D01*
X-118646Y-67430D02*
Y-65690D01*
X-117946Y-71735D02*
X-101081Y-88600D01*
X-117946Y-71735D02*
Y-68130D01*
X-117055Y-64100D02*
X-111906D01*
X-118646Y-65690D02*
X-117055Y-64100D01*
X-116546Y-71155D02*
Y-66560D01*
X-113706Y-72015D02*
Y-66400D01*
X-116546Y-71155D02*
X-100501Y-87200D01*
X-113706Y-72015D02*
X-99921Y-85800D01*
X-58239Y-68400D02*
X-47768D01*
X-57199Y-63400D02*
X-51768D01*
X-57719Y-65900D02*
X-49768D01*
X-60019Y-68200D02*
X-57719Y-65900D01*
X-60599Y-66800D02*
X-57199Y-63400D01*
X-62338Y-66800D02*
X-60599D01*
X-62918Y-68200D02*
X-60019D01*
X-63498Y-69600D02*
X-59439D01*
X-58239Y-68400D01*
X-68268Y-91237D02*
X-64406Y-95100D01*
X-68268Y-91237D02*
Y-70900D01*
X-83706Y-64700D02*
X-83605Y-64600D01*
X-61568D02*
X-61468Y-64700D01*
X-83605Y-64600D02*
X-61568D01*
X-99921Y-85800D02*
X-90098D01*
X-70298Y-66000D01*
X-63138D01*
X-62338Y-66800D01*
X-100501Y-87200D02*
X-89518D01*
X-69718Y-67400D01*
X-63718D01*
X-62918Y-68200D01*
X-101081Y-88600D02*
X-88938D01*
X-69138Y-68800D01*
X-64298D01*
X-63498Y-69600D01*
X-72768Y-38400D02*
X-66768Y-32400D01*
Y-26400D01*
X-63268Y-36900D02*
Y-25900D01*
X-71268Y-17900D02*
X-63268Y-25900D01*
X-71268Y-17900D02*
Y-8263D01*
X-67905Y-4900D01*
D23*
X0Y-50000D02*
D03*
Y-40000D02*
D03*
Y-30000D02*
D03*
Y-20000D02*
D03*
D24*
X-140000Y-60000D02*
D03*
Y-100000D02*
D03*
Y-90000D02*
D03*
Y-80000D02*
D03*
Y-70000D02*
D03*
Y-20000D02*
D03*
Y-30000D02*
D03*
Y-40000D02*
D03*
Y-50000D02*
D03*
X0Y-80000D02*
D03*
Y-100000D02*
D03*
Y-90000D02*
D03*
X-140000Y0D02*
D03*
Y-10000D02*
D03*
X0Y0D02*
D03*
Y-10000D02*
D03*
Y-60000D02*
D03*
Y-70000D02*
D03*
X-35268Y-38400D02*
D03*
X-25268D02*
D03*
D25*
X-91505Y-27800D02*
D03*
X-128300Y-64300D02*
D03*
X-100500Y-19800D02*
D03*
X-92106Y-69400D02*
D03*
D26*
X-100100Y-23600D02*
D03*
X-117405Y-53600D02*
D03*
X-119235Y-49771D02*
D03*
X-37905Y-14900D02*
D03*
Y-9900D02*
D03*
Y-4900D02*
D03*
Y100D02*
D03*
X-84905Y-40100D02*
D03*
X-78405Y-16600D02*
D03*
X-109900Y-83500D02*
D03*
X-100700Y-28000D02*
D03*
X-97600Y-28900D02*
D03*
X-122500Y-83800D02*
D03*
X-110900Y-32800D02*
D03*
X-122500Y-13400D02*
D03*
Y-52700D02*
D03*
X-126005Y-67600D02*
D03*
X-99705Y-83046D02*
D03*
X-96905Y-83100D02*
D03*
X-120560Y-68485D02*
D03*
X-85905Y-17700D02*
D03*
X-83706Y-64700D02*
D03*
X-101706Y-60800D02*
D03*
X-67905Y-9900D02*
D03*
Y-14900D02*
D03*
X-58631D02*
D03*
Y-9900D02*
D03*
Y-4900D02*
D03*
Y100D02*
D03*
X-67905D02*
D03*
Y-4900D02*
D03*
X-49244Y-14900D02*
D03*
Y-9900D02*
D03*
X-49301Y100D02*
D03*
X-45801Y-85100D02*
D03*
X-45744Y-95100D02*
D03*
X-64406Y-90100D02*
D03*
Y-85100D02*
D03*
X-55131D02*
D03*
Y-90100D02*
D03*
Y-95100D02*
D03*
Y-100100D02*
D03*
X-64406D02*
D03*
Y-95100D02*
D03*
X-40268Y-2400D02*
D03*
Y-7400D02*
D03*
Y-12400D02*
D03*
X-36768Y-87600D02*
D03*
Y-92600D02*
D03*
Y-97600D02*
D03*
X-34405Y-100100D02*
D03*
Y-95100D02*
D03*
Y-90100D02*
D03*
Y-85100D02*
D03*
X-61468Y-64700D02*
D03*
X-47768Y-68400D02*
D03*
X-49768Y-65900D02*
D03*
X-51768Y-63400D02*
D03*
X-53268Y-60400D02*
D03*
X-111906Y-64100D02*
D03*
X-116546Y-66560D02*
D03*
X-113706Y-66400D02*
D03*
X-68268Y-70900D02*
D03*
X-72768Y-38400D02*
D03*
X-66768Y-26400D02*
D03*
X-63268Y-36900D02*
D03*
D27*
X-108405Y-500D02*
D03*
Y-5500D02*
D03*
X-112406D02*
D03*
Y-500D02*
D03*
X-108905Y-95100D02*
D03*
Y-100100D02*
D03*
X-104905D02*
D03*
Y-95100D02*
D03*
D28*
X-92567Y-80546D02*
D03*
X-111805Y-87700D02*
D03*
X-109306Y-17200D02*
D03*
X-23806Y-25900D02*
D03*
X-8705Y-700D02*
D03*
Y-4900D02*
D03*
X-8705Y-13900D02*
D03*
Y-9700D02*
D03*
X-14711Y-80600D02*
D03*
Y-76400D02*
D03*
X-111768Y-29400D02*
D03*
X-119268Y-35400D02*
D03*
X-21279Y-9300D02*
D03*
Y-13500D02*
D03*
X-21279Y-4500D02*
D03*
Y-300D02*
D03*
X-78268Y-31900D02*
D03*
X-72268Y-25400D02*
D03*
X-78268Y-12400D02*
D03*
D29*
X-131127Y-19973D02*
D03*
X-127377Y-87473D02*
D03*
Y-27473D02*
D03*
X-123627Y-4973D02*
D03*
X-119877Y-87473D02*
D03*
X-116127Y-4973D02*
D03*
X-63627Y-49973D02*
D03*
X-59877Y-72473D02*
D03*
X-56127Y-49973D02*
D03*
X-59877Y-42473D02*
D03*
X-48627Y-49973D02*
D03*
X-52377Y-42473D02*
D03*
X-44877Y-57473D02*
D03*
X-41127Y-49973D02*
D03*
X-44877Y-42473D02*
D03*
X-33627Y-49973D02*
D03*
X-29877Y-42473D02*
D03*
X-22377Y-87473D02*
D03*
X-14877D02*
D03*
X-11127Y-64973D02*
D03*
X-3627D02*
D03*
Y-4973D02*
D03*
D30*
X-88380Y-40125D02*
D03*
Y-44456D02*
D03*
Y-48787D02*
D03*
Y-53117D02*
D03*
Y-57448D02*
D03*
X-92711Y-40125D02*
D03*
Y-44456D02*
D03*
Y-48787D02*
D03*
Y-53117D02*
D03*
Y-57448D02*
D03*
X-97042Y-40125D02*
D03*
Y-44456D02*
D03*
Y-48787D02*
D03*
Y-53117D02*
D03*
Y-57448D02*
D03*
X-101372Y-40125D02*
D03*
Y-44456D02*
D03*
Y-48787D02*
D03*
Y-53117D02*
D03*
Y-57448D02*
D03*
X-105703Y-40125D02*
D03*
Y-44456D02*
D03*
Y-48787D02*
D03*
Y-53117D02*
D03*
Y-57448D02*
D03*
M02*
